<?xml version="1.0" encoding="utf-8" standalone="no"?>
<!DOCTYPE svg PUBLIC "-//W3C//DTD SVG 1.1//EN"
  "http://www.w3.org/Graphics/SVG/1.1/DTD/svg11.dtd">
<!-- Created with matplotlib (https://matplotlib.org/) -->
<svg height="262.55875pt" version="1.1" viewBox="0 0 439.364063 262.55875" width="439.364063pt" xmlns="http://www.w3.org/2000/svg" xmlns:xlink="http://www.w3.org/1999/xlink">
 <defs>
  <style type="text/css">
*{stroke-linecap:butt;stroke-linejoin:round;}
  </style>
 </defs>
 <g id="figure_1">
  <g id="patch_1">
   <path d="M 0 262.55875 
L 439.364063 262.55875 
L 439.364063 0 
L 0 0 
z
" style="fill:#ffffff;"/>
  </g>
  <g id="axes_1">
   <g id="patch_2">
    <path d="M 47.379688 239.92125 
L 382.179688 239.92125 
L 382.179688 22.48125 
L 47.379688 22.48125 
z
" style="fill:#ffffff;"/>
   </g>
   <g id="matplotlib.axis_1">
    <g id="xtick_1">
     <g id="line2d_1">
      <defs>
       <path d="M 0 0 
L 0 3.5 
" id="m0d673d1f35" style="stroke:#000000;stroke-width:0.8;"/>
      </defs>
      <g>
       <use style="stroke:#000000;stroke-width:0.8;" x="84.338129" xlink:href="#m0d673d1f35" y="239.92125"/>
      </g>
     </g>
     <g id="text_1">
      <!-- 2024-01-15 -->
      <defs>
       <path d="M 35.9375 50.390625 
Q 35.9375 57.421875 32.8125 61.125 
Q 29.6875 64.84375 23.4375 64.84375 
Q 18.75 64.84375 15.421875 62.296875 
Q 12.109375 59.765625 12.109375 55.859375 
Q 12.109375 53.515625 13.46875 51.953125 
Q 14.84375 50.390625 14.84375 48.828125 
Q 14.84375 46.875 13.859375 45.890625 
Q 12.890625 44.921875 10.9375 44.921875 
Q 8.59375 44.921875 7.21875 46.28125 
Q 5.859375 47.65625 5.859375 50.78125 
Q 5.859375 58.984375 11.71875 63.28125 
Q 17.578125 67.578125 24.21875 67.578125 
Q 33.59375 67.578125 38.078125 62.890625 
Q 42.578125 58.203125 42.578125 51.171875 
Q 42.578125 46.484375 40.421875 41.796875 
Q 38.28125 37.109375 33.59375 32.8125 
Q 22.265625 21.875 16.203125 15.03125 
Q 10.15625 8.203125 8.984375 5.859375 
L 32.03125 5.859375 
Q 35.546875 5.859375 37.890625 8.59375 
Q 40.234375 11.328125 41.015625 16.796875 
L 43.359375 16.796875 
L 41.015625 0 
L 4.6875 0 
L 4.6875 5.078125 
Q 6.640625 8.59375 11.125 14.0625 
Q 15.625 19.53125 23.046875 26.953125 
Q 29.6875 33.59375 32.8125 39.453125 
Q 35.9375 45.3125 35.9375 50.390625 
z
" id="FangSong-50"/>
       <path d="M 24.609375 64.453125 
Q 19.140625 64.453125 15.421875 56.046875 
Q 11.71875 47.65625 11.71875 33.59375 
Q 11.71875 18.75 15.421875 10.546875 
Q 19.140625 2.34375 24.609375 2.34375 
Q 30.46875 2.34375 33.78125 10.546875 
Q 37.109375 18.75 37.109375 33.59375 
Q 37.109375 47.65625 33.984375 56.046875 
Q 30.859375 64.453125 24.609375 64.453125 
z
M 24.609375 -0.78125 
Q 16.015625 -0.78125 10.15625 8.203125 
Q 4.296875 17.1875 4.296875 33.59375 
Q 4.296875 48.828125 9.953125 58.203125 
Q 15.625 67.578125 24.609375 67.578125 
Q 33.203125 67.578125 38.859375 58.59375 
Q 44.53125 49.609375 44.53125 33.59375 
Q 44.53125 17.578125 38.859375 8.390625 
Q 33.203125 -0.78125 24.609375 -0.78125 
z
" id="FangSong-48"/>
       <path d="M 35.546875 7.421875 
Q 35.546875 4.6875 37.109375 3.515625 
Q 38.671875 2.34375 41.40625 2.34375 
L 44.921875 2.34375 
L 44.921875 0 
L 19.140625 0 
L 19.140625 2.34375 
L 23.4375 2.34375 
Q 26.5625 2.34375 27.921875 3.515625 
Q 29.296875 4.6875 29.296875 7.421875 
L 29.296875 20.3125 
L 3.125 20.3125 
L 3.125 22.265625 
L 31.640625 67.578125 
L 35.546875 67.578125 
L 35.546875 22.65625 
L 46.09375 22.65625 
L 46.09375 20.3125 
L 35.546875 20.3125 
z
M 28.90625 57.8125 
L 6.640625 22.65625 
L 29.296875 22.65625 
L 29.296875 57.8125 
z
" id="FangSong-52"/>
       <path d="M 2.734375 33.203125 
L 2.734375 36.71875 
L 46.09375 36.71875 
L 46.09375 33.203125 
z
" id="FangSong-45"/>
       <path d="M 28.125 67.96875 
L 28.125 8.59375 
Q 28.125 5.46875 30.078125 3.90625 
Q 32.03125 2.34375 35.546875 2.34375 
L 39.453125 2.34375 
L 39.453125 0 
L 10.9375 0 
L 10.9375 2.34375 
L 14.453125 2.34375 
Q 18.359375 2.34375 20.109375 3.90625 
Q 21.875 5.46875 21.875 8.59375 
L 21.875 55.859375 
Q 21.875 57.421875 20.890625 58.390625 
Q 19.921875 59.375 17.96875 59.375 
L 10.9375 59.375 
L 10.9375 61.71875 
L 14.453125 61.71875 
Q 19.140625 61.71875 22.0625 63.28125 
Q 25 64.84375 26.5625 67.96875 
z
" id="FangSong-49"/>
       <path d="M 26.5625 42.96875 
Q 33.984375 42.96875 38.671875 37.296875 
Q 43.359375 31.640625 43.359375 22.265625 
Q 43.359375 11.71875 38.46875 5.46875 
Q 33.59375 -0.78125 23.4375 -0.78125 
Q 16.40625 -0.78125 10.9375 3.3125 
Q 5.46875 7.421875 5.46875 13.28125 
Q 5.46875 15.625 6.828125 17.375 
Q 8.203125 19.140625 10.546875 19.140625 
Q 12.890625 19.140625 13.671875 17.578125 
Q 14.453125 16.015625 14.453125 14.84375 
Q 14.453125 12.5 13.28125 11.125 
Q 12.109375 9.765625 12.109375 8.203125 
Q 12.109375 5.078125 15.8125 3.515625 
Q 19.53125 1.953125 23.828125 1.953125 
Q 30.078125 1.953125 33.390625 7.03125 
Q 36.71875 12.109375 36.71875 21.484375 
Q 36.71875 29.296875 33.78125 34.171875 
Q 30.859375 39.0625 25 39.0625 
Q 20.703125 39.0625 17.578125 37.5 
Q 14.453125 35.9375 11.71875 30.859375 
L 8.203125 31.25 
L 10.15625 66.796875 
L 42.1875 66.796875 
L 41.015625 60.9375 
L 12.890625 60.9375 
L 11.328125 35.15625 
Q 15.234375 40.625 18.9375 41.796875 
Q 22.65625 42.96875 26.5625 42.96875 
z
" id="FangSong-53"/>
      </defs>
      <g transform="translate(59.338129 253.913437)scale(0.1 -0.1)">
       <use xlink:href="#FangSong-50"/>
       <use x="50" xlink:href="#FangSong-48"/>
       <use x="100" xlink:href="#FangSong-50"/>
       <use x="150" xlink:href="#FangSong-52"/>
       <use x="200" xlink:href="#FangSong-45"/>
       <use x="250" xlink:href="#FangSong-48"/>
       <use x="300" xlink:href="#FangSong-49"/>
       <use x="350" xlink:href="#FangSong-45"/>
       <use x="400" xlink:href="#FangSong-49"/>
       <use x="450" xlink:href="#FangSong-53"/>
      </g>
     </g>
    </g>
    <g id="xtick_2">
     <g id="line2d_2">
      <g>
       <use style="stroke:#000000;stroke-width:0.8;" x="135.065402" xlink:href="#m0d673d1f35" y="239.92125"/>
      </g>
     </g>
     <g id="text_2">
      <!-- 2024-01-22 -->
      <g transform="translate(110.065402 253.913437)scale(0.1 -0.1)">
       <use xlink:href="#FangSong-50"/>
       <use x="50" xlink:href="#FangSong-48"/>
       <use x="100" xlink:href="#FangSong-50"/>
       <use x="150" xlink:href="#FangSong-52"/>
       <use x="200" xlink:href="#FangSong-45"/>
       <use x="250" xlink:href="#FangSong-48"/>
       <use x="300" xlink:href="#FangSong-49"/>
       <use x="350" xlink:href="#FangSong-45"/>
       <use x="400" xlink:href="#FangSong-50"/>
       <use x="450" xlink:href="#FangSong-50"/>
      </g>
     </g>
    </g>
    <g id="xtick_3">
     <g id="line2d_3">
      <g>
       <use style="stroke:#000000;stroke-width:0.8;" x="207.532934" xlink:href="#m0d673d1f35" y="239.92125"/>
      </g>
     </g>
     <g id="text_3">
      <!-- 2024-02-01 -->
      <g transform="translate(182.532934 253.913437)scale(0.1 -0.1)">
       <use xlink:href="#FangSong-50"/>
       <use x="50" xlink:href="#FangSong-48"/>
       <use x="100" xlink:href="#FangSong-50"/>
       <use x="150" xlink:href="#FangSong-52"/>
       <use x="200" xlink:href="#FangSong-45"/>
       <use x="250" xlink:href="#FangSong-48"/>
       <use x="300" xlink:href="#FangSong-50"/>
       <use x="350" xlink:href="#FangSong-45"/>
       <use x="400" xlink:href="#FangSong-48"/>
       <use x="450" xlink:href="#FangSong-49"/>
      </g>
     </g>
    </g>
    <g id="xtick_4">
     <g id="line2d_4">
      <g>
       <use style="stroke:#000000;stroke-width:0.8;" x="258.260207" xlink:href="#m0d673d1f35" y="239.92125"/>
      </g>
     </g>
     <g id="text_4">
      <!-- 2024-02-08 -->
      <defs>
       <path d="M 9.375 16.015625 
Q 9.375 9.765625 13.46875 5.859375 
Q 17.578125 1.953125 23.828125 1.953125 
Q 31.25 1.953125 34.5625 5.859375 
Q 37.890625 9.765625 37.890625 15.625 
Q 37.890625 20.703125 33.203125 25.390625 
Q 28.515625 30.078125 19.140625 33.984375 
Q 14.453125 30.859375 11.90625 26.171875 
Q 9.375 21.484375 9.375 16.015625 
z
M 43.75 16.796875 
Q 43.75 9.375 38.28125 4.296875 
Q 32.8125 -0.78125 23.828125 -0.78125 
Q 15.625 -0.78125 9.765625 4.296875 
Q 3.90625 9.375 3.90625 16.015625 
Q 3.90625 22.65625 7.21875 27.34375 
Q 10.546875 32.03125 16.796875 35.546875 
Q 11.328125 38.28125 8.390625 42.375 
Q 5.46875 46.484375 5.46875 51.5625 
Q 5.46875 58.203125 10.546875 62.890625 
Q 15.625 67.578125 24.609375 67.578125 
Q 32.8125 67.578125 37.890625 62.890625 
Q 42.96875 58.203125 42.96875 51.5625 
Q 42.96875 46.875 40.03125 42.765625 
Q 37.109375 38.671875 30.859375 35.546875 
Q 37.5 31.640625 40.625 26.953125 
Q 43.75 22.265625 43.75 16.796875 
z
M 37.5 51.171875 
Q 37.5 56.640625 34.375 60.734375 
Q 31.25 64.84375 24.609375 64.84375 
Q 17.1875 64.84375 14.0625 60.9375 
Q 10.9375 57.03125 10.9375 52.734375 
Q 10.9375 48.4375 15.421875 44.328125 
Q 19.921875 40.234375 28.125 37.109375 
Q 32.8125 39.453125 35.15625 42.96875 
Q 37.5 46.484375 37.5 51.171875 
z
" id="FangSong-56"/>
      </defs>
      <g transform="translate(233.260207 253.913437)scale(0.1 -0.1)">
       <use xlink:href="#FangSong-50"/>
       <use x="50" xlink:href="#FangSong-48"/>
       <use x="100" xlink:href="#FangSong-50"/>
       <use x="150" xlink:href="#FangSong-52"/>
       <use x="200" xlink:href="#FangSong-45"/>
       <use x="250" xlink:href="#FangSong-48"/>
       <use x="300" xlink:href="#FangSong-50"/>
       <use x="350" xlink:href="#FangSong-45"/>
       <use x="400" xlink:href="#FangSong-48"/>
       <use x="450" xlink:href="#FangSong-56"/>
      </g>
     </g>
    </g>
    <g id="xtick_5">
     <g id="line2d_5">
      <g>
       <use style="stroke:#000000;stroke-width:0.8;" x="308.98748" xlink:href="#m0d673d1f35" y="239.92125"/>
      </g>
     </g>
     <g id="text_5">
      <!-- 2024-02-15 -->
      <g transform="translate(283.98748 253.913437)scale(0.1 -0.1)">
       <use xlink:href="#FangSong-50"/>
       <use x="50" xlink:href="#FangSong-48"/>
       <use x="100" xlink:href="#FangSong-50"/>
       <use x="150" xlink:href="#FangSong-52"/>
       <use x="200" xlink:href="#FangSong-45"/>
       <use x="250" xlink:href="#FangSong-48"/>
       <use x="300" xlink:href="#FangSong-50"/>
       <use x="350" xlink:href="#FangSong-45"/>
       <use x="400" xlink:href="#FangSong-49"/>
       <use x="450" xlink:href="#FangSong-53"/>
      </g>
     </g>
    </g>
    <g id="xtick_6">
     <g id="line2d_6">
      <g>
       <use style="stroke:#000000;stroke-width:0.8;" x="359.714752" xlink:href="#m0d673d1f35" y="239.92125"/>
      </g>
     </g>
     <g id="text_6">
      <!-- 2024-02-22 -->
      <g transform="translate(334.714752 253.913437)scale(0.1 -0.1)">
       <use xlink:href="#FangSong-50"/>
       <use x="50" xlink:href="#FangSong-48"/>
       <use x="100" xlink:href="#FangSong-50"/>
       <use x="150" xlink:href="#FangSong-52"/>
       <use x="200" xlink:href="#FangSong-45"/>
       <use x="250" xlink:href="#FangSong-48"/>
       <use x="300" xlink:href="#FangSong-50"/>
       <use x="350" xlink:href="#FangSong-45"/>
       <use x="400" xlink:href="#FangSong-50"/>
       <use x="450" xlink:href="#FangSong-50"/>
      </g>
     </g>
    </g>
   </g>
   <g id="matplotlib.axis_2">
    <g id="ytick_1">
     <g id="line2d_7">
      <defs>
       <path d="M 0 0 
L -3.5 0 
" id="m34dae85c20" style="stroke:#000000;stroke-width:0.8;"/>
      </defs>
      <g>
       <use style="stroke:#000000;stroke-width:0.8;" x="47.379688" xlink:href="#m34dae85c20" y="228.950647"/>
      </g>
     </g>
     <g id="text_7">
      <!-- 600 -->
      <defs>
       <path d="M 11.71875 26.5625 
Q 11.71875 14.84375 15.8125 8.390625 
Q 19.921875 1.953125 25.78125 1.953125 
Q 31.640625 1.953125 34.765625 6.25 
Q 37.890625 10.546875 37.890625 22.265625 
Q 37.890625 30.078125 34.5625 34.375 
Q 31.25 38.671875 26.5625 38.671875 
Q 22.265625 38.671875 18.546875 36.125 
Q 14.84375 33.59375 11.71875 26.5625 
z
M 26.953125 42.578125 
Q 36.328125 42.578125 40.421875 36.328125 
Q 44.53125 30.078125 44.53125 22.265625 
Q 44.53125 10.546875 38.859375 4.875 
Q 33.203125 -0.78125 25.78125 -0.78125 
Q 15.234375 -0.78125 9.765625 7.21875 
Q 4.296875 15.234375 4.296875 30.46875 
Q 4.296875 48.4375 10.9375 58 
Q 17.578125 67.578125 28.90625 67.578125 
Q 34.375 67.578125 37.6875 64.453125 
Q 41.015625 61.328125 41.015625 58.984375 
Q 41.015625 56.640625 40.03125 55.46875 
Q 39.0625 54.296875 36.71875 54.296875 
Q 34.765625 54.296875 33.78125 55.265625 
Q 32.8125 56.25 32.8125 58.203125 
Q 32.8125 58.984375 33 59.765625 
Q 33.203125 60.546875 33.203125 61.328125 
Q 33.203125 62.890625 32.03125 63.859375 
Q 30.859375 64.84375 27.734375 64.84375 
Q 21.09375 64.84375 16.40625 58.78125 
Q 11.71875 52.734375 11.71875 32.421875 
Q 14.0625 37.5 18.15625 40.03125 
Q 22.265625 42.578125 26.953125 42.578125 
z
" id="FangSong-54"/>
      </defs>
      <g transform="translate(25.379688 232.44674)scale(0.1 -0.1)">
       <use xlink:href="#FangSong-54"/>
       <use x="50" xlink:href="#FangSong-48"/>
       <use x="100" xlink:href="#FangSong-48"/>
      </g>
     </g>
    </g>
    <g id="ytick_2">
     <g id="line2d_8">
      <g>
       <use style="stroke:#000000;stroke-width:0.8;" x="47.379688" xlink:href="#m34dae85c20" y="197.894444"/>
      </g>
     </g>
     <g id="text_8">
      <!-- 800 -->
      <g transform="translate(25.379688 201.390538)scale(0.1 -0.1)">
       <use xlink:href="#FangSong-56"/>
       <use x="50" xlink:href="#FangSong-48"/>
       <use x="100" xlink:href="#FangSong-48"/>
      </g>
     </g>
    </g>
    <g id="ytick_3">
     <g id="line2d_9">
      <g>
       <use style="stroke:#000000;stroke-width:0.8;" x="47.379688" xlink:href="#m34dae85c20" y="166.838242"/>
      </g>
     </g>
     <g id="text_9">
      <!-- 1000 -->
      <g transform="translate(20.379688 170.334336)scale(0.1 -0.1)">
       <use xlink:href="#FangSong-49"/>
       <use x="50" xlink:href="#FangSong-48"/>
       <use x="100" xlink:href="#FangSong-48"/>
       <use x="150" xlink:href="#FangSong-48"/>
      </g>
     </g>
    </g>
    <g id="ytick_4">
     <g id="line2d_10">
      <g>
       <use style="stroke:#000000;stroke-width:0.8;" x="47.379688" xlink:href="#m34dae85c20" y="135.78204"/>
      </g>
     </g>
     <g id="text_10">
      <!-- 1200 -->
      <g transform="translate(20.379688 139.278134)scale(0.1 -0.1)">
       <use xlink:href="#FangSong-49"/>
       <use x="50" xlink:href="#FangSong-50"/>
       <use x="100" xlink:href="#FangSong-48"/>
       <use x="150" xlink:href="#FangSong-48"/>
      </g>
     </g>
    </g>
    <g id="ytick_5">
     <g id="line2d_11">
      <g>
       <use style="stroke:#000000;stroke-width:0.8;" x="47.379688" xlink:href="#m34dae85c20" y="104.725838"/>
      </g>
     </g>
     <g id="text_11">
      <!-- 1400 -->
      <g transform="translate(20.379688 108.221931)scale(0.1 -0.1)">
       <use xlink:href="#FangSong-49"/>
       <use x="50" xlink:href="#FangSong-52"/>
       <use x="100" xlink:href="#FangSong-48"/>
       <use x="150" xlink:href="#FangSong-48"/>
      </g>
     </g>
    </g>
    <g id="ytick_6">
     <g id="line2d_12">
      <g>
       <use style="stroke:#000000;stroke-width:0.8;" x="47.379688" xlink:href="#m34dae85c20" y="73.669635"/>
      </g>
     </g>
     <g id="text_12">
      <!-- 1600 -->
      <g transform="translate(20.379688 77.165729)scale(0.1 -0.1)">
       <use xlink:href="#FangSong-49"/>
       <use x="50" xlink:href="#FangSong-54"/>
       <use x="100" xlink:href="#FangSong-48"/>
       <use x="150" xlink:href="#FangSong-48"/>
      </g>
     </g>
    </g>
    <g id="ytick_7">
     <g id="line2d_13">
      <g>
       <use style="stroke:#000000;stroke-width:0.8;" x="47.379688" xlink:href="#m34dae85c20" y="42.613433"/>
      </g>
     </g>
     <g id="text_13">
      <!-- 1800 -->
      <g transform="translate(20.379688 46.109527)scale(0.1 -0.1)">
       <use xlink:href="#FangSong-49"/>
       <use x="50" xlink:href="#FangSong-56"/>
       <use x="100" xlink:href="#FangSong-48"/>
       <use x="150" xlink:href="#FangSong-48"/>
      </g>
     </g>
    </g>
    <g id="text_14">
     <!-- 量化 -->
     <defs>
      <path d="M 68.359375 38.28125 
L 71.09375 41.40625 
L 75.78125 36.71875 
L 72.265625 34.375 
L 69.921875 19.140625 
L 72.65625 16.015625 
L 51.5625 14.453125 
L 51.5625 7.03125 
Q 70.3125 8.59375 72.65625 9.375 
L 76.953125 5.859375 
Q 70.703125 5.46875 51.5625 3.90625 
L 51.5625 -3.515625 
Q 78.125 -1.953125 82.03125 -1.171875 
L 87.5 -4.6875 
Q 76.171875 -5.078125 49.796875 -6.640625 
Q 23.4375 -8.203125 19.53125 -8.59375 
L 14.453125 -5.078125 
Q 24.21875 -5.078125 48.046875 -3.515625 
L 48.046875 3.515625 
Q 32.8125 2.734375 30.078125 1.953125 
L 25.78125 5.46875 
Q 32.8125 5.46875 48.046875 6.640625 
L 48.046875 14.453125 
L 32.421875 13.28125 
Q 32.421875 10.15625 31.640625 10.546875 
Q 30.859375 10.9375 27.734375 15.625 
Q 28.90625 17.578125 28.90625 20.3125 
L 28.515625 31.25 
Q 28.515625 35.15625 27.734375 38.28125 
L 28.515625 39.0625 
L 31.640625 35.15625 
z
M 68.359375 75.78125 
L 71.09375 79.6875 
L 75.78125 75.390625 
L 72.65625 72.265625 
L 70.3125 57.421875 
L 73.4375 54.296875 
L 33.59375 51.953125 
Q 33.59375 47.265625 32.609375 48.046875 
Q 31.640625 48.828125 28.515625 53.515625 
Q 30.078125 54.6875 30.078125 57.421875 
L 30.078125 67.578125 
Q 30.46875 73.046875 29.296875 78.125 
L 30.46875 78.515625 
L 33.59375 73.4375 
z
M 33.59375 64.0625 
Q 58.59375 65.625 60.9375 66.40625 
L 65.234375 62.5 
Q 57.8125 62.890625 33.59375 60.9375 
L 33.59375 55.46875 
L 66.40625 57.421875 
L 68.75 72.265625 
L 33.59375 69.921875 
L 33.59375 64.0625 
z
M 91.015625 45.3125 
Q 82.421875 45.3125 50.1875 43.15625 
Q 17.96875 41.015625 12.890625 40.234375 
L 8.203125 44.140625 
Q 16.796875 44.140625 48.046875 46.09375 
Q 79.296875 48.046875 85.9375 49.609375 
z
M 51.5625 27.34375 
Q 57.421875 27.734375 61.328125 28.515625 
L 65.625 25 
Q 60.15625 25 51.5625 23.828125 
L 51.5625 17.96875 
L 66.40625 19.53125 
L 68.75 34.765625 
L 51.5625 33.59375 
L 51.5625 27.34375 
z
M 48.046875 17.96875 
L 48.046875 23.828125 
Q 40.625 23.046875 39.0625 22.265625 
L 34.765625 26.171875 
Q 39.453125 26.171875 48.046875 26.953125 
L 48.046875 33.203125 
L 32.03125 31.640625 
L 32.421875 16.796875 
z
" id="FangSong-37327"/>
      <path d="M 57.8125 7.8125 
Q 57.8125 0.390625 68.359375 0 
L 79.296875 0 
Q 85.15625 0 86.125 2.53125 
Q 87.109375 5.078125 87.109375 21.09375 
L 89.0625 21.09375 
Q 89.0625 15.625 89.640625 8.78125 
Q 90.234375 1.953125 92.578125 -2.34375 
Q 87.890625 -3.90625 79.296875 -3.90625 
L 68.359375 -3.90625 
Q 54.296875 -3.90625 54.296875 6.25 
L 54.296875 30.46875 
Q 46.484375 24.21875 35.546875 18.75 
L 34.765625 20.703125 
Q 45.3125 26.5625 54.296875 34.375 
L 54.296875 66.796875 
Q 54.296875 76.171875 51.953125 80.078125 
L 52.734375 80.859375 
L 60.15625 73.828125 
Q 57.421875 72.65625 57.8125 66.015625 
L 57.8125 36.71875 
Q 66.015625 42.96875 73.046875 50.390625 
Q 80.078125 57.8125 79.296875 61.71875 
L 80.46875 61.71875 
L 83.203125 53.125 
Q 82.421875 53.90625 74.609375 46.671875 
Q 66.796875 39.453125 57.8125 32.8125 
z
M 32.03125 -4.6875 
Q 32.03125 -10.9375 30.46875 -8.59375 
L 26.5625 -1.171875 
Q 28.90625 -0.390625 28.515625 4.6875 
L 28.90625 52.34375 
Q 21.875 42.96875 7.8125 31.25 
L 7.03125 32.8125 
Q 21.875 47.65625 31.640625 62.5 
Q 41.40625 77.34375 39.453125 80.46875 
L 40.625 80.859375 
L 44.921875 72.65625 
Q 43.359375 73.4375 40.03125 68.75 
Q 36.71875 64.0625 32.421875 57.421875 
z
" id="FangSong-21270"/>
     </defs>
     <g transform="translate(14.934375 141.20125)rotate(-90)scale(0.1 -0.1)">
      <use xlink:href="#FangSong-37327"/>
      <use x="100" xlink:href="#FangSong-21270"/>
     </g>
    </g>
   </g>
   <g id="line2d_14">
    <path clip-path="url(#p0b0ca0c90c)" d="M 62.597869 218.236257 
L 84.338129 220.565472 
L 91.584882 220.25491 
L 98.831636 217.615133 
L 106.078389 212.64614 
L 113.325142 224.292216 
L 135.065402 220.876034 
L 142.312155 217.304571 
L 149.558908 221.031315 
L 156.805662 222.894687 
L 164.052415 229.571771 
L 185.792675 225.068621 
L 193.039428 219.012662 
L 200.286181 228.950647 
L 207.532934 230.037614 
L 214.779687 229.105928 
L 236.519947 209.385239 
L 243.7667 200.689503 
L 251.013454 142.148561 
L 258.260207 161.86925 
L 337.974493 209.229958 
L 345.221246 121.806749 
L 352.467999 32.364886 
L 359.714752 91.682233 
L 366.961506 158.918911 
" style="fill:none;stroke:#1f77b4;stroke-linecap:square;stroke-width:1.5;"/>
    <defs>
     <path d="M 0 3 
C 0.795609 3 1.55874 2.683901 2.12132 2.12132 
C 2.683901 1.55874 3 0.795609 3 0 
C 3 -0.795609 2.683901 -1.55874 2.12132 -2.12132 
C 1.55874 -2.683901 0.795609 -3 0 -3 
C -0.795609 -3 -1.55874 -2.683901 -2.12132 -2.12132 
C -2.683901 -1.55874 -3 -0.795609 -3 0 
C -3 0.795609 -2.683901 1.55874 -2.12132 2.12132 
C -1.55874 2.683901 -0.795609 3 0 3 
z
" id="md7aad2d320" style="stroke:#1f77b4;"/>
    </defs>
    <g clip-path="url(#p0b0ca0c90c)">
     <use style="fill:#1f77b4;stroke:#1f77b4;" x="62.597869" xlink:href="#md7aad2d320" y="218.236257"/>
     <use style="fill:#1f77b4;stroke:#1f77b4;" x="84.338129" xlink:href="#md7aad2d320" y="220.565472"/>
     <use style="fill:#1f77b4;stroke:#1f77b4;" x="91.584882" xlink:href="#md7aad2d320" y="220.25491"/>
     <use style="fill:#1f77b4;stroke:#1f77b4;" x="98.831636" xlink:href="#md7aad2d320" y="217.615133"/>
     <use style="fill:#1f77b4;stroke:#1f77b4;" x="106.078389" xlink:href="#md7aad2d320" y="212.64614"/>
     <use style="fill:#1f77b4;stroke:#1f77b4;" x="113.325142" xlink:href="#md7aad2d320" y="224.292216"/>
     <use style="fill:#1f77b4;stroke:#1f77b4;" x="135.065402" xlink:href="#md7aad2d320" y="220.876034"/>
     <use style="fill:#1f77b4;stroke:#1f77b4;" x="142.312155" xlink:href="#md7aad2d320" y="217.304571"/>
     <use style="fill:#1f77b4;stroke:#1f77b4;" x="149.558908" xlink:href="#md7aad2d320" y="221.031315"/>
     <use style="fill:#1f77b4;stroke:#1f77b4;" x="156.805662" xlink:href="#md7aad2d320" y="222.894687"/>
     <use style="fill:#1f77b4;stroke:#1f77b4;" x="164.052415" xlink:href="#md7aad2d320" y="229.571771"/>
     <use style="fill:#1f77b4;stroke:#1f77b4;" x="185.792675" xlink:href="#md7aad2d320" y="225.068621"/>
     <use style="fill:#1f77b4;stroke:#1f77b4;" x="193.039428" xlink:href="#md7aad2d320" y="219.012662"/>
     <use style="fill:#1f77b4;stroke:#1f77b4;" x="200.286181" xlink:href="#md7aad2d320" y="228.950647"/>
     <use style="fill:#1f77b4;stroke:#1f77b4;" x="207.532934" xlink:href="#md7aad2d320" y="230.037614"/>
     <use style="fill:#1f77b4;stroke:#1f77b4;" x="214.779687" xlink:href="#md7aad2d320" y="229.105928"/>
     <use style="fill:#1f77b4;stroke:#1f77b4;" x="236.519947" xlink:href="#md7aad2d320" y="209.385239"/>
     <use style="fill:#1f77b4;stroke:#1f77b4;" x="243.7667" xlink:href="#md7aad2d320" y="200.689503"/>
     <use style="fill:#1f77b4;stroke:#1f77b4;" x="251.013454" xlink:href="#md7aad2d320" y="142.148561"/>
     <use style="fill:#1f77b4;stroke:#1f77b4;" x="258.260207" xlink:href="#md7aad2d320" y="161.86925"/>
     <use style="fill:#1f77b4;stroke:#1f77b4;" x="337.974493" xlink:href="#md7aad2d320" y="209.229958"/>
     <use style="fill:#1f77b4;stroke:#1f77b4;" x="345.221246" xlink:href="#md7aad2d320" y="121.806749"/>
     <use style="fill:#1f77b4;stroke:#1f77b4;" x="352.467999" xlink:href="#md7aad2d320" y="32.364886"/>
     <use style="fill:#1f77b4;stroke:#1f77b4;" x="359.714752" xlink:href="#md7aad2d320" y="91.682233"/>
     <use style="fill:#1f77b4;stroke:#1f77b4;" x="366.961506" xlink:href="#md7aad2d320" y="158.918911"/>
    </g>
   </g>
   <g id="patch_3">
    <path d="M 47.379688 239.92125 
L 47.379688 22.48125 
" style="fill:none;stroke:#000000;stroke-linecap:square;stroke-linejoin:miter;stroke-width:0.8;"/>
   </g>
   <g id="patch_4">
    <path d="M 382.179688 239.92125 
L 382.179688 22.48125 
" style="fill:none;stroke:#000000;stroke-linecap:square;stroke-linejoin:miter;stroke-width:0.8;"/>
   </g>
   <g id="patch_5">
    <path d="M 47.379688 239.92125 
L 382.179688 239.92125 
" style="fill:none;stroke:#000000;stroke-linecap:square;stroke-linejoin:miter;stroke-width:0.8;"/>
   </g>
   <g id="patch_6">
    <path d="M 47.379688 22.48125 
L 382.179688 22.48125 
" style="fill:none;stroke:#000000;stroke-linecap:square;stroke-linejoin:miter;stroke-width:0.8;"/>
   </g>
   <g id="legend_1">
    <g id="patch_7">
     <path d="M 54.379688 44.660937 
L 106.379688 44.660937 
Q 108.379688 44.660937 108.379688 42.660937 
L 108.379688 29.48125 
Q 108.379688 27.48125 106.379688 27.48125 
L 54.379688 27.48125 
Q 52.379688 27.48125 52.379688 29.48125 
L 52.379688 42.660937 
Q 52.379688 44.660937 54.379688 44.660937 
z
" style="fill:#ffffff;opacity:0.8;stroke:#cccccc;stroke-linejoin:miter;"/>
    </g>
    <g id="line2d_15">
     <path d="M 56.379688 35.715625 
L 76.379688 35.715625 
" style="fill:none;stroke:#1f77b4;stroke-linecap:square;stroke-width:1.5;"/>
    </g>
    <g id="line2d_16">
     <g>
      <use style="fill:#1f77b4;stroke:#1f77b4;" x="66.379688" xlink:href="#md7aad2d320" y="35.715625"/>
     </g>
    </g>
    <g id="text_15">
     <!-- 量化 -->
     <g transform="translate(84.379688 39.215625)scale(0.1 -0.1)">
      <use xlink:href="#FangSong-37327"/>
      <use x="100" xlink:href="#FangSong-21270"/>
     </g>
    </g>
   </g>
  </g>
  <g id="axes_2">
   <g id="matplotlib.axis_3">
    <g id="ytick_8">
     <g id="line2d_17">
      <defs>
       <path d="M 0 0 
L 3.5 0 
" id="m04b4de7748" style="stroke:#000000;stroke-width:0.8;"/>
      </defs>
      <g>
       <use style="stroke:#000000;stroke-width:0.8;" x="382.179688" xlink:href="#m04b4de7748" y="206.827484"/>
      </g>
     </g>
     <g id="text_16">
      <!-- 100000 -->
      <g transform="translate(389.179688 210.323578)scale(0.1 -0.1)">
       <use xlink:href="#FangSong-49"/>
       <use x="50" xlink:href="#FangSong-48"/>
       <use x="100" xlink:href="#FangSong-48"/>
       <use x="150" xlink:href="#FangSong-48"/>
       <use x="200" xlink:href="#FangSong-48"/>
       <use x="250" xlink:href="#FangSong-48"/>
      </g>
     </g>
    </g>
    <g id="ytick_9">
     <g id="line2d_18">
      <g>
       <use style="stroke:#000000;stroke-width:0.8;" x="382.179688" xlink:href="#m04b4de7748" y="160.607819"/>
      </g>
     </g>
     <g id="text_17">
      <!-- 200000 -->
      <g transform="translate(389.179688 164.103913)scale(0.1 -0.1)">
       <use xlink:href="#FangSong-50"/>
       <use x="50" xlink:href="#FangSong-48"/>
       <use x="100" xlink:href="#FangSong-48"/>
       <use x="150" xlink:href="#FangSong-48"/>
       <use x="200" xlink:href="#FangSong-48"/>
       <use x="250" xlink:href="#FangSong-48"/>
      </g>
     </g>
    </g>
    <g id="ytick_10">
     <g id="line2d_19">
      <g>
       <use style="stroke:#000000;stroke-width:0.8;" x="382.179688" xlink:href="#m04b4de7748" y="114.388153"/>
      </g>
     </g>
     <g id="text_18">
      <!-- 300000 -->
      <defs>
       <path d="M 43.359375 17.96875 
Q 43.359375 10.546875 37.890625 4.875 
Q 32.421875 -0.78125 22.65625 -0.78125 
Q 15.625 -0.78125 10.546875 3.125 
Q 5.46875 7.03125 5.46875 12.109375 
Q 5.46875 14.453125 7.03125 16.203125 
Q 8.59375 17.96875 10.15625 17.96875 
Q 12.5 17.96875 13.46875 16.203125 
Q 14.453125 14.453125 14.453125 13.28125 
Q 14.453125 11.328125 13.671875 9.953125 
Q 12.890625 8.59375 12.890625 7.421875 
Q 12.890625 5.078125 15.8125 3.515625 
Q 18.75 1.953125 22.265625 1.953125 
Q 29.296875 1.953125 32.8125 6.046875 
Q 36.328125 10.15625 36.328125 18.75 
Q 36.328125 25.78125 32.609375 30.078125 
Q 28.90625 34.375 18.75 34.375 
L 18.75 37.109375 
Q 26.5625 37.109375 30.265625 40.8125 
Q 33.984375 44.53125 33.984375 51.171875 
Q 33.984375 56.640625 31.046875 60.734375 
Q 28.125 64.84375 21.875 64.84375 
Q 19.140625 64.84375 16.015625 63.46875 
Q 12.890625 62.109375 12.890625 58.984375 
Q 12.890625 55.859375 13.671875 55.078125 
Q 14.453125 54.296875 14.453125 53.125 
Q 14.453125 51.171875 13.671875 50 
Q 12.890625 48.828125 10.9375 48.828125 
Q 9.375 48.828125 8 50 
Q 6.640625 51.171875 6.640625 54.296875 
Q 6.640625 60.15625 11.71875 63.859375 
Q 16.796875 67.578125 23.4375 67.578125 
Q 31.25 67.578125 35.9375 62.6875 
Q 40.625 57.8125 40.625 52.34375 
Q 40.625 46.484375 37.6875 42.375 
Q 34.765625 38.28125 28.515625 36.328125 
Q 37.109375 33.203125 40.234375 28.125 
Q 43.359375 23.046875 43.359375 17.96875 
z
" id="FangSong-51"/>
      </defs>
      <g transform="translate(389.179688 117.884247)scale(0.1 -0.1)">
       <use xlink:href="#FangSong-51"/>
       <use x="50" xlink:href="#FangSong-48"/>
       <use x="100" xlink:href="#FangSong-48"/>
       <use x="150" xlink:href="#FangSong-48"/>
       <use x="200" xlink:href="#FangSong-48"/>
       <use x="250" xlink:href="#FangSong-48"/>
      </g>
     </g>
    </g>
    <g id="ytick_11">
     <g id="line2d_20">
      <g>
       <use style="stroke:#000000;stroke-width:0.8;" x="382.179688" xlink:href="#m04b4de7748" y="68.168488"/>
      </g>
     </g>
     <g id="text_19">
      <!-- 400000 -->
      <g transform="translate(389.179688 71.664582)scale(0.1 -0.1)">
       <use xlink:href="#FangSong-52"/>
       <use x="50" xlink:href="#FangSong-48"/>
       <use x="100" xlink:href="#FangSong-48"/>
       <use x="150" xlink:href="#FangSong-48"/>
       <use x="200" xlink:href="#FangSong-48"/>
       <use x="250" xlink:href="#FangSong-48"/>
      </g>
     </g>
    </g>
    <g id="text_20">
     <!-- a股 -->
     <defs>
      <path d="M 18.75 -0.390625 
Q 11.71875 -0.390625 7.8125 2.921875 
Q 3.90625 6.25 3.90625 10.546875 
Q 3.90625 17.578125 9.953125 22.0625 
Q 16.015625 26.5625 33.984375 28.515625 
L 33.984375 33.203125 
Q 33.984375 37.109375 32.21875 39.640625 
Q 30.46875 42.1875 24.21875 42.1875 
Q 17.578125 42.1875 14.84375 40.03125 
Q 12.109375 37.890625 12.890625 35.546875 
Q 13.671875 33.984375 12.890625 32.421875 
Q 12.109375 30.859375 9.765625 30.859375 
Q 8.203125 30.859375 7.21875 31.828125 
Q 6.25 32.8125 6.25 34.765625 
Q 6.25 38.28125 11.328125 41.40625 
Q 16.40625 44.53125 23.828125 44.53125 
Q 31.640625 44.53125 35.546875 41.59375 
Q 39.453125 38.671875 39.453125 33.203125 
L 39.453125 7.421875 
Q 39.453125 4.296875 40.03125 3.703125 
Q 40.625 3.125 42.1875 3.125 
Q 44.140625 3.125 44.921875 4.875 
Q 45.703125 6.640625 45.703125 9.765625 
L 47.65625 9.765625 
Q 47.65625 4.296875 45.703125 2.140625 
Q 43.75 0 40.625 0 
Q 37.890625 0 36.328125 1.171875 
Q 34.765625 2.34375 33.984375 5.078125 
Q 30.078125 2.34375 26.75 0.96875 
Q 23.4375 -0.390625 18.75 -0.390625 
z
M 10.546875 11.71875 
Q 10.546875 8.203125 12.6875 5.265625 
Q 14.84375 2.34375 19.53125 2.34375 
Q 23.046875 2.34375 26.5625 3.703125 
Q 30.078125 5.078125 33.984375 7.8125 
L 33.984375 26.171875 
Q 20.703125 24.609375 15.625 20.890625 
Q 10.546875 17.1875 10.546875 11.71875 
z
" id="FangSong-97"/>
      <path d="M 28.125 8.203125 
L 37.109375 1.171875 
Q 37.5 2.734375 37.5 6.640625 
L 37.5 33.203125 
L 23.046875 30.859375 
Q 21.875 8.203125 7.8125 -8.984375 
L 6.640625 -7.8125 
Q 16.40625 7.03125 18.359375 21.09375 
Q 20.3125 35.15625 20.3125 53.515625 
Q 20.3125 71.875 18.359375 77.34375 
L 20.3125 78.125 
L 23.828125 70.703125 
L 36.71875 72.65625 
L 39.84375 76.953125 
L 44.53125 73.046875 
L 41.015625 69.53125 
L 41.015625 6.25 
Q 41.015625 -3.515625 38.671875 -7.8125 
Q 35.15625 -1.953125 26.953125 6.640625 
z
M 75.78125 43.359375 
L 80.078125 39.453125 
L 77.734375 37.109375 
Q 73.828125 25 67.1875 13.671875 
Q 77.34375 1.171875 79.875 -0.578125 
Q 82.421875 -2.34375 93.75 -2.734375 
L 93.75 -5.078125 
Q 85.15625 -5.859375 77.34375 -7.03125 
Q 76.171875 -3.90625 65.234375 10.9375 
Q 53.90625 -3.125 41.796875 -10.546875 
L 41.015625 -8.984375 
Q 54.296875 1.5625 62.890625 14.453125 
Q 56.25 23.828125 54.296875 26.171875 
Q 52.34375 28.515625 49.609375 29.296875 
L 49.609375 30.859375 
L 55.859375 30.859375 
Q 56.640625 28.515625 58.984375 25.1875 
Q 61.328125 21.875 64.84375 17.1875 
Q 69.53125 25.390625 73.4375 37.109375 
Q 55.859375 34.375 53.125 33.59375 
L 48.046875 37.109375 
Q 55.078125 37.5 73.046875 40.625 
z
M 23.4375 34.765625 
Q 31.640625 35.546875 33.984375 37.109375 
L 37.5 34.375 
L 37.5 69.140625 
L 23.828125 67.1875 
L 23.828125 51.5625 
Q 30.46875 52.34375 33.59375 53.515625 
L 36.71875 49.609375 
Q 30.859375 49.21875 23.828125 47.65625 
L 23.4375 34.765625 
z
M 71.484375 78.125 
L 76.171875 73.828125 
L 73.4375 71.09375 
L 73.4375 53.90625 
Q 73.828125 50.390625 76.953125 50 
Q 84.375 50 86.328125 51.5625 
L 90.234375 47.65625 
Q 85.9375 46.09375 76.953125 45.703125 
Q 69.921875 46.484375 69.921875 52.734375 
L 69.921875 71.09375 
L 57.03125 69.140625 
Q 57.03125 59.375 54.296875 51.75 
Q 51.5625 44.140625 44.53125 37.5 
L 43.359375 39.0625 
Q 49.21875 46.09375 51.171875 53.3125 
Q 53.125 60.546875 53.125 67.1875 
Q 53.125 73.828125 51.953125 78.90625 
L 53.515625 79.296875 
L 57.03125 72.65625 
L 69.140625 74.609375 
z
" id="FangSong-32929"/>
     </defs>
     <g transform="translate(430.71875 138.70125)rotate(-90)scale(0.1 -0.1)">
      <use xlink:href="#FangSong-97"/>
      <use x="50" xlink:href="#FangSong-32929"/>
     </g>
    </g>
   </g>
   <g id="line2d_21">
    <path clip-path="url(#p0b0ca0c90c)" d="M 62.597869 230.037614 
L 84.338129 228.442111 
L 91.584882 226.810557 
L 98.831636 200.260132 
L 106.078389 130.835421 
L 113.325142 194.343553 
L 135.065402 154.853933 
L 142.312155 149.773005 
L 149.558908 170.309789 
L 156.805662 186.170067 
L 164.052415 195.881281 
L 185.792675 200.588292 
L 193.039428 195.863717 
L 200.286181 177.837124 
L 207.532934 185.171722 
L 214.779687 123.096401 
L 236.519947 32.364886 
L 243.7667 123.802175 
L 251.013454 176.792097 
L 258.260207 198.81207 
L 337.974493 199.697639 
L 345.221246 208.727575 
L 352.467999 204.717094 
L 359.714752 213.127687 
L 366.961506 210.412282 
" style="fill:none;stroke:#ff8c00;stroke-linecap:square;stroke-width:1.5;"/>
    <defs>
     <path d="M 0 -3.5 
L -3.5 3.5 
L 3.5 3.5 
z
" id="me9d6110e25" style="stroke:#ff8c00;stroke-linejoin:miter;"/>
    </defs>
    <g clip-path="url(#p0b0ca0c90c)">
     <use style="fill:#ff8c00;stroke:#ff8c00;stroke-linejoin:miter;" x="62.597869" xlink:href="#me9d6110e25" y="230.037614"/>
     <use style="fill:#ff8c00;stroke:#ff8c00;stroke-linejoin:miter;" x="84.338129" xlink:href="#me9d6110e25" y="228.442111"/>
     <use style="fill:#ff8c00;stroke:#ff8c00;stroke-linejoin:miter;" x="91.584882" xlink:href="#me9d6110e25" y="226.810557"/>
     <use style="fill:#ff8c00;stroke:#ff8c00;stroke-linejoin:miter;" x="98.831636" xlink:href="#me9d6110e25" y="200.260132"/>
     <use style="fill:#ff8c00;stroke:#ff8c00;stroke-linejoin:miter;" x="106.078389" xlink:href="#me9d6110e25" y="130.835421"/>
     <use style="fill:#ff8c00;stroke:#ff8c00;stroke-linejoin:miter;" x="113.325142" xlink:href="#me9d6110e25" y="194.343553"/>
     <use style="fill:#ff8c00;stroke:#ff8c00;stroke-linejoin:miter;" x="135.065402" xlink:href="#me9d6110e25" y="154.853933"/>
     <use style="fill:#ff8c00;stroke:#ff8c00;stroke-linejoin:miter;" x="142.312155" xlink:href="#me9d6110e25" y="149.773005"/>
     <use style="fill:#ff8c00;stroke:#ff8c00;stroke-linejoin:miter;" x="149.558908" xlink:href="#me9d6110e25" y="170.309789"/>
     <use style="fill:#ff8c00;stroke:#ff8c00;stroke-linejoin:miter;" x="156.805662" xlink:href="#me9d6110e25" y="186.170067"/>
     <use style="fill:#ff8c00;stroke:#ff8c00;stroke-linejoin:miter;" x="164.052415" xlink:href="#me9d6110e25" y="195.881281"/>
     <use style="fill:#ff8c00;stroke:#ff8c00;stroke-linejoin:miter;" x="185.792675" xlink:href="#me9d6110e25" y="200.588292"/>
     <use style="fill:#ff8c00;stroke:#ff8c00;stroke-linejoin:miter;" x="193.039428" xlink:href="#me9d6110e25" y="195.863717"/>
     <use style="fill:#ff8c00;stroke:#ff8c00;stroke-linejoin:miter;" x="200.286181" xlink:href="#me9d6110e25" y="177.837124"/>
     <use style="fill:#ff8c00;stroke:#ff8c00;stroke-linejoin:miter;" x="207.532934" xlink:href="#me9d6110e25" y="185.171722"/>
     <use style="fill:#ff8c00;stroke:#ff8c00;stroke-linejoin:miter;" x="214.779687" xlink:href="#me9d6110e25" y="123.096401"/>
     <use style="fill:#ff8c00;stroke:#ff8c00;stroke-linejoin:miter;" x="236.519947" xlink:href="#me9d6110e25" y="32.364886"/>
     <use style="fill:#ff8c00;stroke:#ff8c00;stroke-linejoin:miter;" x="243.7667" xlink:href="#me9d6110e25" y="123.802175"/>
     <use style="fill:#ff8c00;stroke:#ff8c00;stroke-linejoin:miter;" x="251.013454" xlink:href="#me9d6110e25" y="176.792097"/>
     <use style="fill:#ff8c00;stroke:#ff8c00;stroke-linejoin:miter;" x="258.260207" xlink:href="#me9d6110e25" y="198.81207"/>
     <use style="fill:#ff8c00;stroke:#ff8c00;stroke-linejoin:miter;" x="337.974493" xlink:href="#me9d6110e25" y="199.697639"/>
     <use style="fill:#ff8c00;stroke:#ff8c00;stroke-linejoin:miter;" x="345.221246" xlink:href="#me9d6110e25" y="208.727575"/>
     <use style="fill:#ff8c00;stroke:#ff8c00;stroke-linejoin:miter;" x="352.467999" xlink:href="#me9d6110e25" y="204.717094"/>
     <use style="fill:#ff8c00;stroke:#ff8c00;stroke-linejoin:miter;" x="359.714752" xlink:href="#me9d6110e25" y="213.127687"/>
     <use style="fill:#ff8c00;stroke:#ff8c00;stroke-linejoin:miter;" x="366.961506" xlink:href="#me9d6110e25" y="210.412282"/>
    </g>
   </g>
   <g id="patch_8">
    <path d="M 47.379688 239.92125 
L 47.379688 22.48125 
" style="fill:none;stroke:#000000;stroke-linecap:square;stroke-linejoin:miter;stroke-width:0.8;"/>
   </g>
   <g id="patch_9">
    <path d="M 382.179688 239.92125 
L 382.179688 22.48125 
" style="fill:none;stroke:#000000;stroke-linecap:square;stroke-linejoin:miter;stroke-width:0.8;"/>
   </g>
   <g id="patch_10">
    <path d="M 47.379688 239.92125 
L 382.179688 239.92125 
" style="fill:none;stroke:#000000;stroke-linecap:square;stroke-linejoin:miter;stroke-width:0.8;"/>
   </g>
   <g id="patch_11">
    <path d="M 47.379688 22.48125 
L 382.179688 22.48125 
" style="fill:none;stroke:#000000;stroke-linecap:square;stroke-linejoin:miter;stroke-width:0.8;"/>
   </g>
   <g id="text_21">
    <!-- Baidu Index: “量化” &amp; “a股” -->
    <defs>
     <path d="M 1.171875 0 
L 1.171875 2.34375 
L 4.296875 2.34375 
Q 6.25 2.34375 7.03125 3.125 
Q 7.8125 3.90625 7.8125 5.46875 
L 7.8125 61.328125 
Q 7.8125 62.890625 7.03125 63.671875 
Q 6.25 64.453125 4.296875 64.453125 
L 1.953125 64.453125 
L 1.953125 66.796875 
L 24.609375 66.796875 
Q 33.984375 66.796875 38.46875 63.078125 
Q 42.96875 59.375 42.96875 51.5625 
Q 42.96875 46.09375 40.625 42.578125 
Q 38.28125 39.0625 30.859375 36.328125 
Q 39.84375 33.59375 42.96875 28.515625 
Q 46.09375 23.4375 46.09375 17.1875 
Q 46.09375 9.375 40.625 4.6875 
Q 35.15625 0 25.78125 0 
z
M 24.609375 2.34375 
Q 31.25 2.34375 34.953125 6.4375 
Q 38.671875 10.546875 38.671875 17.96875 
Q 38.671875 26.5625 34.765625 30.65625 
Q 30.859375 34.765625 23.046875 34.765625 
L 14.0625 34.765625 
L 14.0625 5.46875 
Q 14.0625 3.90625 15.03125 3.125 
Q 16.015625 2.34375 17.578125 2.34375 
z
M 36.328125 51.5625 
Q 36.328125 58.59375 32.421875 61.515625 
Q 28.515625 64.453125 22.265625 64.453125 
L 17.578125 64.453125 
Q 16.015625 64.453125 15.03125 63.671875 
Q 14.0625 62.890625 14.0625 61.328125 
L 14.0625 37.109375 
L 24.21875 37.109375 
Q 28.515625 37.109375 32.421875 40.625 
Q 36.328125 44.140625 36.328125 51.5625 
z
" id="FangSong-66"/>
     <path d="M 21.875 37.890625 
Q 21.875 39.453125 21.09375 40.421875 
Q 20.3125 41.40625 18.359375 41.40625 
L 10.15625 41.40625 
L 10.15625 43.75 
L 14.0625 43.75 
Q 17.578125 43.75 20.703125 44.328125 
Q 23.828125 44.921875 26.5625 46.484375 
L 27.34375 46.484375 
L 27.34375 5.46875 
Q 27.34375 3.90625 28.3125 3.125 
Q 29.296875 2.34375 30.859375 2.34375 
L 39.0625 2.34375 
L 39.0625 0 
L 10.15625 0 
L 10.15625 2.34375 
L 18.359375 2.34375 
Q 20.3125 2.34375 21.09375 3.125 
Q 21.875 3.90625 21.875 5.46875 
z
M 30.078125 62.109375 
Q 30.078125 59.765625 28.515625 58.203125 
Q 26.953125 56.640625 24.609375 56.640625 
Q 22.265625 56.640625 20.703125 58.203125 
Q 19.140625 59.765625 19.140625 62.109375 
Q 19.140625 64.453125 20.703125 66.015625 
Q 22.265625 67.578125 24.609375 67.578125 
Q 26.953125 67.578125 28.515625 66.015625 
Q 30.078125 64.453125 30.078125 62.109375 
z
" id="FangSong-105"/>
     <path d="M 35.546875 35.15625 
Q 33.59375 38.28125 30.46875 39.640625 
Q 27.34375 41.015625 24.21875 41.015625 
Q 18.359375 41.015625 15.03125 35.546875 
Q 11.71875 30.078125 11.71875 21.09375 
Q 11.71875 11.71875 14.84375 7.21875 
Q 17.96875 2.734375 23.828125 2.734375 
Q 28.125 2.734375 31.046875 5.46875 
Q 33.984375 8.203125 35.546875 13.671875 
z
M 22.65625 -0.390625 
Q 15.625 -0.390625 10.546875 5.265625 
Q 5.46875 10.9375 5.46875 21.875 
Q 5.46875 32.03125 10.9375 38.078125 
Q 16.40625 44.140625 23.828125 44.140625 
Q 26.953125 44.140625 30.265625 42.765625 
Q 33.59375 41.40625 35.546875 38.671875 
L 35.546875 59.765625 
Q 35.546875 62.109375 34.765625 63.28125 
Q 33.984375 64.453125 32.03125 64.453125 
L 28.90625 64.453125 
L 28.90625 66.796875 
L 33.203125 66.796875 
Q 35.15625 66.796875 37.109375 67.578125 
Q 39.0625 68.359375 41.015625 69.921875 
L 41.015625 8.203125 
Q 41.015625 6.25 41.796875 5.46875 
Q 42.578125 4.6875 44.140625 4.6875 
L 46.875 4.6875 
L 46.875 2.34375 
L 44.53125 2.34375 
Q 42.96875 2.34375 40.8125 1.75 
Q 38.671875 1.171875 36.328125 0 
L 35.546875 0 
L 35.546875 7.421875 
Q 33.59375 3.90625 30.265625 1.75 
Q 26.953125 -0.390625 22.65625 -0.390625 
z
" id="FangSong-100"/>
     <path d="M 22.265625 3.515625 
Q 26.953125 3.515625 30.265625 5.859375 
Q 33.59375 8.203125 35.15625 13.28125 
L 35.15625 37.890625 
Q 35.15625 39.453125 34.375 40.421875 
Q 33.59375 41.40625 31.640625 41.40625 
L 29.296875 41.40625 
L 29.296875 43.75 
L 31.640625 43.75 
Q 33.984375 43.75 35.9375 44.140625 
Q 37.890625 44.53125 39.84375 46.09375 
L 40.625 46.09375 
L 40.625 7.8125 
Q 40.625 6.25 41.59375 5.46875 
Q 42.578125 4.6875 44.140625 4.6875 
L 46.484375 4.6875 
L 46.484375 2.34375 
L 44.140625 2.34375 
Q 42.1875 2.34375 40.234375 1.75 
Q 38.28125 1.171875 35.9375 0 
L 35.15625 0 
L 35.15625 8.203125 
Q 33.203125 3.90625 29.296875 1.75 
Q 25.390625 -0.390625 20.3125 -0.390625 
Q 14.0625 -0.390625 10.9375 3.125 
Q 7.8125 6.640625 7.8125 14.453125 
L 7.8125 37.890625 
Q 7.8125 39.453125 7.03125 40.421875 
Q 6.25 41.40625 4.296875 41.40625 
L 1.953125 41.40625 
L 1.953125 43.75 
L 4.296875 43.75 
Q 6.640625 43.75 8.59375 44.140625 
Q 10.546875 44.53125 12.5 46.09375 
L 13.28125 46.09375 
L 13.28125 13.671875 
Q 13.28125 8.203125 15.625 5.859375 
Q 17.96875 3.515625 22.265625 3.515625 
z
" id="FangSong-117"/>
     <path id="FangSong-32"/>
     <path d="M 8.984375 64.453125 
L 8.984375 66.796875 
L 40.234375 66.796875 
L 40.234375 64.453125 
L 31.25 64.453125 
Q 29.6875 64.453125 28.703125 63.671875 
Q 27.734375 62.890625 27.734375 61.328125 
L 27.734375 5.46875 
Q 27.734375 3.90625 28.703125 3.125 
Q 29.6875 2.34375 31.25 2.34375 
L 40.234375 2.34375 
L 40.234375 0 
L 8.984375 0 
L 8.984375 2.34375 
L 17.96875 2.34375 
Q 19.921875 2.34375 20.703125 3.125 
Q 21.484375 3.90625 21.484375 5.46875 
L 21.484375 61.328125 
Q 21.484375 62.890625 20.703125 63.671875 
Q 19.921875 64.453125 17.96875 64.453125 
z
" id="FangSong-73"/>
     <path d="M 2.734375 0 
L 2.734375 2.34375 
L 4.6875 2.34375 
Q 6.640625 2.34375 7.421875 3.125 
Q 8.203125 3.90625 8.203125 5.46875 
L 8.203125 39.0625 
Q 8.203125 40.234375 7.8125 40.8125 
Q 7.421875 41.40625 6.25 41.40625 
L 3.125 41.40625 
L 3.125 43.75 
L 5.859375 43.75 
Q 7.8125 43.75 9.5625 44.140625 
Q 11.328125 44.53125 12.890625 45.703125 
L 13.671875 45.703125 
L 13.671875 36.71875 
Q 17.1875 40.625 20.703125 42.578125 
Q 24.21875 44.53125 28.125 44.53125 
Q 34.765625 44.53125 37.890625 41.015625 
Q 41.015625 37.5 41.015625 30.46875 
L 41.015625 5.46875 
Q 41.015625 3.90625 41.984375 3.125 
Q 42.96875 2.34375 44.53125 2.34375 
L 46.484375 2.34375 
L 46.484375 0 
L 30.078125 0 
L 30.078125 2.34375 
L 32.03125 2.34375 
Q 33.984375 2.34375 34.765625 3.125 
Q 35.546875 3.90625 35.546875 5.46875 
L 35.546875 31.640625 
Q 35.546875 36.328125 33.59375 38.859375 
Q 31.640625 41.40625 27.734375 41.40625 
Q 24.21875 41.40625 20.5 39.0625 
Q 16.796875 36.71875 13.671875 32.421875 
L 13.671875 5.46875 
Q 13.671875 3.90625 14.640625 3.125 
Q 15.625 2.34375 17.1875 2.34375 
L 19.140625 2.34375 
L 19.140625 0 
z
" id="FangSong-110"/>
     <path d="M 37.109375 24.21875 
Q 37.5 32.8125 34.171875 37.296875 
Q 30.859375 41.796875 25.390625 41.796875 
Q 19.53125 41.796875 15.8125 37.109375 
Q 12.109375 32.421875 12.109375 24.21875 
z
M 12.109375 21.875 
Q 12.109375 11.328125 16.203125 6.828125 
Q 20.3125 2.34375 26.953125 2.34375 
Q 32.03125 2.34375 35.546875 5.265625 
Q 39.0625 8.203125 40.625 12.5 
L 42.578125 11.71875 
Q 41.40625 7.421875 37.296875 3.3125 
Q 33.203125 -0.78125 26.171875 -0.78125 
Q 17.1875 -0.78125 11.515625 5.078125 
Q 5.859375 10.9375 5.859375 21.875 
Q 5.859375 31.640625 11.515625 38.078125 
Q 17.1875 44.53125 25.390625 44.53125 
Q 32.8125 44.53125 38.28125 39.453125 
Q 43.75 34.375 43.75 21.875 
z
" id="FangSong-101"/>
     <path d="M 25.78125 26.953125 
L 32.8125 37.5 
Q 33.984375 39.0625 33.78125 40.234375 
Q 33.59375 41.40625 30.859375 41.40625 
L 28.515625 41.40625 
L 28.515625 43.75 
L 43.75 43.75 
L 43.75 41.40625 
L 41.796875 41.40625 
Q 41.015625 41.40625 39.84375 41.203125 
Q 38.671875 41.015625 37.890625 39.84375 
L 27.34375 24.21875 
L 38.28125 6.25 
Q 39.453125 4.296875 41.203125 3.3125 
Q 42.96875 2.34375 43.75 2.34375 
L 45.3125 2.34375 
L 45.3125 0 
L 28.125 0 
L 28.125 2.34375 
L 30.46875 2.34375 
Q 32.8125 2.34375 33 3.515625 
Q 33.203125 4.6875 32.421875 6.25 
L 24.21875 19.53125 
L 14.84375 5.859375 
Q 14.453125 3.90625 15.03125 3.125 
Q 15.625 2.34375 17.1875 2.34375 
L 18.359375 2.34375 
L 18.359375 0 
L 3.125 0 
L 3.125 2.34375 
L 5.46875 2.34375 
Q 7.03125 2.34375 8.984375 3.515625 
Q 10.9375 4.6875 12.109375 7.03125 
L 22.265625 22.265625 
L 12.109375 38.671875 
Q 11.71875 39.453125 10.546875 40.421875 
Q 9.375 41.40625 7.421875 41.40625 
L 5.46875 41.40625 
L 5.46875 43.75 
L 22.265625 43.75 
L 22.265625 41.40625 
L 21.09375 41.40625 
Q 19.140625 41.40625 18.75 40.234375 
Q 18.359375 39.0625 19.140625 37.5 
z
" id="FangSong-120"/>
     <path d="M 25 4.296875 
Q 25 1.953125 23.4375 0.390625 
Q 21.875 -1.171875 19.53125 -1.171875 
Q 17.1875 -1.171875 15.625 0.390625 
Q 14.0625 1.953125 14.0625 4.296875 
Q 14.0625 6.640625 15.625 8.203125 
Q 17.1875 9.765625 19.53125 9.765625 
Q 21.875 9.765625 23.4375 8.203125 
Q 25 6.640625 25 4.296875 
z
M 25 31.640625 
Q 25 29.296875 23.4375 27.734375 
Q 21.875 26.171875 19.53125 26.171875 
Q 17.1875 26.171875 15.625 27.734375 
Q 14.0625 29.296875 14.0625 31.640625 
Q 14.0625 33.984375 15.625 35.546875 
Q 17.1875 37.109375 19.53125 37.109375 
Q 21.875 37.109375 23.4375 35.546875 
Q 25 33.984375 25 31.640625 
z
" id="FangSong-58"/>
     <path d="M 53.125 59.375 
Q 57.8125 59.765625 59.5625 57.421875 
Q 61.328125 55.078125 60.9375 52.34375 
Q 60.546875 49.609375 58 47.65625 
Q 55.46875 45.703125 52.140625 46.671875 
Q 48.828125 47.65625 47.453125 50.78125 
Q 46.09375 53.90625 47.453125 58.203125 
Q 48.828125 62.5 51.75 66.203125 
Q 54.6875 69.921875 59.375 73.4375 
Q 64.0625 76.953125 65.03125 76.5625 
Q 66.015625 76.171875 62.296875 72.84375 
Q 58.59375 69.53125 56.640625 66.796875 
Q 54.6875 64.0625 53.125 59.375 
z
M 74.21875 59.375 
Q 78.90625 59.765625 80.65625 57.421875 
Q 82.421875 55.078125 82.03125 52.34375 
Q 81.640625 49.609375 79.09375 47.65625 
Q 76.5625 45.703125 73.234375 46.671875 
Q 69.921875 47.65625 68.546875 50.78125 
Q 67.1875 53.90625 68.546875 58.203125 
Q 69.921875 62.5 72.84375 66.203125 
Q 75.78125 69.921875 80.46875 73.4375 
Q 85.15625 76.953125 86.125 76.5625 
Q 87.109375 76.171875 83.390625 72.84375 
Q 79.6875 69.53125 77.734375 66.796875 
Q 75.78125 64.0625 74.21875 59.375 
z
" id="FangSong-8220"/>
     <path d="M 25.390625 62.5 
Q 21.09375 62.5 19.53125 64.640625 
Q 17.96875 66.796875 18.15625 69.71875 
Q 18.359375 72.65625 20.5 74.40625 
Q 22.65625 76.171875 26.171875 75.1875 
Q 29.6875 74.21875 30.859375 71.09375 
Q 32.03125 67.96875 30.65625 64.0625 
Q 29.296875 60.15625 26.5625 56.640625 
Q 23.828125 53.125 19.328125 49.40625 
Q 14.84375 45.703125 14.0625 46.09375 
Q 13.28125 46.484375 16.796875 50 
Q 20.3125 53.515625 21.875 56.046875 
Q 23.4375 58.59375 25.390625 62.5 
z
M 45.703125 62.5 
Q 41.40625 62.5 39.84375 64.640625 
Q 38.28125 66.796875 38.46875 69.71875 
Q 38.671875 72.65625 40.8125 74.40625 
Q 42.96875 76.171875 46.484375 75.1875 
Q 50 74.21875 51.171875 71.09375 
Q 52.34375 67.96875 50.96875 64.0625 
Q 49.609375 60.15625 46.875 56.640625 
Q 44.140625 53.125 39.640625 49.40625 
Q 35.15625 45.703125 34.375 46.09375 
Q 33.59375 46.484375 37.109375 50 
Q 40.625 53.515625 42.1875 56.046875 
Q 43.75 58.59375 45.703125 62.5 
z
" id="FangSong-8221"/>
     <path d="M 29.6875 13.671875 
Q 31.640625 16.796875 32.609375 21.28125 
Q 33.59375 25.78125 33.59375 31.25 
Q 33.59375 33.203125 32.8125 34.171875 
Q 32.03125 35.15625 30.078125 35.15625 
L 28.125 35.15625 
L 28.125 37.5 
L 43.75 37.5 
L 43.75 35.15625 
L 42.1875 35.15625 
Q 40.234375 35.15625 39.0625 33.984375 
Q 37.890625 32.8125 37.5 30.46875 
Q 36.328125 23.828125 34.953125 18.75 
Q 33.59375 13.671875 31.640625 10.9375 
Q 34.375 7.421875 36.515625 5.65625 
Q 38.671875 3.90625 40.625 3.90625 
Q 42.578125 3.90625 43.9375 5.46875 
Q 45.3125 7.03125 46.484375 10.15625 
L 48.046875 9.375 
Q 47.265625 4.296875 44.71875 1.75 
Q 42.1875 -0.78125 37.890625 -0.78125 
Q 35.9375 -0.78125 33.59375 0.78125 
Q 31.25 2.34375 28.125 5.859375 
Q 25.390625 2.34375 22.0625 0.78125 
Q 18.75 -0.78125 15.234375 -0.78125 
Q 9.765625 -0.78125 5.265625 4.296875 
Q 0.78125 9.375 0.78125 16.796875 
Q 0.78125 22.65625 3.3125 27.53125 
Q 5.859375 32.421875 10.9375 36.328125 
Q 9.765625 40.234375 8.984375 44.53125 
Q 8.203125 48.828125 8.203125 52.734375 
Q 8.203125 59.765625 11.71875 63.671875 
Q 15.234375 67.578125 19.53125 67.578125 
Q 25.390625 67.578125 27.734375 64.0625 
Q 30.078125 60.546875 30.078125 55.859375 
Q 30.078125 49.609375 26.953125 44.71875 
Q 23.828125 39.84375 17.1875 37.109375 
Q 19.921875 29.6875 23.046875 23.625 
Q 26.171875 17.578125 29.6875 13.671875 
z
M 6.640625 19.921875 
Q 6.640625 11.328125 9.765625 7.421875 
Q 12.890625 3.515625 18.359375 3.515625 
Q 20.703125 3.515625 22.65625 4.484375 
Q 24.609375 5.46875 26.171875 7.8125 
Q 21.875 12.890625 18.15625 19.71875 
Q 14.453125 26.5625 11.71875 33.984375 
Q 9.375 31.640625 8 28.125 
Q 6.640625 24.609375 6.640625 19.921875 
z
M 24.609375 56.25 
Q 24.609375 60.9375 23.625 63.078125 
Q 22.65625 65.234375 19.53125 65.234375 
Q 17.578125 65.234375 15.421875 63.078125 
Q 13.28125 60.9375 13.28125 55.078125 
Q 13.28125 51.171875 14.0625 47.0625 
Q 14.84375 42.96875 16.40625 39.453125 
Q 20.703125 41.40625 22.65625 45.890625 
Q 24.609375 50.390625 24.609375 56.25 
z
" id="FangSong-38"/>
    </defs>
    <g transform="translate(121.779688 16.48125)scale(0.12 -0.12)">
     <use xlink:href="#FangSong-66"/>
     <use x="50" xlink:href="#FangSong-97"/>
     <use x="100" xlink:href="#FangSong-105"/>
     <use x="150" xlink:href="#FangSong-100"/>
     <use x="200" xlink:href="#FangSong-117"/>
     <use x="250" xlink:href="#FangSong-32"/>
     <use x="300" xlink:href="#FangSong-73"/>
     <use x="350" xlink:href="#FangSong-110"/>
     <use x="400" xlink:href="#FangSong-100"/>
     <use x="450" xlink:href="#FangSong-101"/>
     <use x="500" xlink:href="#FangSong-120"/>
     <use x="550" xlink:href="#FangSong-58"/>
     <use x="600" xlink:href="#FangSong-32"/>
     <use x="650" xlink:href="#FangSong-8220"/>
     <use x="750" xlink:href="#FangSong-37327"/>
     <use x="850" xlink:href="#FangSong-21270"/>
     <use x="950" xlink:href="#FangSong-8221"/>
     <use x="1050" xlink:href="#FangSong-32"/>
     <use x="1100" xlink:href="#FangSong-38"/>
     <use x="1150" xlink:href="#FangSong-32"/>
     <use x="1200" xlink:href="#FangSong-8220"/>
     <use x="1300" xlink:href="#FangSong-97"/>
     <use x="1350" xlink:href="#FangSong-32929"/>
     <use x="1450" xlink:href="#FangSong-8221"/>
    </g>
   </g>
   <g id="legend_2">
    <g id="patch_12">
     <path d="M 54.379688 139.693437 
L 101.379688 139.693437 
Q 103.379688 139.693437 103.379688 137.693437 
L 103.379688 124.709062 
Q 103.379688 122.709062 101.379688 122.709062 
L 54.379688 122.709062 
Q 52.379688 122.709062 52.379688 124.709062 
L 52.379688 137.693437 
Q 52.379688 139.693437 54.379688 139.693437 
z
" style="fill:#ffffff;opacity:0.8;stroke:#cccccc;stroke-linejoin:miter;"/>
    </g>
    <g id="line2d_22">
     <path d="M 56.379688 130.748125 
L 76.379688 130.748125 
" style="fill:none;stroke:#ff8c00;stroke-linecap:square;stroke-width:1.5;"/>
    </g>
    <g id="line2d_23">
     <g>
      <use style="fill:#ff8c00;stroke:#ff8c00;stroke-linejoin:miter;" x="66.379688" xlink:href="#me9d6110e25" y="130.748125"/>
     </g>
    </g>
    <g id="text_22">
     <!-- a股 -->
     <g transform="translate(84.379688 134.248125)scale(0.1 -0.1)">
      <use xlink:href="#FangSong-97"/>
      <use x="50" xlink:href="#FangSong-32929"/>
     </g>
    </g>
   </g>
  </g>
 </g>
 <defs>
  <clipPath id="p0b0ca0c90c">
   <rect height="217.44" width="334.8" x="47.379688" y="22.48125"/>
  </clipPath>
 </defs>
</svg>
