<?xml version="1.0" encoding="utf-8" standalone="no"?>
<!DOCTYPE svg PUBLIC "-//W3C//DTD SVG 1.1//EN"
  "http://www.w3.org/Graphics/SVG/1.1/DTD/svg11.dtd">
<!-- Created with matplotlib (https://matplotlib.org/) -->
<svg height="261.668125pt" version="1.1" viewBox="0 0 398.6375 261.668125" width="398.6375pt" xmlns="http://www.w3.org/2000/svg" xmlns:xlink="http://www.w3.org/1999/xlink">
 <defs>
  <style type="text/css">
*{stroke-linecap:butt;stroke-linejoin:round;}
  </style>
 </defs>
 <g id="figure_1">
  <g id="patch_1">
   <path d="M 0 261.668125 
L 398.6375 261.668125 
L 398.6375 0 
L 0 0 
z
" style="fill:#ffffff;"/>
  </g>
  <g id="axes_1">
   <g id="patch_2">
    <path d="M 56.6375 239.030625 
L 391.4375 239.030625 
L 391.4375 21.590625 
L 56.6375 21.590625 
z
" style="fill:#ffffff;"/>
   </g>
   <g id="matplotlib.axis_1">
    <g id="xtick_1">
     <g id="line2d_1">
      <path clip-path="url(#p923351bf9e)" d="M 71.855682 239.030625 
L 71.855682 21.590625 
" style="fill:none;stroke:#b0b0b0;stroke-linecap:square;stroke-width:0.8;"/>
     </g>
     <g id="line2d_2">
      <defs>
       <path d="M 0 0 
L 0 3.5 
" id="mee4d2f696b" style="stroke:#000000;stroke-width:0.8;"/>
      </defs>
      <g>
       <use style="stroke:#000000;stroke-width:0.8;" x="71.855682" xlink:href="#mee4d2f696b" y="239.030625"/>
      </g>
     </g>
     <g id="text_1">
      <!-- 2024-01-15 -->
      <defs>
       <path d="M 35.9375 50.390625 
Q 35.9375 57.421875 32.8125 61.125 
Q 29.6875 64.84375 23.4375 64.84375 
Q 18.75 64.84375 15.421875 62.296875 
Q 12.109375 59.765625 12.109375 55.859375 
Q 12.109375 53.515625 13.46875 51.953125 
Q 14.84375 50.390625 14.84375 48.828125 
Q 14.84375 46.875 13.859375 45.890625 
Q 12.890625 44.921875 10.9375 44.921875 
Q 8.59375 44.921875 7.21875 46.28125 
Q 5.859375 47.65625 5.859375 50.78125 
Q 5.859375 58.984375 11.71875 63.28125 
Q 17.578125 67.578125 24.21875 67.578125 
Q 33.59375 67.578125 38.078125 62.890625 
Q 42.578125 58.203125 42.578125 51.171875 
Q 42.578125 46.484375 40.421875 41.796875 
Q 38.28125 37.109375 33.59375 32.8125 
Q 22.265625 21.875 16.203125 15.03125 
Q 10.15625 8.203125 8.984375 5.859375 
L 32.03125 5.859375 
Q 35.546875 5.859375 37.890625 8.59375 
Q 40.234375 11.328125 41.015625 16.796875 
L 43.359375 16.796875 
L 41.015625 0 
L 4.6875 0 
L 4.6875 5.078125 
Q 6.640625 8.59375 11.125 14.0625 
Q 15.625 19.53125 23.046875 26.953125 
Q 29.6875 33.59375 32.8125 39.453125 
Q 35.9375 45.3125 35.9375 50.390625 
z
" id="FangSong-50"/>
       <path d="M 24.609375 64.453125 
Q 19.140625 64.453125 15.421875 56.046875 
Q 11.71875 47.65625 11.71875 33.59375 
Q 11.71875 18.75 15.421875 10.546875 
Q 19.140625 2.34375 24.609375 2.34375 
Q 30.46875 2.34375 33.78125 10.546875 
Q 37.109375 18.75 37.109375 33.59375 
Q 37.109375 47.65625 33.984375 56.046875 
Q 30.859375 64.453125 24.609375 64.453125 
z
M 24.609375 -0.78125 
Q 16.015625 -0.78125 10.15625 8.203125 
Q 4.296875 17.1875 4.296875 33.59375 
Q 4.296875 48.828125 9.953125 58.203125 
Q 15.625 67.578125 24.609375 67.578125 
Q 33.203125 67.578125 38.859375 58.59375 
Q 44.53125 49.609375 44.53125 33.59375 
Q 44.53125 17.578125 38.859375 8.390625 
Q 33.203125 -0.78125 24.609375 -0.78125 
z
" id="FangSong-48"/>
       <path d="M 35.546875 7.421875 
Q 35.546875 4.6875 37.109375 3.515625 
Q 38.671875 2.34375 41.40625 2.34375 
L 44.921875 2.34375 
L 44.921875 0 
L 19.140625 0 
L 19.140625 2.34375 
L 23.4375 2.34375 
Q 26.5625 2.34375 27.921875 3.515625 
Q 29.296875 4.6875 29.296875 7.421875 
L 29.296875 20.3125 
L 3.125 20.3125 
L 3.125 22.265625 
L 31.640625 67.578125 
L 35.546875 67.578125 
L 35.546875 22.65625 
L 46.09375 22.65625 
L 46.09375 20.3125 
L 35.546875 20.3125 
z
M 28.90625 57.8125 
L 6.640625 22.65625 
L 29.296875 22.65625 
L 29.296875 57.8125 
z
" id="FangSong-52"/>
       <path d="M 2.734375 33.203125 
L 2.734375 36.71875 
L 46.09375 36.71875 
L 46.09375 33.203125 
z
" id="FangSong-45"/>
       <path d="M 28.125 67.96875 
L 28.125 8.59375 
Q 28.125 5.46875 30.078125 3.90625 
Q 32.03125 2.34375 35.546875 2.34375 
L 39.453125 2.34375 
L 39.453125 0 
L 10.9375 0 
L 10.9375 2.34375 
L 14.453125 2.34375 
Q 18.359375 2.34375 20.109375 3.90625 
Q 21.875 5.46875 21.875 8.59375 
L 21.875 55.859375 
Q 21.875 57.421875 20.890625 58.390625 
Q 19.921875 59.375 17.96875 59.375 
L 10.9375 59.375 
L 10.9375 61.71875 
L 14.453125 61.71875 
Q 19.140625 61.71875 22.0625 63.28125 
Q 25 64.84375 26.5625 67.96875 
z
" id="FangSong-49"/>
       <path d="M 26.5625 42.96875 
Q 33.984375 42.96875 38.671875 37.296875 
Q 43.359375 31.640625 43.359375 22.265625 
Q 43.359375 11.71875 38.46875 5.46875 
Q 33.59375 -0.78125 23.4375 -0.78125 
Q 16.40625 -0.78125 10.9375 3.3125 
Q 5.46875 7.421875 5.46875 13.28125 
Q 5.46875 15.625 6.828125 17.375 
Q 8.203125 19.140625 10.546875 19.140625 
Q 12.890625 19.140625 13.671875 17.578125 
Q 14.453125 16.015625 14.453125 14.84375 
Q 14.453125 12.5 13.28125 11.125 
Q 12.109375 9.765625 12.109375 8.203125 
Q 12.109375 5.078125 15.8125 3.515625 
Q 19.53125 1.953125 23.828125 1.953125 
Q 30.078125 1.953125 33.390625 7.03125 
Q 36.71875 12.109375 36.71875 21.484375 
Q 36.71875 29.296875 33.78125 34.171875 
Q 30.859375 39.0625 25 39.0625 
Q 20.703125 39.0625 17.578125 37.5 
Q 14.453125 35.9375 11.71875 30.859375 
L 8.203125 31.25 
L 10.15625 66.796875 
L 42.1875 66.796875 
L 41.015625 60.9375 
L 12.890625 60.9375 
L 11.328125 35.15625 
Q 15.234375 40.625 18.9375 41.796875 
Q 22.65625 42.96875 26.5625 42.96875 
z
" id="FangSong-53"/>
      </defs>
      <g transform="translate(46.855682 253.022813)scale(0.1 -0.1)">
       <use xlink:href="#FangSong-50"/>
       <use x="50" xlink:href="#FangSong-48"/>
       <use x="100" xlink:href="#FangSong-50"/>
       <use x="150" xlink:href="#FangSong-52"/>
       <use x="200" xlink:href="#FangSong-45"/>
       <use x="250" xlink:href="#FangSong-48"/>
       <use x="300" xlink:href="#FangSong-49"/>
       <use x="350" xlink:href="#FangSong-45"/>
       <use x="400" xlink:href="#FangSong-49"/>
       <use x="450" xlink:href="#FangSong-53"/>
      </g>
     </g>
    </g>
    <g id="xtick_2">
     <g id="line2d_3">
      <path clip-path="url(#p923351bf9e)" d="M 138.02169 239.030625 
L 138.02169 21.590625 
" style="fill:none;stroke:#b0b0b0;stroke-linecap:square;stroke-width:0.8;"/>
     </g>
     <g id="line2d_4">
      <g>
       <use style="stroke:#000000;stroke-width:0.8;" x="138.02169" xlink:href="#mee4d2f696b" y="239.030625"/>
      </g>
     </g>
     <g id="text_2">
      <!-- 2024-01-22 -->
      <g transform="translate(113.02169 253.022813)scale(0.1 -0.1)">
       <use xlink:href="#FangSong-50"/>
       <use x="50" xlink:href="#FangSong-48"/>
       <use x="100" xlink:href="#FangSong-50"/>
       <use x="150" xlink:href="#FangSong-52"/>
       <use x="200" xlink:href="#FangSong-45"/>
       <use x="250" xlink:href="#FangSong-48"/>
       <use x="300" xlink:href="#FangSong-49"/>
       <use x="350" xlink:href="#FangSong-45"/>
       <use x="400" xlink:href="#FangSong-50"/>
       <use x="450" xlink:href="#FangSong-50"/>
      </g>
     </g>
    </g>
    <g id="xtick_3">
     <g id="line2d_5">
      <path clip-path="url(#p923351bf9e)" d="M 204.187698 239.030625 
L 204.187698 21.590625 
" style="fill:none;stroke:#b0b0b0;stroke-linecap:square;stroke-width:0.8;"/>
     </g>
     <g id="line2d_6">
      <g>
       <use style="stroke:#000000;stroke-width:0.8;" x="204.187698" xlink:href="#mee4d2f696b" y="239.030625"/>
      </g>
     </g>
     <g id="text_3">
      <!-- 2024-01-29 -->
      <defs>
       <path d="M 10.546875 46.09375 
Q 10.546875 37.5 13.859375 33 
Q 17.1875 28.515625 22.265625 28.515625 
Q 28.125 28.515625 32.421875 33.984375 
Q 36.71875 39.453125 36.71875 44.140625 
Q 36.71875 53.515625 33.59375 59.171875 
Q 30.46875 64.84375 23.4375 64.84375 
Q 16.796875 64.84375 13.671875 59.5625 
Q 10.546875 54.296875 10.546875 46.09375 
z
M 21.09375 25 
Q 13.28125 25 8.59375 29.875 
Q 3.90625 34.765625 3.90625 45.703125 
Q 3.90625 55.078125 8.984375 61.328125 
Q 14.0625 67.578125 23.4375 67.578125 
Q 33.203125 67.578125 38.671875 59.765625 
Q 44.140625 51.953125 44.140625 37.109375 
Q 44.140625 20.703125 37.6875 9.953125 
Q 31.25 -0.78125 19.921875 -0.78125 
Q 14.84375 -0.78125 11.125 1.5625 
Q 7.421875 3.90625 7.421875 7.8125 
Q 7.421875 9.375 8.390625 10.9375 
Q 9.375 12.5 11.71875 12.5 
Q 14.0625 12.5 14.84375 10.734375 
Q 15.625 8.984375 15.625 6.640625 
Q 15.625 5.078125 16.015625 4.09375 
Q 16.40625 3.125 16.796875 2.734375 
Q 17.1875 2.34375 18.15625 2.140625 
Q 19.140625 1.953125 20.3125 1.953125 
Q 27.34375 1.953125 31.640625 9.765625 
Q 35.9375 17.578125 36.71875 35.9375 
Q 34.765625 31.25 30.859375 28.125 
Q 26.953125 25 21.09375 25 
z
" id="FangSong-57"/>
      </defs>
      <g transform="translate(179.187698 253.022813)scale(0.1 -0.1)">
       <use xlink:href="#FangSong-50"/>
       <use x="50" xlink:href="#FangSong-48"/>
       <use x="100" xlink:href="#FangSong-50"/>
       <use x="150" xlink:href="#FangSong-52"/>
       <use x="200" xlink:href="#FangSong-45"/>
       <use x="250" xlink:href="#FangSong-48"/>
       <use x="300" xlink:href="#FangSong-49"/>
       <use x="350" xlink:href="#FangSong-45"/>
       <use x="400" xlink:href="#FangSong-50"/>
       <use x="450" xlink:href="#FangSong-57"/>
      </g>
     </g>
    </g>
    <g id="xtick_4">
     <g id="line2d_7">
      <path clip-path="url(#p923351bf9e)" d="M 270.353706 239.030625 
L 270.353706 21.590625 
" style="fill:none;stroke:#b0b0b0;stroke-linecap:square;stroke-width:0.8;"/>
     </g>
     <g id="line2d_8">
      <g>
       <use style="stroke:#000000;stroke-width:0.8;" x="270.353706" xlink:href="#mee4d2f696b" y="239.030625"/>
      </g>
     </g>
     <g id="text_4">
      <!-- 2024-02-05 -->
      <g transform="translate(245.353706 253.022813)scale(0.1 -0.1)">
       <use xlink:href="#FangSong-50"/>
       <use x="50" xlink:href="#FangSong-48"/>
       <use x="100" xlink:href="#FangSong-50"/>
       <use x="150" xlink:href="#FangSong-52"/>
       <use x="200" xlink:href="#FangSong-45"/>
       <use x="250" xlink:href="#FangSong-48"/>
       <use x="300" xlink:href="#FangSong-50"/>
       <use x="350" xlink:href="#FangSong-45"/>
       <use x="400" xlink:href="#FangSong-48"/>
       <use x="450" xlink:href="#FangSong-53"/>
      </g>
     </g>
    </g>
    <g id="xtick_5">
     <g id="line2d_9">
      <path clip-path="url(#p923351bf9e)" d="M 336.519713 239.030625 
L 336.519713 21.590625 
" style="fill:none;stroke:#b0b0b0;stroke-linecap:square;stroke-width:0.8;"/>
     </g>
     <g id="line2d_10">
      <g>
       <use style="stroke:#000000;stroke-width:0.8;" x="336.519713" xlink:href="#mee4d2f696b" y="239.030625"/>
      </g>
     </g>
     <g id="text_5">
      <!-- 2024-02-20 -->
      <g transform="translate(311.519713 253.022813)scale(0.1 -0.1)">
       <use xlink:href="#FangSong-50"/>
       <use x="50" xlink:href="#FangSong-48"/>
       <use x="100" xlink:href="#FangSong-50"/>
       <use x="150" xlink:href="#FangSong-52"/>
       <use x="200" xlink:href="#FangSong-45"/>
       <use x="250" xlink:href="#FangSong-48"/>
       <use x="300" xlink:href="#FangSong-50"/>
       <use x="350" xlink:href="#FangSong-45"/>
       <use x="400" xlink:href="#FangSong-50"/>
       <use x="450" xlink:href="#FangSong-48"/>
      </g>
     </g>
    </g>
   </g>
   <g id="matplotlib.axis_2">
    <g id="ytick_1">
     <g id="line2d_11">
      <path clip-path="url(#p923351bf9e)" d="M 56.6375 237.444895 
L 391.4375 237.444895 
" style="fill:none;stroke:#b0b0b0;stroke-linecap:square;stroke-width:0.8;"/>
     </g>
     <g id="line2d_12">
      <defs>
       <path d="M 0 0 
L -3.5 0 
" id="m55f14992a1" style="stroke:#000000;stroke-width:0.8;"/>
      </defs>
      <g>
       <use style="stroke:#000000;stroke-width:0.8;" x="56.6375" xlink:href="#m55f14992a1" y="237.444895"/>
      </g>
     </g>
     <g id="text_6">
      <!-- -0.175 -->
      <defs>
       <path d="M 17.578125 4.296875 
Q 17.578125 1.953125 16.015625 0.390625 
Q 14.453125 -1.171875 12.109375 -1.171875 
Q 9.765625 -1.171875 8.203125 0.390625 
Q 6.640625 1.953125 6.640625 4.296875 
Q 6.640625 6.640625 8.203125 8.203125 
Q 9.765625 9.765625 12.109375 9.765625 
Q 14.453125 9.765625 16.015625 8.203125 
Q 17.578125 6.640625 17.578125 4.296875 
z
" id="FangSong-46"/>
       <path d="M 43.75 64.0625 
Q 35.546875 50.78125 30.65625 38.078125 
Q 25.78125 25.390625 25.78125 16.015625 
Q 25.78125 14.453125 25.96875 11.515625 
Q 26.171875 8.59375 26.171875 4.6875 
Q 26.171875 1.5625 25.1875 0.390625 
Q 24.21875 -0.78125 21.875 -0.78125 
Q 19.921875 -0.78125 18.546875 0.578125 
Q 17.1875 1.953125 17.1875 5.46875 
Q 17.1875 12.890625 20.5 23.828125 
Q 23.828125 34.765625 38.28125 60.9375 
L 18.75 60.9375 
Q 14.453125 60.9375 11.90625 58.203125 
Q 9.375 55.46875 8.203125 50 
L 5.859375 50.390625 
L 8.59375 66.796875 
L 43.75 66.796875 
z
" id="FangSong-55"/>
      </defs>
      <g transform="translate(19.6375 240.940989)scale(0.1 -0.1)">
       <use xlink:href="#FangSong-45"/>
       <use x="50" xlink:href="#FangSong-48"/>
       <use x="100" xlink:href="#FangSong-46"/>
       <use x="150" xlink:href="#FangSong-49"/>
       <use x="200" xlink:href="#FangSong-55"/>
       <use x="250" xlink:href="#FangSong-53"/>
      </g>
     </g>
    </g>
    <g id="ytick_2">
     <g id="line2d_13">
      <path clip-path="url(#p923351bf9e)" d="M 56.6375 211.933648 
L 391.4375 211.933648 
" style="fill:none;stroke:#b0b0b0;stroke-linecap:square;stroke-width:0.8;"/>
     </g>
     <g id="line2d_14">
      <g>
       <use style="stroke:#000000;stroke-width:0.8;" x="56.6375" xlink:href="#m55f14992a1" y="211.933648"/>
      </g>
     </g>
     <g id="text_7">
      <!-- -0.150 -->
      <g transform="translate(19.6375 215.429741)scale(0.1 -0.1)">
       <use xlink:href="#FangSong-45"/>
       <use x="50" xlink:href="#FangSong-48"/>
       <use x="100" xlink:href="#FangSong-46"/>
       <use x="150" xlink:href="#FangSong-49"/>
       <use x="200" xlink:href="#FangSong-53"/>
       <use x="250" xlink:href="#FangSong-48"/>
      </g>
     </g>
    </g>
    <g id="ytick_3">
     <g id="line2d_15">
      <path clip-path="url(#p923351bf9e)" d="M 56.6375 186.4224 
L 391.4375 186.4224 
" style="fill:none;stroke:#b0b0b0;stroke-linecap:square;stroke-width:0.8;"/>
     </g>
     <g id="line2d_16">
      <g>
       <use style="stroke:#000000;stroke-width:0.8;" x="56.6375" xlink:href="#m55f14992a1" y="186.4224"/>
      </g>
     </g>
     <g id="text_8">
      <!-- -0.125 -->
      <g transform="translate(19.6375 189.918494)scale(0.1 -0.1)">
       <use xlink:href="#FangSong-45"/>
       <use x="50" xlink:href="#FangSong-48"/>
       <use x="100" xlink:href="#FangSong-46"/>
       <use x="150" xlink:href="#FangSong-49"/>
       <use x="200" xlink:href="#FangSong-50"/>
       <use x="250" xlink:href="#FangSong-53"/>
      </g>
     </g>
    </g>
    <g id="ytick_4">
     <g id="line2d_17">
      <path clip-path="url(#p923351bf9e)" d="M 56.6375 160.911152 
L 391.4375 160.911152 
" style="fill:none;stroke:#b0b0b0;stroke-linecap:square;stroke-width:0.8;"/>
     </g>
     <g id="line2d_18">
      <g>
       <use style="stroke:#000000;stroke-width:0.8;" x="56.6375" xlink:href="#m55f14992a1" y="160.911152"/>
      </g>
     </g>
     <g id="text_9">
      <!-- -0.100 -->
      <g transform="translate(19.6375 164.407246)scale(0.1 -0.1)">
       <use xlink:href="#FangSong-45"/>
       <use x="50" xlink:href="#FangSong-48"/>
       <use x="100" xlink:href="#FangSong-46"/>
       <use x="150" xlink:href="#FangSong-49"/>
       <use x="200" xlink:href="#FangSong-48"/>
       <use x="250" xlink:href="#FangSong-48"/>
      </g>
     </g>
    </g>
    <g id="ytick_5">
     <g id="line2d_19">
      <path clip-path="url(#p923351bf9e)" d="M 56.6375 135.399904 
L 391.4375 135.399904 
" style="fill:none;stroke:#b0b0b0;stroke-linecap:square;stroke-width:0.8;"/>
     </g>
     <g id="line2d_20">
      <g>
       <use style="stroke:#000000;stroke-width:0.8;" x="56.6375" xlink:href="#m55f14992a1" y="135.399904"/>
      </g>
     </g>
     <g id="text_10">
      <!-- -0.075 -->
      <g transform="translate(19.6375 138.895998)scale(0.1 -0.1)">
       <use xlink:href="#FangSong-45"/>
       <use x="50" xlink:href="#FangSong-48"/>
       <use x="100" xlink:href="#FangSong-46"/>
       <use x="150" xlink:href="#FangSong-48"/>
       <use x="200" xlink:href="#FangSong-55"/>
       <use x="250" xlink:href="#FangSong-53"/>
      </g>
     </g>
    </g>
    <g id="ytick_6">
     <g id="line2d_21">
      <path clip-path="url(#p923351bf9e)" d="M 56.6375 109.888657 
L 391.4375 109.888657 
" style="fill:none;stroke:#b0b0b0;stroke-linecap:square;stroke-width:0.8;"/>
     </g>
     <g id="line2d_22">
      <g>
       <use style="stroke:#000000;stroke-width:0.8;" x="56.6375" xlink:href="#m55f14992a1" y="109.888657"/>
      </g>
     </g>
     <g id="text_11">
      <!-- -0.050 -->
      <g transform="translate(19.6375 113.38475)scale(0.1 -0.1)">
       <use xlink:href="#FangSong-45"/>
       <use x="50" xlink:href="#FangSong-48"/>
       <use x="100" xlink:href="#FangSong-46"/>
       <use x="150" xlink:href="#FangSong-48"/>
       <use x="200" xlink:href="#FangSong-53"/>
       <use x="250" xlink:href="#FangSong-48"/>
      </g>
     </g>
    </g>
    <g id="ytick_7">
     <g id="line2d_23">
      <path clip-path="url(#p923351bf9e)" d="M 56.6375 84.377409 
L 391.4375 84.377409 
" style="fill:none;stroke:#b0b0b0;stroke-linecap:square;stroke-width:0.8;"/>
     </g>
     <g id="line2d_24">
      <g>
       <use style="stroke:#000000;stroke-width:0.8;" x="56.6375" xlink:href="#m55f14992a1" y="84.377409"/>
      </g>
     </g>
     <g id="text_12">
      <!-- -0.025 -->
      <g transform="translate(19.6375 87.873503)scale(0.1 -0.1)">
       <use xlink:href="#FangSong-45"/>
       <use x="50" xlink:href="#FangSong-48"/>
       <use x="100" xlink:href="#FangSong-46"/>
       <use x="150" xlink:href="#FangSong-48"/>
       <use x="200" xlink:href="#FangSong-50"/>
       <use x="250" xlink:href="#FangSong-53"/>
      </g>
     </g>
    </g>
    <g id="ytick_8">
     <g id="line2d_25">
      <path clip-path="url(#p923351bf9e)" d="M 56.6375 58.866161 
L 391.4375 58.866161 
" style="fill:none;stroke:#b0b0b0;stroke-linecap:square;stroke-width:0.8;"/>
     </g>
     <g id="line2d_26">
      <g>
       <use style="stroke:#000000;stroke-width:0.8;" x="56.6375" xlink:href="#m55f14992a1" y="58.866161"/>
      </g>
     </g>
     <g id="text_13">
      <!-- 0.000 -->
      <g transform="translate(24.6375 62.362255)scale(0.1 -0.1)">
       <use xlink:href="#FangSong-48"/>
       <use x="50" xlink:href="#FangSong-46"/>
       <use x="100" xlink:href="#FangSong-48"/>
       <use x="150" xlink:href="#FangSong-48"/>
       <use x="200" xlink:href="#FangSong-48"/>
      </g>
     </g>
    </g>
    <g id="ytick_9">
     <g id="line2d_27">
      <path clip-path="url(#p923351bf9e)" d="M 56.6375 33.354914 
L 391.4375 33.354914 
" style="fill:none;stroke:#b0b0b0;stroke-linecap:square;stroke-width:0.8;"/>
     </g>
     <g id="line2d_28">
      <g>
       <use style="stroke:#000000;stroke-width:0.8;" x="56.6375" xlink:href="#m55f14992a1" y="33.354914"/>
      </g>
     </g>
     <g id="text_14">
      <!-- 0.025 -->
      <g transform="translate(24.6375 36.851007)scale(0.1 -0.1)">
       <use xlink:href="#FangSong-48"/>
       <use x="50" xlink:href="#FangSong-46"/>
       <use x="100" xlink:href="#FangSong-48"/>
       <use x="150" xlink:href="#FangSong-50"/>
       <use x="200" xlink:href="#FangSong-53"/>
      </g>
     </g>
    </g>
    <g id="text_15">
     <!-- Factor Cum Ret -->
     <defs>
      <path d="M 20.703125 2.34375 
L 20.703125 0 
L 1.953125 0 
L 1.953125 2.34375 
L 4.6875 2.34375 
Q 6.640625 2.34375 7.421875 3.125 
Q 8.203125 3.90625 8.203125 5.46875 
L 8.203125 61.328125 
Q 8.203125 62.890625 7.421875 63.671875 
Q 6.640625 64.453125 4.6875 64.453125 
L 2.34375 64.453125 
L 2.34375 66.796875 
L 42.96875 66.796875 
L 47.65625 52.734375 
L 45.703125 51.953125 
Q 42.578125 58.203125 38.28125 61.328125 
Q 33.984375 64.453125 28.90625 64.453125 
L 17.96875 64.453125 
Q 16.40625 64.453125 15.421875 63.671875 
Q 14.453125 62.890625 14.453125 61.328125 
L 14.453125 36.328125 
L 27.34375 36.328125 
Q 31.25 36.328125 33 38.078125 
Q 34.765625 39.84375 34.765625 43.75 
L 34.765625 45.703125 
L 37.109375 45.703125 
L 37.109375 23.046875 
L 34.765625 23.046875 
L 34.765625 24.609375 
Q 34.765625 29.296875 33 31.640625 
Q 31.25 33.984375 27.34375 33.984375 
L 14.453125 33.984375 
L 14.453125 5.46875 
Q 14.453125 3.90625 15.421875 3.125 
Q 16.40625 2.34375 17.96875 2.34375 
z
" id="FangSong-70"/>
      <path d="M 18.75 -0.390625 
Q 11.71875 -0.390625 7.8125 2.921875 
Q 3.90625 6.25 3.90625 10.546875 
Q 3.90625 17.578125 9.953125 22.0625 
Q 16.015625 26.5625 33.984375 28.515625 
L 33.984375 33.203125 
Q 33.984375 37.109375 32.21875 39.640625 
Q 30.46875 42.1875 24.21875 42.1875 
Q 17.578125 42.1875 14.84375 40.03125 
Q 12.109375 37.890625 12.890625 35.546875 
Q 13.671875 33.984375 12.890625 32.421875 
Q 12.109375 30.859375 9.765625 30.859375 
Q 8.203125 30.859375 7.21875 31.828125 
Q 6.25 32.8125 6.25 34.765625 
Q 6.25 38.28125 11.328125 41.40625 
Q 16.40625 44.53125 23.828125 44.53125 
Q 31.640625 44.53125 35.546875 41.59375 
Q 39.453125 38.671875 39.453125 33.203125 
L 39.453125 7.421875 
Q 39.453125 4.296875 40.03125 3.703125 
Q 40.625 3.125 42.1875 3.125 
Q 44.140625 3.125 44.921875 4.875 
Q 45.703125 6.640625 45.703125 9.765625 
L 47.65625 9.765625 
Q 47.65625 4.296875 45.703125 2.140625 
Q 43.75 0 40.625 0 
Q 37.890625 0 36.328125 1.171875 
Q 34.765625 2.34375 33.984375 5.078125 
Q 30.078125 2.34375 26.75 0.96875 
Q 23.4375 -0.390625 18.75 -0.390625 
z
M 10.546875 11.71875 
Q 10.546875 8.203125 12.6875 5.265625 
Q 14.84375 2.34375 19.53125 2.34375 
Q 23.046875 2.34375 26.5625 3.703125 
Q 30.078125 5.078125 33.984375 7.8125 
L 33.984375 26.171875 
Q 20.703125 24.609375 15.625 20.890625 
Q 10.546875 17.1875 10.546875 11.71875 
z
" id="FangSong-97"/>
      <path d="M 33.203125 33.203125 
Q 33.203125 34.375 33.390625 34.765625 
Q 33.59375 35.15625 33.984375 36.328125 
Q 34.375 37.890625 32.421875 40.03125 
Q 30.46875 42.1875 25.78125 42.1875 
Q 19.921875 42.1875 15.8125 36.515625 
Q 11.71875 30.859375 11.71875 21.484375 
Q 11.71875 12.890625 15.234375 7.609375 
Q 18.75 2.34375 26.953125 2.34375 
Q 32.421875 2.34375 36.125 5.859375 
Q 39.84375 9.375 41.40625 14.0625 
L 43.359375 13.28125 
Q 41.796875 7.421875 37.5 3.3125 
Q 33.203125 -0.78125 25.78125 -0.78125 
Q 16.40625 -0.78125 10.9375 5.078125 
Q 5.46875 10.9375 5.46875 21.875 
Q 5.46875 31.640625 11.328125 38.078125 
Q 17.1875 44.53125 26.5625 44.53125 
Q 33.203125 44.53125 36.90625 41.015625 
Q 40.625 37.5 40.625 33.984375 
Q 40.625 31.640625 39.640625 30.65625 
Q 38.671875 29.6875 36.71875 29.6875 
Q 35.15625 29.6875 34.171875 30.65625 
Q 33.203125 31.640625 33.203125 33.203125 
z
" id="FangSong-99"/>
      <path d="M 23.046875 12.5 
Q 23.046875 7.03125 25 5.078125 
Q 26.953125 3.125 30.859375 3.125 
Q 34.765625 3.125 37.109375 5.65625 
Q 39.453125 8.203125 40.234375 12.890625 
L 42.1875 12.109375 
Q 41.40625 6.640625 38.078125 3.125 
Q 34.765625 -0.390625 29.296875 -0.390625 
Q 23.4375 -0.390625 20.5 3.125 
Q 17.578125 6.640625 17.578125 14.0625 
L 17.578125 41.40625 
L 5.859375 41.40625 
L 5.859375 43.75 
L 8.984375 43.75 
Q 13.671875 43.75 16.59375 46.671875 
Q 19.53125 49.609375 20.3125 55.859375 
L 20.703125 58.984375 
L 23.046875 58.984375 
L 23.046875 43.75 
L 38.671875 43.75 
L 38.671875 41.40625 
L 23.046875 41.40625 
z
" id="FangSong-116"/>
      <path d="M 44.921875 21.875 
Q 44.921875 12.109375 39.0625 5.65625 
Q 33.203125 -0.78125 24.609375 -0.78125 
Q 15.625 -0.78125 9.953125 5.859375 
Q 4.296875 12.5 4.296875 21.875 
Q 4.296875 30.46875 9.953125 37.5 
Q 15.625 44.53125 24.609375 44.53125 
Q 33.984375 44.53125 39.453125 37.5 
Q 44.921875 30.46875 44.921875 21.875 
z
M 10.546875 21.484375 
Q 10.546875 11.328125 14.640625 6.4375 
Q 18.75 1.5625 24.609375 1.5625 
Q 31.25 1.5625 34.953125 6.828125 
Q 38.671875 12.109375 38.671875 21.484375 
Q 38.671875 31.640625 34.5625 36.90625 
Q 30.46875 42.1875 24.609375 42.1875 
Q 19.140625 42.1875 14.84375 36.90625 
Q 10.546875 31.640625 10.546875 21.484375 
z
" id="FangSong-111"/>
      <path d="M 19.53125 31.640625 
Q 23.4375 37.890625 27.921875 41.203125 
Q 32.421875 44.53125 37.109375 44.53125 
Q 41.015625 44.53125 43.15625 42.765625 
Q 45.3125 41.015625 45.3125 38.671875 
Q 45.3125 36.71875 44.328125 35.546875 
Q 43.359375 34.375 41.40625 34.375 
Q 39.453125 34.375 38.46875 35.546875 
Q 37.5 36.71875 37.890625 38.671875 
Q 37.890625 39.84375 37.5 40.625 
Q 37.109375 41.40625 35.15625 41.40625 
Q 32.03125 41.40625 27.53125 37.5 
Q 23.046875 33.59375 19.53125 26.5625 
L 19.53125 5.46875 
Q 19.53125 3.90625 20.5 3.125 
Q 21.484375 2.34375 23.046875 2.34375 
L 31.640625 2.34375 
L 31.640625 0 
L 2.734375 0 
L 2.734375 2.34375 
L 10.546875 2.34375 
Q 12.5 2.34375 13.28125 3.125 
Q 14.0625 3.90625 14.0625 5.46875 
L 14.0625 37.890625 
Q 14.0625 39.453125 13.28125 40.421875 
Q 12.5 41.40625 10.546875 41.40625 
L 3.125 41.40625 
L 3.125 43.75 
L 6.25 43.75 
Q 8.984375 43.75 12.6875 44.328125 
Q 16.40625 44.921875 18.359375 45.703125 
L 19.53125 45.703125 
z
" id="FangSong-114"/>
      <path id="FangSong-32"/>
      <path d="M 26.5625 -1.171875 
Q 15.625 -1.171875 9.171875 7.03125 
Q 2.734375 15.234375 2.734375 32.8125 
Q 2.734375 47.65625 9.5625 57.421875 
Q 16.40625 67.1875 28.125 67.1875 
Q 30.859375 67.1875 33.59375 66.203125 
Q 36.328125 65.234375 38.28125 65.234375 
Q 39.84375 65.234375 40.8125 65.625 
Q 41.796875 66.015625 42.578125 67.1875 
L 46.09375 50 
L 43.75 49.21875 
Q 41.40625 56.640625 37.5 60.546875 
Q 33.59375 64.453125 27.34375 64.453125 
Q 19.140625 64.453125 14.640625 55.46875 
Q 10.15625 46.484375 10.15625 33.203125 
Q 10.15625 18.75 14.0625 10.546875 
Q 17.96875 2.34375 26.953125 2.34375 
Q 33.203125 2.34375 37.6875 6.828125 
Q 42.1875 11.328125 43.75 18.75 
L 46.09375 17.578125 
Q 44.140625 9.375 38.859375 4.09375 
Q 33.59375 -1.171875 26.5625 -1.171875 
z
" id="FangSong-67"/>
      <path d="M 22.265625 3.515625 
Q 26.953125 3.515625 30.265625 5.859375 
Q 33.59375 8.203125 35.15625 13.28125 
L 35.15625 37.890625 
Q 35.15625 39.453125 34.375 40.421875 
Q 33.59375 41.40625 31.640625 41.40625 
L 29.296875 41.40625 
L 29.296875 43.75 
L 31.640625 43.75 
Q 33.984375 43.75 35.9375 44.140625 
Q 37.890625 44.53125 39.84375 46.09375 
L 40.625 46.09375 
L 40.625 7.8125 
Q 40.625 6.25 41.59375 5.46875 
Q 42.578125 4.6875 44.140625 4.6875 
L 46.484375 4.6875 
L 46.484375 2.34375 
L 44.140625 2.34375 
Q 42.1875 2.34375 40.234375 1.75 
Q 38.28125 1.171875 35.9375 0 
L 35.15625 0 
L 35.15625 8.203125 
Q 33.203125 3.90625 29.296875 1.75 
Q 25.390625 -0.390625 20.3125 -0.390625 
Q 14.0625 -0.390625 10.9375 3.125 
Q 7.8125 6.640625 7.8125 14.453125 
L 7.8125 37.890625 
Q 7.8125 39.453125 7.03125 40.421875 
Q 6.25 41.40625 4.296875 41.40625 
L 1.953125 41.40625 
L 1.953125 43.75 
L 4.296875 43.75 
Q 6.640625 43.75 8.59375 44.140625 
Q 10.546875 44.53125 12.5 46.09375 
L 13.28125 46.09375 
L 13.28125 13.671875 
Q 13.28125 8.203125 15.625 5.859375 
Q 17.96875 3.515625 22.265625 3.515625 
z
" id="FangSong-117"/>
      <path d="M 2.34375 43.75 
Q 4.296875 43.75 6.25 44.140625 
Q 8.203125 44.53125 9.375 45.3125 
L 10.15625 45.3125 
L 10.15625 38.671875 
Q 12.109375 41.796875 14.453125 43.15625 
Q 16.796875 44.53125 19.53125 44.53125 
Q 23.046875 44.53125 25 43.15625 
Q 26.953125 41.796875 27.34375 38.671875 
Q 29.296875 41.796875 31.828125 43.15625 
Q 34.375 44.53125 37.109375 44.53125 
Q 41.796875 44.53125 43.546875 41.796875 
Q 45.3125 39.0625 45.3125 34.765625 
L 45.3125 5.078125 
Q 45.3125 3.515625 46.09375 2.921875 
Q 46.875 2.34375 48.4375 2.34375 
L 49.21875 2.34375 
L 49.21875 0 
L 35.9375 0 
L 35.9375 2.34375 
L 36.71875 2.34375 
Q 38.28125 2.34375 39.0625 2.921875 
Q 39.84375 3.515625 39.84375 5.078125 
L 39.84375 34.375 
Q 39.84375 38.671875 38.859375 40.03125 
Q 37.890625 41.40625 35.9375 41.40625 
Q 33.203125 41.40625 31.046875 39.453125 
Q 28.90625 37.5 27.734375 33.984375 
L 27.734375 5.078125 
Q 27.734375 3.515625 28.515625 2.921875 
Q 29.296875 2.34375 30.859375 2.34375 
L 31.640625 2.34375 
L 31.640625 0 
L 18.359375 0 
L 18.359375 2.34375 
L 19.140625 2.34375 
Q 20.703125 2.34375 21.484375 2.921875 
Q 22.265625 3.515625 22.265625 5.078125 
L 22.265625 34.375 
Q 22.265625 37.890625 21.484375 39.640625 
Q 20.703125 41.40625 18.359375 41.40625 
Q 15.625 41.40625 13.46875 39.453125 
Q 11.328125 37.5 10.15625 33.59375 
L 10.15625 5.078125 
Q 10.15625 3.515625 10.9375 2.921875 
Q 11.71875 2.34375 13.28125 2.34375 
L 14.0625 2.34375 
L 14.0625 0 
L 0.78125 0 
L 0.78125 2.34375 
L 1.5625 2.34375 
Q 3.125 2.34375 3.90625 2.921875 
Q 4.6875 3.515625 4.6875 5.078125 
L 4.6875 39.0625 
Q 4.6875 40.234375 4.296875 40.8125 
Q 3.90625 41.40625 2.734375 41.40625 
L 1.171875 41.40625 
L 1.171875 43.75 
z
" id="FangSong-109"/>
      <path d="M 43.75 51.171875 
Q 43.75 43.359375 39.453125 39.0625 
Q 35.15625 34.765625 29.6875 33.984375 
L 41.40625 5.078125 
Q 42.1875 3.515625 43.15625 2.921875 
Q 44.140625 2.34375 45.3125 2.34375 
L 47.65625 2.34375 
L 47.65625 0 
L 36.71875 0 
L 23.828125 33.59375 
L 14.84375 33.59375 
L 14.84375 5.46875 
Q 14.84375 3.90625 15.8125 3.125 
Q 16.796875 2.34375 18.359375 2.34375 
L 20.703125 2.34375 
L 20.703125 0 
L 2.734375 0 
L 2.734375 2.34375 
L 5.078125 2.34375 
Q 7.03125 2.34375 7.8125 3.125 
Q 8.59375 3.90625 8.59375 5.46875 
L 8.59375 61.328125 
Q 8.59375 62.890625 7.8125 63.671875 
Q 7.03125 64.453125 5.078125 64.453125 
L 2.734375 64.453125 
L 2.734375 66.796875 
L 25 66.796875 
Q 33.984375 66.796875 38.859375 62.890625 
Q 43.75 58.984375 43.75 51.171875 
z
M 14.84375 35.9375 
L 23.4375 35.9375 
Q 29.296875 35.9375 33.203125 39.453125 
Q 37.109375 42.96875 37.109375 50.390625 
Q 37.109375 57.03125 33.59375 60.734375 
Q 30.078125 64.453125 22.65625 64.453125 
L 18.359375 64.453125 
Q 16.796875 64.453125 15.8125 63.671875 
Q 14.84375 62.890625 14.84375 61.328125 
z
" id="FangSong-82"/>
      <path d="M 37.109375 24.21875 
Q 37.5 32.8125 34.171875 37.296875 
Q 30.859375 41.796875 25.390625 41.796875 
Q 19.53125 41.796875 15.8125 37.109375 
Q 12.109375 32.421875 12.109375 24.21875 
z
M 12.109375 21.875 
Q 12.109375 11.328125 16.203125 6.828125 
Q 20.3125 2.34375 26.953125 2.34375 
Q 32.03125 2.34375 35.546875 5.265625 
Q 39.0625 8.203125 40.625 12.5 
L 42.578125 11.71875 
Q 41.40625 7.421875 37.296875 3.3125 
Q 33.203125 -0.78125 26.171875 -0.78125 
Q 17.1875 -0.78125 11.515625 5.078125 
Q 5.859375 10.9375 5.859375 21.875 
Q 5.859375 31.640625 11.515625 38.078125 
Q 17.1875 44.53125 25.390625 44.53125 
Q 32.8125 44.53125 38.28125 39.453125 
Q 43.75 34.375 43.75 21.875 
z
" id="FangSong-101"/>
     </defs>
     <g transform="translate(14.192188 165.310625)rotate(-90)scale(0.1 -0.1)">
      <use xlink:href="#FangSong-70"/>
      <use x="50" xlink:href="#FangSong-97"/>
      <use x="100" xlink:href="#FangSong-99"/>
      <use x="150" xlink:href="#FangSong-116"/>
      <use x="200" xlink:href="#FangSong-111"/>
      <use x="250" xlink:href="#FangSong-114"/>
      <use x="300" xlink:href="#FangSong-32"/>
      <use x="350" xlink:href="#FangSong-67"/>
      <use x="400" xlink:href="#FangSong-117"/>
      <use x="450" xlink:href="#FangSong-109"/>
      <use x="500" xlink:href="#FangSong-32"/>
      <use x="550" xlink:href="#FangSong-82"/>
      <use x="600" xlink:href="#FangSong-101"/>
      <use x="650" xlink:href="#FangSong-116"/>
     </g>
    </g>
   </g>
   <g id="line2d_29">
    <path clip-path="url(#p923351bf9e)" d="M 71.855682 59.574837 
L 85.088883 61.477535 
L 98.322085 61.232304 
L 111.555287 68.545125 
L 124.788488 71.735774 
L 138.02169 81.702276 
L 151.254891 91.830225 
L 164.488093 90.156859 
L 177.721294 84.087326 
L 190.954496 79.157807 
L 204.187698 87.389697 
L 217.420899 93.030288 
L 230.654101 106.476321 
L 243.887302 115.244571 
L 257.120504 125.107745 
L 270.353706 155.732102 
L 283.586907 189.913444 
L 296.820109 229.146989 
L 310.05331 203.596273 
L 323.286512 187.967548 
L 336.519713 181.20143 
L 349.752915 171.169726 
L 362.986117 162.767833 
L 376.219318 151.18048 
" style="fill:none;stroke:#1f77b4;stroke-linecap:square;stroke-width:1.5;"/>
   </g>
   <g id="line2d_30">
    <path clip-path="url(#p923351bf9e)" d="M 71.855682 58.642804 
L 85.088883 59.014458 
L 98.322085 58.717184 
L 111.555287 61.004642 
L 124.788488 60.769612 
L 138.02169 60.893758 
L 151.254891 61.626144 
L 164.488093 58.521947 
L 177.721294 53.414964 
L 190.954496 51.90261 
L 204.187698 50.261984 
L 217.420899 48.991613 
L 230.654101 49.815888 
L 243.887302 51.380631 
L 257.120504 51.477182 
L 270.353706 56.838855 
L 283.586907 58.557728 
L 296.820109 59.941288 
L 310.05331 57.791671 
L 323.286512 56.574245 
L 336.519713 56.081031 
L 349.752915 55.561692 
L 362.986117 55.063241 
L 376.219318 53.851825 
" style="fill:none;stroke:#ff7f0e;stroke-linecap:square;stroke-width:1.5;"/>
   </g>
   <g id="line2d_31">
    <path clip-path="url(#p923351bf9e)" d="M 71.855682 55.587242 
L 85.088883 55.599785 
L 98.322085 53.077751 
L 111.555287 54.706159 
L 124.788488 53.876673 
L 138.02169 54.384993 
L 151.254891 54.079655 
L 164.488093 52.593443 
L 177.721294 50.937138 
L 190.954496 49.295263 
L 204.187698 46.543054 
L 217.420899 43.407216 
L 230.654101 40.352979 
L 243.887302 39.255692 
L 257.120504 36.006798 
L 270.353706 36.564793 
L 283.586907 40.242738 
L 296.820109 40.46511 
L 310.05331 41.398747 
L 323.286512 34.31905 
L 336.519713 31.474261 
L 349.752915 36.969077 
L 362.986117 35.625639 
L 376.219318 35.161675 
" style="fill:none;stroke:#2ca02c;stroke-linecap:square;stroke-width:1.5;"/>
   </g>
   <g id="line2d_32">
    <path clip-path="url(#p923351bf9e)" d="M 71.855682 59.921606 
L 85.088883 59.543092 
L 98.322085 62.512031 
L 111.555287 59.105634 
L 124.788488 61.798483 
L 138.02169 60.816212 
L 151.254891 58.567441 
L 164.488093 61.271426 
L 177.721294 60.605716 
L 190.954496 65.911864 
L 204.187698 72.150925 
L 217.420899 74.914823 
L 230.654101 75.67668 
L 243.887302 74.144275 
L 257.120504 75.019673 
L 270.353706 76.229541 
L 283.586907 80.6267 
L 296.820109 88.00324 
L 310.05331 88.758864 
L 323.286512 80.652303 
L 336.519713 74.195609 
L 349.752915 71.150377 
L 362.986117 66.811005 
L 376.219318 61.296542 
" style="fill:none;stroke:#d62728;stroke-linecap:square;stroke-width:1.5;"/>
   </g>
   <g id="patch_3">
    <path d="M 56.6375 239.030625 
L 56.6375 21.590625 
" style="fill:none;stroke:#000000;stroke-linecap:square;stroke-linejoin:miter;stroke-width:0.8;"/>
   </g>
   <g id="patch_4">
    <path d="M 391.4375 239.030625 
L 391.4375 21.590625 
" style="fill:none;stroke:#000000;stroke-linecap:square;stroke-linejoin:miter;stroke-width:0.8;"/>
   </g>
   <g id="patch_5">
    <path d="M 56.6375 239.030625 
L 391.4375 239.030625 
" style="fill:none;stroke:#000000;stroke-linecap:square;stroke-linejoin:miter;stroke-width:0.8;"/>
   </g>
   <g id="patch_6">
    <path d="M 56.6375 21.590625 
L 391.4375 21.590625 
" style="fill:none;stroke:#000000;stroke-linecap:square;stroke-linejoin:miter;stroke-width:0.8;"/>
   </g>
   <g id="text_16">
    <!-- Cumulative Factor Return: Barra-CNE5 -->
    <defs>
     <path d="M 14.0625 66.796875 
Q 17.578125 66.796875 20.703125 67.578125 
Q 23.828125 68.359375 26.5625 69.921875 
L 27.34375 69.921875 
L 27.34375 5.46875 
Q 27.34375 3.90625 28.3125 3.125 
Q 29.296875 2.34375 30.859375 2.34375 
L 39.84375 2.34375 
L 39.84375 0 
L 9.375 0 
L 9.375 2.34375 
L 18.359375 2.34375 
Q 20.3125 2.34375 21.09375 3.125 
Q 21.875 3.90625 21.875 5.46875 
L 21.875 61.328125 
Q 21.875 62.890625 21.09375 63.671875 
Q 20.3125 64.453125 18.359375 64.453125 
L 9.765625 64.453125 
L 9.765625 66.796875 
z
" id="FangSong-108"/>
     <path d="M 21.875 37.890625 
Q 21.875 39.453125 21.09375 40.421875 
Q 20.3125 41.40625 18.359375 41.40625 
L 10.15625 41.40625 
L 10.15625 43.75 
L 14.0625 43.75 
Q 17.578125 43.75 20.703125 44.328125 
Q 23.828125 44.921875 26.5625 46.484375 
L 27.34375 46.484375 
L 27.34375 5.46875 
Q 27.34375 3.90625 28.3125 3.125 
Q 29.296875 2.34375 30.859375 2.34375 
L 39.0625 2.34375 
L 39.0625 0 
L 10.15625 0 
L 10.15625 2.34375 
L 18.359375 2.34375 
Q 20.3125 2.34375 21.09375 3.125 
Q 21.875 3.90625 21.875 5.46875 
z
M 30.078125 62.109375 
Q 30.078125 59.765625 28.515625 58.203125 
Q 26.953125 56.640625 24.609375 56.640625 
Q 22.265625 56.640625 20.703125 58.203125 
Q 19.140625 59.765625 19.140625 62.109375 
Q 19.140625 64.453125 20.703125 66.015625 
Q 22.265625 67.578125 24.609375 67.578125 
Q 26.953125 67.578125 28.515625 66.015625 
Q 30.078125 64.453125 30.078125 62.109375 
z
" id="FangSong-105"/>
     <path d="M 25 -0.390625 
L 22.65625 -0.390625 
L 9.375 37.890625 
Q 8.984375 39.453125 7.8125 40.421875 
Q 6.640625 41.40625 5.078125 41.40625 
L 3.125 41.40625 
L 3.125 43.75 
L 19.921875 43.75 
L 19.921875 41.40625 
L 18.359375 41.40625 
Q 16.015625 41.40625 15.421875 40.234375 
Q 14.84375 39.0625 15.625 36.328125 
L 25 8.984375 
L 25.78125 8.984375 
L 35.15625 35.9375 
Q 36.328125 38.671875 35.34375 40.03125 
Q 34.375 41.40625 32.03125 41.40625 
L 31.25 41.40625 
L 31.25 43.75 
L 45.3125 43.75 
L 45.3125 41.40625 
L 44.53125 41.40625 
Q 42.1875 41.40625 40.8125 40.03125 
Q 39.453125 38.671875 38.28125 35.9375 
z
" id="FangSong-118"/>
     <path d="M 2.734375 0 
L 2.734375 2.34375 
L 4.6875 2.34375 
Q 6.640625 2.34375 7.421875 3.125 
Q 8.203125 3.90625 8.203125 5.46875 
L 8.203125 39.0625 
Q 8.203125 40.234375 7.8125 40.8125 
Q 7.421875 41.40625 6.25 41.40625 
L 3.125 41.40625 
L 3.125 43.75 
L 5.859375 43.75 
Q 7.8125 43.75 9.5625 44.140625 
Q 11.328125 44.53125 12.890625 45.703125 
L 13.671875 45.703125 
L 13.671875 36.71875 
Q 17.1875 40.625 20.703125 42.578125 
Q 24.21875 44.53125 28.125 44.53125 
Q 34.765625 44.53125 37.890625 41.015625 
Q 41.015625 37.5 41.015625 30.46875 
L 41.015625 5.46875 
Q 41.015625 3.90625 41.984375 3.125 
Q 42.96875 2.34375 44.53125 2.34375 
L 46.484375 2.34375 
L 46.484375 0 
L 30.078125 0 
L 30.078125 2.34375 
L 32.03125 2.34375 
Q 33.984375 2.34375 34.765625 3.125 
Q 35.546875 3.90625 35.546875 5.46875 
L 35.546875 31.640625 
Q 35.546875 36.328125 33.59375 38.859375 
Q 31.640625 41.40625 27.734375 41.40625 
Q 24.21875 41.40625 20.5 39.0625 
Q 16.796875 36.71875 13.671875 32.421875 
L 13.671875 5.46875 
Q 13.671875 3.90625 14.640625 3.125 
Q 15.625 2.34375 17.1875 2.34375 
L 19.140625 2.34375 
L 19.140625 0 
z
" id="FangSong-110"/>
     <path d="M 25 4.296875 
Q 25 1.953125 23.4375 0.390625 
Q 21.875 -1.171875 19.53125 -1.171875 
Q 17.1875 -1.171875 15.625 0.390625 
Q 14.0625 1.953125 14.0625 4.296875 
Q 14.0625 6.640625 15.625 8.203125 
Q 17.1875 9.765625 19.53125 9.765625 
Q 21.875 9.765625 23.4375 8.203125 
Q 25 6.640625 25 4.296875 
z
M 25 31.640625 
Q 25 29.296875 23.4375 27.734375 
Q 21.875 26.171875 19.53125 26.171875 
Q 17.1875 26.171875 15.625 27.734375 
Q 14.0625 29.296875 14.0625 31.640625 
Q 14.0625 33.984375 15.625 35.546875 
Q 17.1875 37.109375 19.53125 37.109375 
Q 21.875 37.109375 23.4375 35.546875 
Q 25 33.984375 25 31.640625 
z
" id="FangSong-58"/>
     <path d="M 1.171875 0 
L 1.171875 2.34375 
L 4.296875 2.34375 
Q 6.25 2.34375 7.03125 3.125 
Q 7.8125 3.90625 7.8125 5.46875 
L 7.8125 61.328125 
Q 7.8125 62.890625 7.03125 63.671875 
Q 6.25 64.453125 4.296875 64.453125 
L 1.953125 64.453125 
L 1.953125 66.796875 
L 24.609375 66.796875 
Q 33.984375 66.796875 38.46875 63.078125 
Q 42.96875 59.375 42.96875 51.5625 
Q 42.96875 46.09375 40.625 42.578125 
Q 38.28125 39.0625 30.859375 36.328125 
Q 39.84375 33.59375 42.96875 28.515625 
Q 46.09375 23.4375 46.09375 17.1875 
Q 46.09375 9.375 40.625 4.6875 
Q 35.15625 0 25.78125 0 
z
M 24.609375 2.34375 
Q 31.25 2.34375 34.953125 6.4375 
Q 38.671875 10.546875 38.671875 17.96875 
Q 38.671875 26.5625 34.765625 30.65625 
Q 30.859375 34.765625 23.046875 34.765625 
L 14.0625 34.765625 
L 14.0625 5.46875 
Q 14.0625 3.90625 15.03125 3.125 
Q 16.015625 2.34375 17.578125 2.34375 
z
M 36.328125 51.5625 
Q 36.328125 58.59375 32.421875 61.515625 
Q 28.515625 64.453125 22.265625 64.453125 
L 17.578125 64.453125 
Q 16.015625 64.453125 15.03125 63.671875 
Q 14.0625 62.890625 14.0625 61.328125 
L 14.0625 37.109375 
L 24.21875 37.109375 
Q 28.515625 37.109375 32.421875 40.625 
Q 36.328125 44.140625 36.328125 51.5625 
z
" id="FangSong-66"/>
     <path d="M 39.0625 15.625 
L 39.84375 15.625 
L 39.84375 61.328125 
Q 39.84375 62.890625 39.0625 63.671875 
Q 38.28125 64.453125 36.328125 64.453125 
L 33.203125 64.453125 
L 33.203125 66.796875 
L 48.828125 66.796875 
L 48.828125 64.453125 
L 45.703125 64.453125 
Q 44.140625 64.453125 43.15625 63.671875 
Q 42.1875 62.890625 42.1875 61.328125 
L 42.1875 0 
L 39.84375 0 
L 10.15625 58.203125 
L 9.375 58.203125 
L 9.375 5.46875 
Q 9.375 3.90625 10.34375 3.125 
Q 11.328125 2.34375 12.890625 2.34375 
L 16.015625 2.34375 
L 16.015625 0 
L 0.390625 0 
L 0.390625 2.34375 
L 3.515625 2.34375 
Q 5.46875 2.34375 6.25 3.125 
Q 7.03125 3.90625 7.03125 5.46875 
L 7.03125 61.328125 
Q 7.03125 62.890625 6.25 63.671875 
Q 5.46875 64.453125 3.515625 64.453125 
L 1.171875 64.453125 
L 1.171875 66.796875 
L 12.5 66.796875 
z
" id="FangSong-78"/>
     <path d="M 2.734375 64.453125 
L 2.734375 66.796875 
L 41.015625 66.796875 
L 45.3125 53.515625 
L 43.359375 52.734375 
Q 40.234375 58.59375 36.71875 61.515625 
Q 33.203125 64.453125 28.90625 64.453125 
L 17.96875 64.453125 
Q 16.40625 64.453125 15.421875 63.671875 
Q 14.453125 62.890625 14.453125 61.328125 
L 14.453125 37.109375 
L 25.78125 37.109375 
Q 29.6875 37.109375 31.4375 39.0625 
Q 33.203125 41.015625 33.203125 44.921875 
L 33.203125 47.265625 
L 35.546875 47.265625 
L 35.546875 24.21875 
L 33.203125 24.21875 
L 33.203125 25.78125 
Q 33.203125 30.078125 31.4375 32.421875 
Q 29.6875 34.765625 25.78125 34.765625 
L 14.453125 34.765625 
L 14.453125 5.46875 
Q 14.453125 3.90625 15.421875 3.125 
Q 16.40625 2.34375 17.96875 2.34375 
L 28.125 2.34375 
Q 33.984375 2.34375 38.078125 5.65625 
Q 42.1875 8.984375 44.53125 16.015625 
L 46.484375 15.234375 
L 42.1875 0 
L 2.34375 0 
L 2.34375 2.34375 
L 4.6875 2.34375 
Q 6.640625 2.34375 7.421875 3.125 
Q 8.203125 3.90625 8.203125 5.46875 
L 8.203125 61.328125 
Q 8.203125 62.890625 7.421875 63.671875 
Q 6.640625 64.453125 4.6875 64.453125 
z
" id="FangSong-69"/>
    </defs>
    <g transform="translate(116.0375 15.590625)scale(0.12 -0.12)">
     <use xlink:href="#FangSong-67"/>
     <use x="50" xlink:href="#FangSong-117"/>
     <use x="100" xlink:href="#FangSong-109"/>
     <use x="150" xlink:href="#FangSong-117"/>
     <use x="200" xlink:href="#FangSong-108"/>
     <use x="250" xlink:href="#FangSong-97"/>
     <use x="300" xlink:href="#FangSong-116"/>
     <use x="350" xlink:href="#FangSong-105"/>
     <use x="400" xlink:href="#FangSong-118"/>
     <use x="450" xlink:href="#FangSong-101"/>
     <use x="500" xlink:href="#FangSong-32"/>
     <use x="550" xlink:href="#FangSong-70"/>
     <use x="600" xlink:href="#FangSong-97"/>
     <use x="650" xlink:href="#FangSong-99"/>
     <use x="700" xlink:href="#FangSong-116"/>
     <use x="750" xlink:href="#FangSong-111"/>
     <use x="800" xlink:href="#FangSong-114"/>
     <use x="850" xlink:href="#FangSong-32"/>
     <use x="900" xlink:href="#FangSong-82"/>
     <use x="950" xlink:href="#FangSong-101"/>
     <use x="1000" xlink:href="#FangSong-116"/>
     <use x="1050" xlink:href="#FangSong-117"/>
     <use x="1100" xlink:href="#FangSong-114"/>
     <use x="1150" xlink:href="#FangSong-110"/>
     <use x="1200" xlink:href="#FangSong-58"/>
     <use x="1250" xlink:href="#FangSong-32"/>
     <use x="1300" xlink:href="#FangSong-66"/>
     <use x="1350" xlink:href="#FangSong-97"/>
     <use x="1400" xlink:href="#FangSong-114"/>
     <use x="1450" xlink:href="#FangSong-114"/>
     <use x="1500" xlink:href="#FangSong-97"/>
     <use x="1550" xlink:href="#FangSong-45"/>
     <use x="1600" xlink:href="#FangSong-67"/>
     <use x="1650" xlink:href="#FangSong-78"/>
     <use x="1700" xlink:href="#FangSong-69"/>
     <use x="1750" xlink:href="#FangSong-53"/>
    </g>
   </g>
   <g id="legend_1">
    <g id="patch_7">
     <path d="M 63.6375 234.030625 
L 215.6375 234.030625 
Q 217.6375 234.030625 217.6375 232.030625 
L 217.6375 177.8275 
Q 217.6375 175.8275 215.6375 175.8275 
L 63.6375 175.8275 
Q 61.6375 175.8275 61.6375 177.8275 
L 61.6375 232.030625 
Q 61.6375 234.030625 63.6375 234.030625 
z
" style="fill:#ffffff;opacity:0.8;stroke:#cccccc;stroke-linejoin:miter;"/>
    </g>
    <g id="line2d_33">
     <path d="M 65.6375 183.788438 
L 85.6375 183.788438 
" style="fill:none;stroke:#1f77b4;stroke-linecap:square;stroke-width:1.5;"/>
    </g>
    <g id="line2d_34"/>
    <g id="text_17">
     <!-- Size (SMB) -->
     <defs>
      <path d="M 23.046875 32.03125 
Q 12.5 36.71875 8.59375 40.234375 
Q 4.6875 43.75 4.6875 51.171875 
Q 4.6875 57.03125 9.5625 62.296875 
Q 14.453125 67.578125 23.4375 67.578125 
Q 27.34375 67.578125 30.859375 66.203125 
Q 34.375 64.84375 35.9375 64.84375 
Q 37.109375 64.84375 38.078125 65.421875 
Q 39.0625 66.015625 39.84375 67.578125 
L 41.40625 51.5625 
L 39.453125 50.78125 
Q 35.9375 58.984375 32.21875 61.90625 
Q 28.515625 64.84375 22.65625 64.84375 
Q 15.234375 64.84375 12.5 60.734375 
Q 9.765625 56.640625 9.765625 51.953125 
Q 9.765625 47.65625 12.296875 45.109375 
Q 14.84375 42.578125 26.171875 37.5 
Q 35.546875 33.59375 39.640625 28.703125 
Q 43.75 23.828125 43.75 17.1875 
Q 43.75 10.15625 38.859375 4.6875 
Q 33.984375 -0.78125 24.609375 -0.78125 
Q 20.703125 -0.78125 17.375 0.578125 
Q 14.0625 1.953125 12.109375 1.953125 
Q 10.9375 1.953125 9.765625 1.171875 
Q 8.59375 0.390625 7.03125 -0.78125 
L 3.90625 18.359375 
L 6.25 19.140625 
Q 8.984375 9.375 13.859375 5.65625 
Q 18.75 1.953125 25 1.953125 
Q 31.640625 1.953125 34.953125 5.859375 
Q 38.28125 9.765625 38.28125 17.1875 
Q 38.28125 21.09375 34.5625 24.796875 
Q 30.859375 28.515625 23.046875 32.03125 
z
" id="FangSong-83"/>
      <path d="M 42.578125 15.234375 
L 39.84375 0 
L 6.25 0 
L 6.25 1.953125 
L 33.203125 41.40625 
L 18.75 41.40625 
Q 15.234375 41.40625 12.890625 38.859375 
Q 10.546875 36.328125 8.984375 30.078125 
L 6.640625 30.46875 
L 8.203125 43.75 
L 40.234375 43.75 
L 40.234375 42.578125 
L 12.890625 2.34375 
L 27.734375 2.34375 
Q 32.8125 2.34375 35.734375 5.46875 
Q 38.671875 8.59375 40.234375 15.625 
z
" id="FangSong-122"/>
      <path d="M 44.921875 76.953125 
Q 35.9375 67.578125 31.4375 56.828125 
Q 26.953125 46.09375 26.953125 34.375 
Q 26.953125 22.265625 31.4375 11.71875 
Q 35.9375 1.171875 44.921875 -8.203125 
L 42.96875 -10.15625 
Q 32.03125 -0.390625 26.5625 10.734375 
Q 21.09375 21.875 21.09375 34.375 
Q 21.09375 46.484375 26.5625 57.609375 
Q 32.03125 68.75 42.96875 78.90625 
z
" id="FangSong-40"/>
      <path d="M 43.359375 5.46875 
Q 43.359375 3.90625 44.328125 3.125 
Q 45.3125 2.34375 46.875 2.34375 
L 48.4375 2.34375 
L 48.4375 0 
L 31.640625 0 
L 31.640625 2.34375 
L 33.59375 2.34375 
Q 35.546875 2.34375 36.328125 3.125 
Q 37.109375 3.90625 37.109375 5.46875 
L 37.109375 56.640625 
L 36.328125 56.640625 
L 23.046875 0 
L 20.703125 0 
L 8.59375 55.46875 
L 7.8125 55.46875 
L 7.8125 5.46875 
Q 7.8125 3.90625 8.78125 3.125 
Q 9.765625 2.34375 11.328125 2.34375 
L 12.5 2.34375 
L 12.5 0 
L 0.78125 0 
L 0.78125 2.34375 
L 1.953125 2.34375 
Q 3.90625 2.34375 4.6875 3.125 
Q 5.46875 3.90625 5.46875 5.46875 
L 5.46875 61.328125 
Q 5.46875 62.890625 4.6875 63.671875 
Q 3.90625 64.453125 1.953125 64.453125 
L 0.390625 64.453125 
L 0.390625 66.796875 
L 11.71875 66.796875 
L 23.046875 14.453125 
L 23.828125 14.453125 
L 35.9375 66.796875 
L 48.4375 66.796875 
L 48.4375 64.453125 
L 46.875 64.453125 
Q 45.3125 64.453125 44.328125 63.671875 
Q 43.359375 62.890625 43.359375 61.328125 
z
" id="FangSong-77"/>
      <path d="M 3.90625 76.953125 
L 5.859375 78.90625 
Q 16.796875 68.75 22.265625 57.609375 
Q 27.734375 46.484375 27.734375 34.375 
Q 27.734375 21.875 22.265625 10.734375 
Q 16.796875 -0.390625 5.859375 -10.15625 
L 3.90625 -8.203125 
Q 12.890625 1.171875 17.375 11.71875 
Q 21.875 22.265625 21.875 34.375 
Q 21.875 46.09375 17.375 56.828125 
Q 12.890625 67.578125 3.90625 76.953125 
z
" id="FangSong-41"/>
     </defs>
     <g transform="translate(93.6375 187.288438)scale(0.1 -0.1)">
      <use xlink:href="#FangSong-83"/>
      <use x="50" xlink:href="#FangSong-105"/>
      <use x="100" xlink:href="#FangSong-122"/>
      <use x="150" xlink:href="#FangSong-101"/>
      <use x="200" xlink:href="#FangSong-32"/>
      <use x="250" xlink:href="#FangSong-40"/>
      <use x="300" xlink:href="#FangSong-83"/>
      <use x="350" xlink:href="#FangSong-77"/>
      <use x="400" xlink:href="#FangSong-66"/>
      <use x="450" xlink:href="#FangSong-41"/>
     </g>
    </g>
    <g id="line2d_35">
     <path d="M 65.6375 197.694688 
L 85.6375 197.694688 
" style="fill:none;stroke:#ff7f0e;stroke-linecap:square;stroke-width:1.5;"/>
    </g>
    <g id="line2d_36"/>
    <g id="text_18">
     <!-- Value (HML) -->
     <defs>
      <path d="M 32.8125 64.453125 
L 32.8125 66.796875 
L 46.875 66.796875 
L 46.875 64.453125 
L 45.3125 64.453125 
Q 43.75 64.453125 42.375 63.28125 
Q 41.015625 62.109375 40.234375 58.984375 
L 24.21875 0 
L 21.875 0 
L 7.421875 58.984375 
Q 7.03125 61.71875 6.046875 63.078125 
Q 5.078125 64.453125 3.125 64.453125 
L 1.171875 64.453125 
L 1.171875 66.796875 
L 17.96875 66.796875 
L 17.96875 64.453125 
L 16.40625 64.453125 
Q 14.453125 64.453125 13.859375 63.28125 
Q 13.28125 62.109375 13.671875 60.15625 
L 24.609375 14.453125 
L 25.390625 14.453125 
L 37.109375 58.984375 
Q 37.890625 61.71875 37.109375 63.078125 
Q 36.328125 64.453125 33.984375 64.453125 
z
" id="FangSong-86"/>
      <path d="M 42.1875 5.46875 
Q 42.1875 3.90625 43.15625 3.125 
Q 44.140625 2.34375 45.703125 2.34375 
L 47.65625 2.34375 
L 47.65625 0 
L 30.46875 0 
L 30.46875 2.34375 
L 32.421875 2.34375 
Q 34.375 2.34375 35.15625 3.125 
Q 35.9375 3.90625 35.9375 5.46875 
L 35.9375 33.984375 
L 12.890625 33.984375 
L 12.890625 5.46875 
Q 12.890625 3.90625 13.859375 3.125 
Q 14.84375 2.34375 16.40625 2.34375 
L 18.359375 2.34375 
L 18.359375 0 
L 1.171875 0 
L 1.171875 2.34375 
L 3.125 2.34375 
Q 5.078125 2.34375 5.859375 3.125 
Q 6.640625 3.90625 6.640625 5.46875 
L 6.640625 61.328125 
Q 6.640625 62.890625 5.859375 63.671875 
Q 5.078125 64.453125 3.125 64.453125 
L 1.5625 64.453125 
L 1.5625 66.796875 
L 17.96875 66.796875 
L 17.96875 64.453125 
L 16.40625 64.453125 
Q 14.84375 64.453125 13.859375 63.671875 
Q 12.890625 62.890625 12.890625 61.328125 
L 12.890625 36.328125 
L 35.9375 36.328125 
L 35.9375 61.328125 
Q 35.9375 62.890625 35.15625 63.671875 
Q 34.375 64.453125 32.421875 64.453125 
L 30.859375 64.453125 
L 30.859375 66.796875 
L 47.265625 66.796875 
L 47.265625 64.453125 
L 45.703125 64.453125 
Q 44.140625 64.453125 43.15625 63.671875 
Q 42.1875 62.890625 42.1875 61.328125 
z
" id="FangSong-72"/>
      <path d="M 15.234375 5.46875 
Q 15.234375 3.90625 16.203125 3.125 
Q 17.1875 2.34375 18.75 2.34375 
L 29.296875 2.34375 
Q 34.765625 2.34375 38.671875 5.65625 
Q 42.578125 8.984375 44.53125 16.015625 
L 46.484375 15.234375 
L 42.96875 0 
L 2.734375 0 
L 2.734375 2.34375 
L 5.46875 2.34375 
Q 7.421875 2.34375 8.203125 3.125 
Q 8.984375 3.90625 8.984375 5.46875 
L 8.984375 61.328125 
Q 8.984375 62.890625 8.203125 63.671875 
Q 7.421875 64.453125 5.46875 64.453125 
L 3.125 64.453125 
L 3.125 66.796875 
L 21.484375 66.796875 
L 21.484375 64.453125 
L 18.75 64.453125 
Q 17.1875 64.453125 16.203125 63.671875 
Q 15.234375 62.890625 15.234375 61.328125 
z
" id="FangSong-76"/>
     </defs>
     <g transform="translate(93.6375 201.194688)scale(0.1 -0.1)">
      <use xlink:href="#FangSong-86"/>
      <use x="50" xlink:href="#FangSong-97"/>
      <use x="100" xlink:href="#FangSong-108"/>
      <use x="150" xlink:href="#FangSong-117"/>
      <use x="200" xlink:href="#FangSong-101"/>
      <use x="250" xlink:href="#FangSong-32"/>
      <use x="300" xlink:href="#FangSong-40"/>
      <use x="350" xlink:href="#FangSong-72"/>
      <use x="400" xlink:href="#FangSong-77"/>
      <use x="450" xlink:href="#FangSong-76"/>
      <use x="500" xlink:href="#FangSong-41"/>
     </g>
    </g>
    <g id="line2d_37">
     <path d="M 65.6375 211.600938 
L 85.6375 211.600938 
" style="fill:none;stroke:#2ca02c;stroke-linecap:square;stroke-width:1.5;"/>
    </g>
    <g id="line2d_38"/>
    <g id="text_19">
     <!-- Momentum (UMD) -->
     <defs>
      <path d="M 25 2.34375 
Q 30.859375 2.34375 34.953125 6.25 
Q 39.0625 10.15625 39.0625 16.015625 
L 39.0625 61.328125 
Q 39.0625 62.890625 38.28125 63.671875 
Q 37.5 64.453125 35.546875 64.453125 
L 33.203125 64.453125 
L 33.203125 66.796875 
L 47.265625 66.796875 
L 47.265625 64.453125 
L 44.921875 64.453125 
Q 43.359375 64.453125 42.375 63.671875 
Q 41.40625 62.890625 41.40625 61.328125 
L 41.40625 16.015625 
Q 41.40625 8.203125 36.125 3.703125 
Q 30.859375 -0.78125 24.21875 -0.78125 
Q 17.1875 -0.78125 11.90625 3.125 
Q 6.640625 7.03125 6.640625 15.625 
L 6.640625 61.328125 
Q 6.640625 62.890625 5.859375 63.671875 
Q 5.078125 64.453125 3.125 64.453125 
L 1.171875 64.453125 
L 1.171875 66.796875 
L 18.359375 66.796875 
L 18.359375 64.453125 
L 16.40625 64.453125 
Q 14.84375 64.453125 13.859375 63.671875 
Q 12.890625 62.890625 12.890625 61.328125 
L 12.890625 15.625 
Q 12.890625 7.8125 16.203125 5.078125 
Q 19.53125 2.34375 25 2.34375 
z
" id="FangSong-85"/>
      <path d="M 38.671875 33.984375 
Q 38.671875 50.78125 33.59375 57.609375 
Q 28.515625 64.453125 19.53125 64.453125 
Q 16.796875 64.453125 15.421875 63.671875 
Q 14.0625 62.890625 14.0625 61.328125 
L 14.0625 5.46875 
Q 14.0625 3.90625 15.234375 3.125 
Q 16.40625 2.34375 18.359375 2.34375 
Q 26.953125 2.34375 32.8125 8.78125 
Q 38.671875 15.234375 38.671875 33.984375 
z
M 7.8125 61.328125 
Q 7.8125 62.890625 7.03125 63.671875 
Q 6.25 64.453125 4.296875 64.453125 
L 1.953125 64.453125 
L 1.953125 66.796875 
L 19.53125 66.796875 
Q 31.640625 66.796875 38.859375 58.984375 
Q 46.09375 51.171875 46.09375 34.765625 
Q 46.09375 16.796875 39.0625 8.390625 
Q 32.03125 0 18.359375 0 
L 1.5625 0 
L 1.5625 2.34375 
L 4.296875 2.34375 
Q 6.25 2.34375 7.03125 3.125 
Q 7.8125 3.90625 7.8125 5.46875 
z
" id="FangSong-68"/>
     </defs>
     <g transform="translate(93.6375 215.100938)scale(0.1 -0.1)">
      <use xlink:href="#FangSong-77"/>
      <use x="50" xlink:href="#FangSong-111"/>
      <use x="100" xlink:href="#FangSong-109"/>
      <use x="150" xlink:href="#FangSong-101"/>
      <use x="200" xlink:href="#FangSong-110"/>
      <use x="250" xlink:href="#FangSong-116"/>
      <use x="300" xlink:href="#FangSong-117"/>
      <use x="350" xlink:href="#FangSong-109"/>
      <use x="400" xlink:href="#FangSong-32"/>
      <use x="450" xlink:href="#FangSong-40"/>
      <use x="500" xlink:href="#FangSong-85"/>
      <use x="550" xlink:href="#FangSong-77"/>
      <use x="600" xlink:href="#FangSong-68"/>
      <use x="650" xlink:href="#FangSong-41"/>
     </g>
    </g>
    <g id="line2d_39">
     <path d="M 65.6375 225.04625 
L 85.6375 225.04625 
" style="fill:none;stroke:#d62728;stroke-linecap:square;stroke-width:1.5;"/>
    </g>
    <g id="line2d_40"/>
    <g id="text_20">
     <!-- Idiosyncratic Volatility -->
     <defs>
      <path d="M 8.984375 64.453125 
L 8.984375 66.796875 
L 40.234375 66.796875 
L 40.234375 64.453125 
L 31.25 64.453125 
Q 29.6875 64.453125 28.703125 63.671875 
Q 27.734375 62.890625 27.734375 61.328125 
L 27.734375 5.46875 
Q 27.734375 3.90625 28.703125 3.125 
Q 29.6875 2.34375 31.25 2.34375 
L 40.234375 2.34375 
L 40.234375 0 
L 8.984375 0 
L 8.984375 2.34375 
L 17.96875 2.34375 
Q 19.921875 2.34375 20.703125 3.125 
Q 21.484375 3.90625 21.484375 5.46875 
L 21.484375 61.328125 
Q 21.484375 62.890625 20.703125 63.671875 
Q 19.921875 64.453125 17.96875 64.453125 
z
" id="FangSong-73"/>
      <path d="M 35.546875 35.15625 
Q 33.59375 38.28125 30.46875 39.640625 
Q 27.34375 41.015625 24.21875 41.015625 
Q 18.359375 41.015625 15.03125 35.546875 
Q 11.71875 30.078125 11.71875 21.09375 
Q 11.71875 11.71875 14.84375 7.21875 
Q 17.96875 2.734375 23.828125 2.734375 
Q 28.125 2.734375 31.046875 5.46875 
Q 33.984375 8.203125 35.546875 13.671875 
z
M 22.65625 -0.390625 
Q 15.625 -0.390625 10.546875 5.265625 
Q 5.46875 10.9375 5.46875 21.875 
Q 5.46875 32.03125 10.9375 38.078125 
Q 16.40625 44.140625 23.828125 44.140625 
Q 26.953125 44.140625 30.265625 42.765625 
Q 33.59375 41.40625 35.546875 38.671875 
L 35.546875 59.765625 
Q 35.546875 62.109375 34.765625 63.28125 
Q 33.984375 64.453125 32.03125 64.453125 
L 28.90625 64.453125 
L 28.90625 66.796875 
L 33.203125 66.796875 
Q 35.15625 66.796875 37.109375 67.578125 
Q 39.0625 68.359375 41.015625 69.921875 
L 41.015625 8.203125 
Q 41.015625 6.25 41.796875 5.46875 
Q 42.578125 4.6875 44.140625 4.6875 
L 46.875 4.6875 
L 46.875 2.34375 
L 44.53125 2.34375 
Q 42.96875 2.34375 40.8125 1.75 
Q 38.671875 1.171875 36.328125 0 
L 35.546875 0 
L 35.546875 7.421875 
Q 33.59375 3.90625 30.265625 1.75 
Q 26.953125 -0.390625 22.65625 -0.390625 
z
" id="FangSong-100"/>
      <path d="M 9.375 32.421875 
Q 9.375 38.28125 13.859375 41.40625 
Q 18.359375 44.53125 24.609375 44.53125 
Q 28.125 44.53125 31.25 43.546875 
Q 34.375 42.578125 35.546875 42.578125 
Q 36.71875 42.578125 37.5 42.96875 
Q 38.28125 43.359375 39.453125 44.53125 
L 41.015625 31.640625 
L 38.671875 31.25 
Q 37.109375 36.328125 33.390625 39.25 
Q 29.6875 42.1875 25 42.1875 
Q 19.921875 42.1875 16.984375 40.234375 
Q 14.0625 38.28125 14.0625 34.765625 
Q 14.0625 31.640625 15.421875 29.875 
Q 16.796875 28.125 20.3125 27.34375 
Q 23.046875 26.171875 27.140625 24.796875 
Q 31.25 23.4375 34.765625 21.875 
Q 37.890625 20.3125 40.03125 17.765625 
Q 42.1875 15.234375 42.1875 12.109375 
Q 42.1875 6.25 38.078125 2.921875 
Q 33.984375 -0.390625 26.171875 -0.390625 
Q 21.09375 -0.390625 18.546875 0.578125 
Q 16.015625 1.5625 14.453125 1.5625 
Q 13.28125 1.5625 11.90625 0.96875 
Q 10.546875 0.390625 8.984375 -0.390625 
L 7.8125 14.0625 
L 10.15625 14.453125 
Q 11.328125 8.203125 15.234375 5.078125 
Q 19.140625 1.953125 26.171875 1.953125 
Q 31.640625 1.953125 34.5625 3.90625 
Q 37.5 5.859375 37.5 9.765625 
Q 37.5 12.5 35.9375 14.25 
Q 34.375 16.015625 32.8125 16.796875 
Q 28.90625 18.359375 24.21875 20.109375 
Q 19.53125 21.875 16.015625 23.4375 
Q 12.5 25 10.9375 27.34375 
Q 9.375 29.6875 9.375 32.421875 
z
" id="FangSong-115"/>
      <path d="M 25.390625 10.9375 
L 26.171875 10.9375 
L 34.765625 37.109375 
Q 35.546875 39.0625 34.5625 40.234375 
Q 33.59375 41.40625 32.03125 41.40625 
L 29.6875 41.40625 
L 29.6875 43.75 
L 46.09375 43.75 
L 46.09375 41.40625 
L 43.75 41.40625 
Q 42.1875 41.40625 40.625 40.234375 
Q 39.0625 39.0625 38.28125 37.109375 
L 25 -1.5625 
Q 23.046875 -7.8125 20.109375 -11.125 
Q 17.1875 -14.453125 12.5 -14.84375 
Q 10.15625 -14.84375 8.390625 -13.671875 
Q 6.640625 -12.5 6.640625 -10.546875 
Q 6.640625 -8.984375 7.609375 -7.8125 
Q 8.59375 -6.640625 10.546875 -6.640625 
Q 12.109375 -6.640625 13.078125 -8.203125 
Q 14.0625 -9.765625 16.40625 -9.171875 
Q 18.75 -8.59375 19.53125 -6.640625 
Q 20.3125 -5.46875 21.484375 -2.53125 
Q 22.65625 0.390625 23.4375 3.515625 
L 10.15625 37.890625 
Q 9.765625 39.453125 8.390625 40.421875 
Q 7.03125 41.40625 5.46875 41.40625 
L 3.90625 41.40625 
L 3.90625 43.75 
L 20.3125 43.75 
L 20.3125 41.40625 
L 18.75 41.40625 
Q 17.1875 41.40625 16.40625 40.421875 
Q 15.625 39.453125 16.015625 37.5 
z
" id="FangSong-121"/>
     </defs>
     <g transform="translate(93.6375 228.54625)scale(0.1 -0.1)">
      <use xlink:href="#FangSong-73"/>
      <use x="50" xlink:href="#FangSong-100"/>
      <use x="100" xlink:href="#FangSong-105"/>
      <use x="150" xlink:href="#FangSong-111"/>
      <use x="200" xlink:href="#FangSong-115"/>
      <use x="250" xlink:href="#FangSong-121"/>
      <use x="300" xlink:href="#FangSong-110"/>
      <use x="350" xlink:href="#FangSong-99"/>
      <use x="400" xlink:href="#FangSong-114"/>
      <use x="450" xlink:href="#FangSong-97"/>
      <use x="500" xlink:href="#FangSong-116"/>
      <use x="550" xlink:href="#FangSong-105"/>
      <use x="600" xlink:href="#FangSong-99"/>
      <use x="650" xlink:href="#FangSong-32"/>
      <use x="700" xlink:href="#FangSong-86"/>
      <use x="750" xlink:href="#FangSong-111"/>
      <use x="800" xlink:href="#FangSong-108"/>
      <use x="850" xlink:href="#FangSong-97"/>
      <use x="900" xlink:href="#FangSong-116"/>
      <use x="950" xlink:href="#FangSong-105"/>
      <use x="1000" xlink:href="#FangSong-108"/>
      <use x="1050" xlink:href="#FangSong-105"/>
      <use x="1100" xlink:href="#FangSong-116"/>
      <use x="1150" xlink:href="#FangSong-121"/>
     </g>
    </g>
   </g>
  </g>
 </g>
 <defs>
  <clipPath id="p923351bf9e">
   <rect height="217.44" width="334.8" x="56.6375" y="21.590625"/>
  </clipPath>
 </defs>
</svg>
