<?xml version="1.0" encoding="utf-8" standalone="no"?>
<!DOCTYPE svg PUBLIC "-//W3C//DTD SVG 1.1//EN"
  "http://www.w3.org/Graphics/SVG/1.1/DTD/svg11.dtd">
<!-- Created with matplotlib (https://matplotlib.org/) -->
<svg height="261.668125pt" version="1.1" viewBox="0 0 433.817187 261.668125" width="433.817187pt" xmlns="http://www.w3.org/2000/svg" xmlns:xlink="http://www.w3.org/1999/xlink">
 <defs>
  <style type="text/css">
*{stroke-linecap:butt;stroke-linejoin:round;}
  </style>
 </defs>
 <g id="figure_1">
  <g id="patch_1">
   <path d="M 0 261.668125 
L 433.817188 261.668125 
L 433.817188 0 
L 0 0 
z
" style="fill:#ffffff;"/>
  </g>
  <g id="axes_1">
   <g id="patch_2">
    <path d="M 47.379688 239.030625 
L 382.179688 239.030625 
L 382.179688 21.590625 
L 47.379688 21.590625 
z
" style="fill:#ffffff;"/>
   </g>
   <g id="matplotlib.axis_1">
    <g id="xtick_1">
     <g id="line2d_1">
      <defs>
       <path d="M 0 0 
L 0 3.5 
" id="ma95cef450f" style="stroke:#000000;stroke-width:0.8;"/>
      </defs>
      <g>
       <use style="stroke:#000000;stroke-width:0.8;" x="84.338129" xlink:href="#ma95cef450f" y="239.030625"/>
      </g>
     </g>
     <g id="text_1">
      <!-- 2024-01-15 -->
      <defs>
       <path d="M 35.9375 50.390625 
Q 35.9375 57.421875 32.8125 61.125 
Q 29.6875 64.84375 23.4375 64.84375 
Q 18.75 64.84375 15.421875 62.296875 
Q 12.109375 59.765625 12.109375 55.859375 
Q 12.109375 53.515625 13.46875 51.953125 
Q 14.84375 50.390625 14.84375 48.828125 
Q 14.84375 46.875 13.859375 45.890625 
Q 12.890625 44.921875 10.9375 44.921875 
Q 8.59375 44.921875 7.21875 46.28125 
Q 5.859375 47.65625 5.859375 50.78125 
Q 5.859375 58.984375 11.71875 63.28125 
Q 17.578125 67.578125 24.21875 67.578125 
Q 33.59375 67.578125 38.078125 62.890625 
Q 42.578125 58.203125 42.578125 51.171875 
Q 42.578125 46.484375 40.421875 41.796875 
Q 38.28125 37.109375 33.59375 32.8125 
Q 22.265625 21.875 16.203125 15.03125 
Q 10.15625 8.203125 8.984375 5.859375 
L 32.03125 5.859375 
Q 35.546875 5.859375 37.890625 8.59375 
Q 40.234375 11.328125 41.015625 16.796875 
L 43.359375 16.796875 
L 41.015625 0 
L 4.6875 0 
L 4.6875 5.078125 
Q 6.640625 8.59375 11.125 14.0625 
Q 15.625 19.53125 23.046875 26.953125 
Q 29.6875 33.59375 32.8125 39.453125 
Q 35.9375 45.3125 35.9375 50.390625 
z
" id="FangSong-50"/>
       <path d="M 24.609375 64.453125 
Q 19.140625 64.453125 15.421875 56.046875 
Q 11.71875 47.65625 11.71875 33.59375 
Q 11.71875 18.75 15.421875 10.546875 
Q 19.140625 2.34375 24.609375 2.34375 
Q 30.46875 2.34375 33.78125 10.546875 
Q 37.109375 18.75 37.109375 33.59375 
Q 37.109375 47.65625 33.984375 56.046875 
Q 30.859375 64.453125 24.609375 64.453125 
z
M 24.609375 -0.78125 
Q 16.015625 -0.78125 10.15625 8.203125 
Q 4.296875 17.1875 4.296875 33.59375 
Q 4.296875 48.828125 9.953125 58.203125 
Q 15.625 67.578125 24.609375 67.578125 
Q 33.203125 67.578125 38.859375 58.59375 
Q 44.53125 49.609375 44.53125 33.59375 
Q 44.53125 17.578125 38.859375 8.390625 
Q 33.203125 -0.78125 24.609375 -0.78125 
z
" id="FangSong-48"/>
       <path d="M 35.546875 7.421875 
Q 35.546875 4.6875 37.109375 3.515625 
Q 38.671875 2.34375 41.40625 2.34375 
L 44.921875 2.34375 
L 44.921875 0 
L 19.140625 0 
L 19.140625 2.34375 
L 23.4375 2.34375 
Q 26.5625 2.34375 27.921875 3.515625 
Q 29.296875 4.6875 29.296875 7.421875 
L 29.296875 20.3125 
L 3.125 20.3125 
L 3.125 22.265625 
L 31.640625 67.578125 
L 35.546875 67.578125 
L 35.546875 22.65625 
L 46.09375 22.65625 
L 46.09375 20.3125 
L 35.546875 20.3125 
z
M 28.90625 57.8125 
L 6.640625 22.65625 
L 29.296875 22.65625 
L 29.296875 57.8125 
z
" id="FangSong-52"/>
       <path d="M 2.734375 33.203125 
L 2.734375 36.71875 
L 46.09375 36.71875 
L 46.09375 33.203125 
z
" id="FangSong-45"/>
       <path d="M 28.125 67.96875 
L 28.125 8.59375 
Q 28.125 5.46875 30.078125 3.90625 
Q 32.03125 2.34375 35.546875 2.34375 
L 39.453125 2.34375 
L 39.453125 0 
L 10.9375 0 
L 10.9375 2.34375 
L 14.453125 2.34375 
Q 18.359375 2.34375 20.109375 3.90625 
Q 21.875 5.46875 21.875 8.59375 
L 21.875 55.859375 
Q 21.875 57.421875 20.890625 58.390625 
Q 19.921875 59.375 17.96875 59.375 
L 10.9375 59.375 
L 10.9375 61.71875 
L 14.453125 61.71875 
Q 19.140625 61.71875 22.0625 63.28125 
Q 25 64.84375 26.5625 67.96875 
z
" id="FangSong-49"/>
       <path d="M 26.5625 42.96875 
Q 33.984375 42.96875 38.671875 37.296875 
Q 43.359375 31.640625 43.359375 22.265625 
Q 43.359375 11.71875 38.46875 5.46875 
Q 33.59375 -0.78125 23.4375 -0.78125 
Q 16.40625 -0.78125 10.9375 3.3125 
Q 5.46875 7.421875 5.46875 13.28125 
Q 5.46875 15.625 6.828125 17.375 
Q 8.203125 19.140625 10.546875 19.140625 
Q 12.890625 19.140625 13.671875 17.578125 
Q 14.453125 16.015625 14.453125 14.84375 
Q 14.453125 12.5 13.28125 11.125 
Q 12.109375 9.765625 12.109375 8.203125 
Q 12.109375 5.078125 15.8125 3.515625 
Q 19.53125 1.953125 23.828125 1.953125 
Q 30.078125 1.953125 33.390625 7.03125 
Q 36.71875 12.109375 36.71875 21.484375 
Q 36.71875 29.296875 33.78125 34.171875 
Q 30.859375 39.0625 25 39.0625 
Q 20.703125 39.0625 17.578125 37.5 
Q 14.453125 35.9375 11.71875 30.859375 
L 8.203125 31.25 
L 10.15625 66.796875 
L 42.1875 66.796875 
L 41.015625 60.9375 
L 12.890625 60.9375 
L 11.328125 35.15625 
Q 15.234375 40.625 18.9375 41.796875 
Q 22.65625 42.96875 26.5625 42.96875 
z
" id="FangSong-53"/>
      </defs>
      <g transform="translate(59.338129 253.022813)scale(0.1 -0.1)">
       <use xlink:href="#FangSong-50"/>
       <use x="50" xlink:href="#FangSong-48"/>
       <use x="100" xlink:href="#FangSong-50"/>
       <use x="150" xlink:href="#FangSong-52"/>
       <use x="200" xlink:href="#FangSong-45"/>
       <use x="250" xlink:href="#FangSong-48"/>
       <use x="300" xlink:href="#FangSong-49"/>
       <use x="350" xlink:href="#FangSong-45"/>
       <use x="400" xlink:href="#FangSong-49"/>
       <use x="450" xlink:href="#FangSong-53"/>
      </g>
     </g>
    </g>
    <g id="xtick_2">
     <g id="line2d_2">
      <g>
       <use style="stroke:#000000;stroke-width:0.8;" x="135.065402" xlink:href="#ma95cef450f" y="239.030625"/>
      </g>
     </g>
     <g id="text_2">
      <!-- 2024-01-22 -->
      <g transform="translate(110.065402 253.022813)scale(0.1 -0.1)">
       <use xlink:href="#FangSong-50"/>
       <use x="50" xlink:href="#FangSong-48"/>
       <use x="100" xlink:href="#FangSong-50"/>
       <use x="150" xlink:href="#FangSong-52"/>
       <use x="200" xlink:href="#FangSong-45"/>
       <use x="250" xlink:href="#FangSong-48"/>
       <use x="300" xlink:href="#FangSong-49"/>
       <use x="350" xlink:href="#FangSong-45"/>
       <use x="400" xlink:href="#FangSong-50"/>
       <use x="450" xlink:href="#FangSong-50"/>
      </g>
     </g>
    </g>
    <g id="xtick_3">
     <g id="line2d_3">
      <g>
       <use style="stroke:#000000;stroke-width:0.8;" x="207.532934" xlink:href="#ma95cef450f" y="239.030625"/>
      </g>
     </g>
     <g id="text_3">
      <!-- 2024-02-01 -->
      <g transform="translate(182.532934 253.022813)scale(0.1 -0.1)">
       <use xlink:href="#FangSong-50"/>
       <use x="50" xlink:href="#FangSong-48"/>
       <use x="100" xlink:href="#FangSong-50"/>
       <use x="150" xlink:href="#FangSong-52"/>
       <use x="200" xlink:href="#FangSong-45"/>
       <use x="250" xlink:href="#FangSong-48"/>
       <use x="300" xlink:href="#FangSong-50"/>
       <use x="350" xlink:href="#FangSong-45"/>
       <use x="400" xlink:href="#FangSong-48"/>
       <use x="450" xlink:href="#FangSong-49"/>
      </g>
     </g>
    </g>
    <g id="xtick_4">
     <g id="line2d_4">
      <g>
       <use style="stroke:#000000;stroke-width:0.8;" x="258.260207" xlink:href="#ma95cef450f" y="239.030625"/>
      </g>
     </g>
     <g id="text_4">
      <!-- 2024-02-08 -->
      <defs>
       <path d="M 9.375 16.015625 
Q 9.375 9.765625 13.46875 5.859375 
Q 17.578125 1.953125 23.828125 1.953125 
Q 31.25 1.953125 34.5625 5.859375 
Q 37.890625 9.765625 37.890625 15.625 
Q 37.890625 20.703125 33.203125 25.390625 
Q 28.515625 30.078125 19.140625 33.984375 
Q 14.453125 30.859375 11.90625 26.171875 
Q 9.375 21.484375 9.375 16.015625 
z
M 43.75 16.796875 
Q 43.75 9.375 38.28125 4.296875 
Q 32.8125 -0.78125 23.828125 -0.78125 
Q 15.625 -0.78125 9.765625 4.296875 
Q 3.90625 9.375 3.90625 16.015625 
Q 3.90625 22.65625 7.21875 27.34375 
Q 10.546875 32.03125 16.796875 35.546875 
Q 11.328125 38.28125 8.390625 42.375 
Q 5.46875 46.484375 5.46875 51.5625 
Q 5.46875 58.203125 10.546875 62.890625 
Q 15.625 67.578125 24.609375 67.578125 
Q 32.8125 67.578125 37.890625 62.890625 
Q 42.96875 58.203125 42.96875 51.5625 
Q 42.96875 46.875 40.03125 42.765625 
Q 37.109375 38.671875 30.859375 35.546875 
Q 37.5 31.640625 40.625 26.953125 
Q 43.75 22.265625 43.75 16.796875 
z
M 37.5 51.171875 
Q 37.5 56.640625 34.375 60.734375 
Q 31.25 64.84375 24.609375 64.84375 
Q 17.1875 64.84375 14.0625 60.9375 
Q 10.9375 57.03125 10.9375 52.734375 
Q 10.9375 48.4375 15.421875 44.328125 
Q 19.921875 40.234375 28.125 37.109375 
Q 32.8125 39.453125 35.15625 42.96875 
Q 37.5 46.484375 37.5 51.171875 
z
" id="FangSong-56"/>
      </defs>
      <g transform="translate(233.260207 253.022813)scale(0.1 -0.1)">
       <use xlink:href="#FangSong-50"/>
       <use x="50" xlink:href="#FangSong-48"/>
       <use x="100" xlink:href="#FangSong-50"/>
       <use x="150" xlink:href="#FangSong-52"/>
       <use x="200" xlink:href="#FangSong-45"/>
       <use x="250" xlink:href="#FangSong-48"/>
       <use x="300" xlink:href="#FangSong-50"/>
       <use x="350" xlink:href="#FangSong-45"/>
       <use x="400" xlink:href="#FangSong-48"/>
       <use x="450" xlink:href="#FangSong-56"/>
      </g>
     </g>
    </g>
    <g id="xtick_5">
     <g id="line2d_5">
      <g>
       <use style="stroke:#000000;stroke-width:0.8;" x="308.98748" xlink:href="#ma95cef450f" y="239.030625"/>
      </g>
     </g>
     <g id="text_5">
      <!-- 2024-02-15 -->
      <g transform="translate(283.98748 253.022813)scale(0.1 -0.1)">
       <use xlink:href="#FangSong-50"/>
       <use x="50" xlink:href="#FangSong-48"/>
       <use x="100" xlink:href="#FangSong-50"/>
       <use x="150" xlink:href="#FangSong-52"/>
       <use x="200" xlink:href="#FangSong-45"/>
       <use x="250" xlink:href="#FangSong-48"/>
       <use x="300" xlink:href="#FangSong-50"/>
       <use x="350" xlink:href="#FangSong-45"/>
       <use x="400" xlink:href="#FangSong-49"/>
       <use x="450" xlink:href="#FangSong-53"/>
      </g>
     </g>
    </g>
    <g id="xtick_6">
     <g id="line2d_6">
      <g>
       <use style="stroke:#000000;stroke-width:0.8;" x="359.714752" xlink:href="#ma95cef450f" y="239.030625"/>
      </g>
     </g>
     <g id="text_6">
      <!-- 2024-02-22 -->
      <g transform="translate(334.714752 253.022813)scale(0.1 -0.1)">
       <use xlink:href="#FangSong-50"/>
       <use x="50" xlink:href="#FangSong-48"/>
       <use x="100" xlink:href="#FangSong-50"/>
       <use x="150" xlink:href="#FangSong-52"/>
       <use x="200" xlink:href="#FangSong-45"/>
       <use x="250" xlink:href="#FangSong-48"/>
       <use x="300" xlink:href="#FangSong-50"/>
       <use x="350" xlink:href="#FangSong-45"/>
       <use x="400" xlink:href="#FangSong-50"/>
       <use x="450" xlink:href="#FangSong-50"/>
      </g>
     </g>
    </g>
   </g>
   <g id="matplotlib.axis_2">
    <g id="ytick_1">
     <g id="line2d_7">
      <defs>
       <path d="M 0 0 
L -3.5 0 
" id="mdc33af654f" style="stroke:#000000;stroke-width:0.8;"/>
      </defs>
      <g>
       <use style="stroke:#000000;stroke-width:0.8;" x="47.379688" xlink:href="#mdc33af654f" y="228.060022"/>
      </g>
     </g>
     <g id="text_7">
      <!-- 600 -->
      <defs>
       <path d="M 11.71875 26.5625 
Q 11.71875 14.84375 15.8125 8.390625 
Q 19.921875 1.953125 25.78125 1.953125 
Q 31.640625 1.953125 34.765625 6.25 
Q 37.890625 10.546875 37.890625 22.265625 
Q 37.890625 30.078125 34.5625 34.375 
Q 31.25 38.671875 26.5625 38.671875 
Q 22.265625 38.671875 18.546875 36.125 
Q 14.84375 33.59375 11.71875 26.5625 
z
M 26.953125 42.578125 
Q 36.328125 42.578125 40.421875 36.328125 
Q 44.53125 30.078125 44.53125 22.265625 
Q 44.53125 10.546875 38.859375 4.875 
Q 33.203125 -0.78125 25.78125 -0.78125 
Q 15.234375 -0.78125 9.765625 7.21875 
Q 4.296875 15.234375 4.296875 30.46875 
Q 4.296875 48.4375 10.9375 58 
Q 17.578125 67.578125 28.90625 67.578125 
Q 34.375 67.578125 37.6875 64.453125 
Q 41.015625 61.328125 41.015625 58.984375 
Q 41.015625 56.640625 40.03125 55.46875 
Q 39.0625 54.296875 36.71875 54.296875 
Q 34.765625 54.296875 33.78125 55.265625 
Q 32.8125 56.25 32.8125 58.203125 
Q 32.8125 58.984375 33 59.765625 
Q 33.203125 60.546875 33.203125 61.328125 
Q 33.203125 62.890625 32.03125 63.859375 
Q 30.859375 64.84375 27.734375 64.84375 
Q 21.09375 64.84375 16.40625 58.78125 
Q 11.71875 52.734375 11.71875 32.421875 
Q 14.0625 37.5 18.15625 40.03125 
Q 22.265625 42.578125 26.953125 42.578125 
z
" id="FangSong-54"/>
      </defs>
      <g transform="translate(25.379688 231.556115)scale(0.1 -0.1)">
       <use xlink:href="#FangSong-54"/>
       <use x="50" xlink:href="#FangSong-48"/>
       <use x="100" xlink:href="#FangSong-48"/>
      </g>
     </g>
    </g>
    <g id="ytick_2">
     <g id="line2d_8">
      <g>
       <use style="stroke:#000000;stroke-width:0.8;" x="47.379688" xlink:href="#mdc33af654f" y="197.003819"/>
      </g>
     </g>
     <g id="text_8">
      <!-- 800 -->
      <g transform="translate(25.379688 200.499913)scale(0.1 -0.1)">
       <use xlink:href="#FangSong-56"/>
       <use x="50" xlink:href="#FangSong-48"/>
       <use x="100" xlink:href="#FangSong-48"/>
      </g>
     </g>
    </g>
    <g id="ytick_3">
     <g id="line2d_9">
      <g>
       <use style="stroke:#000000;stroke-width:0.8;" x="47.379688" xlink:href="#mdc33af654f" y="165.947617"/>
      </g>
     </g>
     <g id="text_9">
      <!-- 1000 -->
      <g transform="translate(20.379688 169.443711)scale(0.1 -0.1)">
       <use xlink:href="#FangSong-49"/>
       <use x="50" xlink:href="#FangSong-48"/>
       <use x="100" xlink:href="#FangSong-48"/>
       <use x="150" xlink:href="#FangSong-48"/>
      </g>
     </g>
    </g>
    <g id="ytick_4">
     <g id="line2d_10">
      <g>
       <use style="stroke:#000000;stroke-width:0.8;" x="47.379688" xlink:href="#mdc33af654f" y="134.891415"/>
      </g>
     </g>
     <g id="text_10">
      <!-- 1200 -->
      <g transform="translate(20.379688 138.387509)scale(0.1 -0.1)">
       <use xlink:href="#FangSong-49"/>
       <use x="50" xlink:href="#FangSong-50"/>
       <use x="100" xlink:href="#FangSong-48"/>
       <use x="150" xlink:href="#FangSong-48"/>
      </g>
     </g>
    </g>
    <g id="ytick_5">
     <g id="line2d_11">
      <g>
       <use style="stroke:#000000;stroke-width:0.8;" x="47.379688" xlink:href="#mdc33af654f" y="103.835213"/>
      </g>
     </g>
     <g id="text_11">
      <!-- 1400 -->
      <g transform="translate(20.379688 107.331306)scale(0.1 -0.1)">
       <use xlink:href="#FangSong-49"/>
       <use x="50" xlink:href="#FangSong-52"/>
       <use x="100" xlink:href="#FangSong-48"/>
       <use x="150" xlink:href="#FangSong-48"/>
      </g>
     </g>
    </g>
    <g id="ytick_6">
     <g id="line2d_12">
      <g>
       <use style="stroke:#000000;stroke-width:0.8;" x="47.379688" xlink:href="#mdc33af654f" y="72.77901"/>
      </g>
     </g>
     <g id="text_12">
      <!-- 1600 -->
      <g transform="translate(20.379688 76.275104)scale(0.1 -0.1)">
       <use xlink:href="#FangSong-49"/>
       <use x="50" xlink:href="#FangSong-54"/>
       <use x="100" xlink:href="#FangSong-48"/>
       <use x="150" xlink:href="#FangSong-48"/>
      </g>
     </g>
    </g>
    <g id="ytick_7">
     <g id="line2d_13">
      <g>
       <use style="stroke:#000000;stroke-width:0.8;" x="47.379688" xlink:href="#mdc33af654f" y="41.722808"/>
      </g>
     </g>
     <g id="text_13">
      <!-- 1800 -->
      <g transform="translate(20.379688 45.218902)scale(0.1 -0.1)">
       <use xlink:href="#FangSong-49"/>
       <use x="50" xlink:href="#FangSong-56"/>
       <use x="100" xlink:href="#FangSong-48"/>
       <use x="150" xlink:href="#FangSong-48"/>
      </g>
     </g>
    </g>
    <g id="text_14">
     <!-- Baidu Index: 量化 -->
     <defs>
      <path d="M 1.171875 0 
L 1.171875 2.34375 
L 4.296875 2.34375 
Q 6.25 2.34375 7.03125 3.125 
Q 7.8125 3.90625 7.8125 5.46875 
L 7.8125 61.328125 
Q 7.8125 62.890625 7.03125 63.671875 
Q 6.25 64.453125 4.296875 64.453125 
L 1.953125 64.453125 
L 1.953125 66.796875 
L 24.609375 66.796875 
Q 33.984375 66.796875 38.46875 63.078125 
Q 42.96875 59.375 42.96875 51.5625 
Q 42.96875 46.09375 40.625 42.578125 
Q 38.28125 39.0625 30.859375 36.328125 
Q 39.84375 33.59375 42.96875 28.515625 
Q 46.09375 23.4375 46.09375 17.1875 
Q 46.09375 9.375 40.625 4.6875 
Q 35.15625 0 25.78125 0 
z
M 24.609375 2.34375 
Q 31.25 2.34375 34.953125 6.4375 
Q 38.671875 10.546875 38.671875 17.96875 
Q 38.671875 26.5625 34.765625 30.65625 
Q 30.859375 34.765625 23.046875 34.765625 
L 14.0625 34.765625 
L 14.0625 5.46875 
Q 14.0625 3.90625 15.03125 3.125 
Q 16.015625 2.34375 17.578125 2.34375 
z
M 36.328125 51.5625 
Q 36.328125 58.59375 32.421875 61.515625 
Q 28.515625 64.453125 22.265625 64.453125 
L 17.578125 64.453125 
Q 16.015625 64.453125 15.03125 63.671875 
Q 14.0625 62.890625 14.0625 61.328125 
L 14.0625 37.109375 
L 24.21875 37.109375 
Q 28.515625 37.109375 32.421875 40.625 
Q 36.328125 44.140625 36.328125 51.5625 
z
" id="FangSong-66"/>
      <path d="M 18.75 -0.390625 
Q 11.71875 -0.390625 7.8125 2.921875 
Q 3.90625 6.25 3.90625 10.546875 
Q 3.90625 17.578125 9.953125 22.0625 
Q 16.015625 26.5625 33.984375 28.515625 
L 33.984375 33.203125 
Q 33.984375 37.109375 32.21875 39.640625 
Q 30.46875 42.1875 24.21875 42.1875 
Q 17.578125 42.1875 14.84375 40.03125 
Q 12.109375 37.890625 12.890625 35.546875 
Q 13.671875 33.984375 12.890625 32.421875 
Q 12.109375 30.859375 9.765625 30.859375 
Q 8.203125 30.859375 7.21875 31.828125 
Q 6.25 32.8125 6.25 34.765625 
Q 6.25 38.28125 11.328125 41.40625 
Q 16.40625 44.53125 23.828125 44.53125 
Q 31.640625 44.53125 35.546875 41.59375 
Q 39.453125 38.671875 39.453125 33.203125 
L 39.453125 7.421875 
Q 39.453125 4.296875 40.03125 3.703125 
Q 40.625 3.125 42.1875 3.125 
Q 44.140625 3.125 44.921875 4.875 
Q 45.703125 6.640625 45.703125 9.765625 
L 47.65625 9.765625 
Q 47.65625 4.296875 45.703125 2.140625 
Q 43.75 0 40.625 0 
Q 37.890625 0 36.328125 1.171875 
Q 34.765625 2.34375 33.984375 5.078125 
Q 30.078125 2.34375 26.75 0.96875 
Q 23.4375 -0.390625 18.75 -0.390625 
z
M 10.546875 11.71875 
Q 10.546875 8.203125 12.6875 5.265625 
Q 14.84375 2.34375 19.53125 2.34375 
Q 23.046875 2.34375 26.5625 3.703125 
Q 30.078125 5.078125 33.984375 7.8125 
L 33.984375 26.171875 
Q 20.703125 24.609375 15.625 20.890625 
Q 10.546875 17.1875 10.546875 11.71875 
z
" id="FangSong-97"/>
      <path d="M 21.875 37.890625 
Q 21.875 39.453125 21.09375 40.421875 
Q 20.3125 41.40625 18.359375 41.40625 
L 10.15625 41.40625 
L 10.15625 43.75 
L 14.0625 43.75 
Q 17.578125 43.75 20.703125 44.328125 
Q 23.828125 44.921875 26.5625 46.484375 
L 27.34375 46.484375 
L 27.34375 5.46875 
Q 27.34375 3.90625 28.3125 3.125 
Q 29.296875 2.34375 30.859375 2.34375 
L 39.0625 2.34375 
L 39.0625 0 
L 10.15625 0 
L 10.15625 2.34375 
L 18.359375 2.34375 
Q 20.3125 2.34375 21.09375 3.125 
Q 21.875 3.90625 21.875 5.46875 
z
M 30.078125 62.109375 
Q 30.078125 59.765625 28.515625 58.203125 
Q 26.953125 56.640625 24.609375 56.640625 
Q 22.265625 56.640625 20.703125 58.203125 
Q 19.140625 59.765625 19.140625 62.109375 
Q 19.140625 64.453125 20.703125 66.015625 
Q 22.265625 67.578125 24.609375 67.578125 
Q 26.953125 67.578125 28.515625 66.015625 
Q 30.078125 64.453125 30.078125 62.109375 
z
" id="FangSong-105"/>
      <path d="M 35.546875 35.15625 
Q 33.59375 38.28125 30.46875 39.640625 
Q 27.34375 41.015625 24.21875 41.015625 
Q 18.359375 41.015625 15.03125 35.546875 
Q 11.71875 30.078125 11.71875 21.09375 
Q 11.71875 11.71875 14.84375 7.21875 
Q 17.96875 2.734375 23.828125 2.734375 
Q 28.125 2.734375 31.046875 5.46875 
Q 33.984375 8.203125 35.546875 13.671875 
z
M 22.65625 -0.390625 
Q 15.625 -0.390625 10.546875 5.265625 
Q 5.46875 10.9375 5.46875 21.875 
Q 5.46875 32.03125 10.9375 38.078125 
Q 16.40625 44.140625 23.828125 44.140625 
Q 26.953125 44.140625 30.265625 42.765625 
Q 33.59375 41.40625 35.546875 38.671875 
L 35.546875 59.765625 
Q 35.546875 62.109375 34.765625 63.28125 
Q 33.984375 64.453125 32.03125 64.453125 
L 28.90625 64.453125 
L 28.90625 66.796875 
L 33.203125 66.796875 
Q 35.15625 66.796875 37.109375 67.578125 
Q 39.0625 68.359375 41.015625 69.921875 
L 41.015625 8.203125 
Q 41.015625 6.25 41.796875 5.46875 
Q 42.578125 4.6875 44.140625 4.6875 
L 46.875 4.6875 
L 46.875 2.34375 
L 44.53125 2.34375 
Q 42.96875 2.34375 40.8125 1.75 
Q 38.671875 1.171875 36.328125 0 
L 35.546875 0 
L 35.546875 7.421875 
Q 33.59375 3.90625 30.265625 1.75 
Q 26.953125 -0.390625 22.65625 -0.390625 
z
" id="FangSong-100"/>
      <path d="M 22.265625 3.515625 
Q 26.953125 3.515625 30.265625 5.859375 
Q 33.59375 8.203125 35.15625 13.28125 
L 35.15625 37.890625 
Q 35.15625 39.453125 34.375 40.421875 
Q 33.59375 41.40625 31.640625 41.40625 
L 29.296875 41.40625 
L 29.296875 43.75 
L 31.640625 43.75 
Q 33.984375 43.75 35.9375 44.140625 
Q 37.890625 44.53125 39.84375 46.09375 
L 40.625 46.09375 
L 40.625 7.8125 
Q 40.625 6.25 41.59375 5.46875 
Q 42.578125 4.6875 44.140625 4.6875 
L 46.484375 4.6875 
L 46.484375 2.34375 
L 44.140625 2.34375 
Q 42.1875 2.34375 40.234375 1.75 
Q 38.28125 1.171875 35.9375 0 
L 35.15625 0 
L 35.15625 8.203125 
Q 33.203125 3.90625 29.296875 1.75 
Q 25.390625 -0.390625 20.3125 -0.390625 
Q 14.0625 -0.390625 10.9375 3.125 
Q 7.8125 6.640625 7.8125 14.453125 
L 7.8125 37.890625 
Q 7.8125 39.453125 7.03125 40.421875 
Q 6.25 41.40625 4.296875 41.40625 
L 1.953125 41.40625 
L 1.953125 43.75 
L 4.296875 43.75 
Q 6.640625 43.75 8.59375 44.140625 
Q 10.546875 44.53125 12.5 46.09375 
L 13.28125 46.09375 
L 13.28125 13.671875 
Q 13.28125 8.203125 15.625 5.859375 
Q 17.96875 3.515625 22.265625 3.515625 
z
" id="FangSong-117"/>
      <path id="FangSong-32"/>
      <path d="M 8.984375 64.453125 
L 8.984375 66.796875 
L 40.234375 66.796875 
L 40.234375 64.453125 
L 31.25 64.453125 
Q 29.6875 64.453125 28.703125 63.671875 
Q 27.734375 62.890625 27.734375 61.328125 
L 27.734375 5.46875 
Q 27.734375 3.90625 28.703125 3.125 
Q 29.6875 2.34375 31.25 2.34375 
L 40.234375 2.34375 
L 40.234375 0 
L 8.984375 0 
L 8.984375 2.34375 
L 17.96875 2.34375 
Q 19.921875 2.34375 20.703125 3.125 
Q 21.484375 3.90625 21.484375 5.46875 
L 21.484375 61.328125 
Q 21.484375 62.890625 20.703125 63.671875 
Q 19.921875 64.453125 17.96875 64.453125 
z
" id="FangSong-73"/>
      <path d="M 2.734375 0 
L 2.734375 2.34375 
L 4.6875 2.34375 
Q 6.640625 2.34375 7.421875 3.125 
Q 8.203125 3.90625 8.203125 5.46875 
L 8.203125 39.0625 
Q 8.203125 40.234375 7.8125 40.8125 
Q 7.421875 41.40625 6.25 41.40625 
L 3.125 41.40625 
L 3.125 43.75 
L 5.859375 43.75 
Q 7.8125 43.75 9.5625 44.140625 
Q 11.328125 44.53125 12.890625 45.703125 
L 13.671875 45.703125 
L 13.671875 36.71875 
Q 17.1875 40.625 20.703125 42.578125 
Q 24.21875 44.53125 28.125 44.53125 
Q 34.765625 44.53125 37.890625 41.015625 
Q 41.015625 37.5 41.015625 30.46875 
L 41.015625 5.46875 
Q 41.015625 3.90625 41.984375 3.125 
Q 42.96875 2.34375 44.53125 2.34375 
L 46.484375 2.34375 
L 46.484375 0 
L 30.078125 0 
L 30.078125 2.34375 
L 32.03125 2.34375 
Q 33.984375 2.34375 34.765625 3.125 
Q 35.546875 3.90625 35.546875 5.46875 
L 35.546875 31.640625 
Q 35.546875 36.328125 33.59375 38.859375 
Q 31.640625 41.40625 27.734375 41.40625 
Q 24.21875 41.40625 20.5 39.0625 
Q 16.796875 36.71875 13.671875 32.421875 
L 13.671875 5.46875 
Q 13.671875 3.90625 14.640625 3.125 
Q 15.625 2.34375 17.1875 2.34375 
L 19.140625 2.34375 
L 19.140625 0 
z
" id="FangSong-110"/>
      <path d="M 37.109375 24.21875 
Q 37.5 32.8125 34.171875 37.296875 
Q 30.859375 41.796875 25.390625 41.796875 
Q 19.53125 41.796875 15.8125 37.109375 
Q 12.109375 32.421875 12.109375 24.21875 
z
M 12.109375 21.875 
Q 12.109375 11.328125 16.203125 6.828125 
Q 20.3125 2.34375 26.953125 2.34375 
Q 32.03125 2.34375 35.546875 5.265625 
Q 39.0625 8.203125 40.625 12.5 
L 42.578125 11.71875 
Q 41.40625 7.421875 37.296875 3.3125 
Q 33.203125 -0.78125 26.171875 -0.78125 
Q 17.1875 -0.78125 11.515625 5.078125 
Q 5.859375 10.9375 5.859375 21.875 
Q 5.859375 31.640625 11.515625 38.078125 
Q 17.1875 44.53125 25.390625 44.53125 
Q 32.8125 44.53125 38.28125 39.453125 
Q 43.75 34.375 43.75 21.875 
z
" id="FangSong-101"/>
      <path d="M 25.78125 26.953125 
L 32.8125 37.5 
Q 33.984375 39.0625 33.78125 40.234375 
Q 33.59375 41.40625 30.859375 41.40625 
L 28.515625 41.40625 
L 28.515625 43.75 
L 43.75 43.75 
L 43.75 41.40625 
L 41.796875 41.40625 
Q 41.015625 41.40625 39.84375 41.203125 
Q 38.671875 41.015625 37.890625 39.84375 
L 27.34375 24.21875 
L 38.28125 6.25 
Q 39.453125 4.296875 41.203125 3.3125 
Q 42.96875 2.34375 43.75 2.34375 
L 45.3125 2.34375 
L 45.3125 0 
L 28.125 0 
L 28.125 2.34375 
L 30.46875 2.34375 
Q 32.8125 2.34375 33 3.515625 
Q 33.203125 4.6875 32.421875 6.25 
L 24.21875 19.53125 
L 14.84375 5.859375 
Q 14.453125 3.90625 15.03125 3.125 
Q 15.625 2.34375 17.1875 2.34375 
L 18.359375 2.34375 
L 18.359375 0 
L 3.125 0 
L 3.125 2.34375 
L 5.46875 2.34375 
Q 7.03125 2.34375 8.984375 3.515625 
Q 10.9375 4.6875 12.109375 7.03125 
L 22.265625 22.265625 
L 12.109375 38.671875 
Q 11.71875 39.453125 10.546875 40.421875 
Q 9.375 41.40625 7.421875 41.40625 
L 5.46875 41.40625 
L 5.46875 43.75 
L 22.265625 43.75 
L 22.265625 41.40625 
L 21.09375 41.40625 
Q 19.140625 41.40625 18.75 40.234375 
Q 18.359375 39.0625 19.140625 37.5 
z
" id="FangSong-120"/>
      <path d="M 25 4.296875 
Q 25 1.953125 23.4375 0.390625 
Q 21.875 -1.171875 19.53125 -1.171875 
Q 17.1875 -1.171875 15.625 0.390625 
Q 14.0625 1.953125 14.0625 4.296875 
Q 14.0625 6.640625 15.625 8.203125 
Q 17.1875 9.765625 19.53125 9.765625 
Q 21.875 9.765625 23.4375 8.203125 
Q 25 6.640625 25 4.296875 
z
M 25 31.640625 
Q 25 29.296875 23.4375 27.734375 
Q 21.875 26.171875 19.53125 26.171875 
Q 17.1875 26.171875 15.625 27.734375 
Q 14.0625 29.296875 14.0625 31.640625 
Q 14.0625 33.984375 15.625 35.546875 
Q 17.1875 37.109375 19.53125 37.109375 
Q 21.875 37.109375 23.4375 35.546875 
Q 25 33.984375 25 31.640625 
z
" id="FangSong-58"/>
      <path d="M 68.359375 38.28125 
L 71.09375 41.40625 
L 75.78125 36.71875 
L 72.265625 34.375 
L 69.921875 19.140625 
L 72.65625 16.015625 
L 51.5625 14.453125 
L 51.5625 7.03125 
Q 70.3125 8.59375 72.65625 9.375 
L 76.953125 5.859375 
Q 70.703125 5.46875 51.5625 3.90625 
L 51.5625 -3.515625 
Q 78.125 -1.953125 82.03125 -1.171875 
L 87.5 -4.6875 
Q 76.171875 -5.078125 49.796875 -6.640625 
Q 23.4375 -8.203125 19.53125 -8.59375 
L 14.453125 -5.078125 
Q 24.21875 -5.078125 48.046875 -3.515625 
L 48.046875 3.515625 
Q 32.8125 2.734375 30.078125 1.953125 
L 25.78125 5.46875 
Q 32.8125 5.46875 48.046875 6.640625 
L 48.046875 14.453125 
L 32.421875 13.28125 
Q 32.421875 10.15625 31.640625 10.546875 
Q 30.859375 10.9375 27.734375 15.625 
Q 28.90625 17.578125 28.90625 20.3125 
L 28.515625 31.25 
Q 28.515625 35.15625 27.734375 38.28125 
L 28.515625 39.0625 
L 31.640625 35.15625 
z
M 68.359375 75.78125 
L 71.09375 79.6875 
L 75.78125 75.390625 
L 72.65625 72.265625 
L 70.3125 57.421875 
L 73.4375 54.296875 
L 33.59375 51.953125 
Q 33.59375 47.265625 32.609375 48.046875 
Q 31.640625 48.828125 28.515625 53.515625 
Q 30.078125 54.6875 30.078125 57.421875 
L 30.078125 67.578125 
Q 30.46875 73.046875 29.296875 78.125 
L 30.46875 78.515625 
L 33.59375 73.4375 
z
M 33.59375 64.0625 
Q 58.59375 65.625 60.9375 66.40625 
L 65.234375 62.5 
Q 57.8125 62.890625 33.59375 60.9375 
L 33.59375 55.46875 
L 66.40625 57.421875 
L 68.75 72.265625 
L 33.59375 69.921875 
L 33.59375 64.0625 
z
M 91.015625 45.3125 
Q 82.421875 45.3125 50.1875 43.15625 
Q 17.96875 41.015625 12.890625 40.234375 
L 8.203125 44.140625 
Q 16.796875 44.140625 48.046875 46.09375 
Q 79.296875 48.046875 85.9375 49.609375 
z
M 51.5625 27.34375 
Q 57.421875 27.734375 61.328125 28.515625 
L 65.625 25 
Q 60.15625 25 51.5625 23.828125 
L 51.5625 17.96875 
L 66.40625 19.53125 
L 68.75 34.765625 
L 51.5625 33.59375 
L 51.5625 27.34375 
z
M 48.046875 17.96875 
L 48.046875 23.828125 
Q 40.625 23.046875 39.0625 22.265625 
L 34.765625 26.171875 
Q 39.453125 26.171875 48.046875 26.953125 
L 48.046875 33.203125 
L 32.03125 31.640625 
L 32.421875 16.796875 
z
" id="FangSong-37327"/>
      <path d="M 57.8125 7.8125 
Q 57.8125 0.390625 68.359375 0 
L 79.296875 0 
Q 85.15625 0 86.125 2.53125 
Q 87.109375 5.078125 87.109375 21.09375 
L 89.0625 21.09375 
Q 89.0625 15.625 89.640625 8.78125 
Q 90.234375 1.953125 92.578125 -2.34375 
Q 87.890625 -3.90625 79.296875 -3.90625 
L 68.359375 -3.90625 
Q 54.296875 -3.90625 54.296875 6.25 
L 54.296875 30.46875 
Q 46.484375 24.21875 35.546875 18.75 
L 34.765625 20.703125 
Q 45.3125 26.5625 54.296875 34.375 
L 54.296875 66.796875 
Q 54.296875 76.171875 51.953125 80.078125 
L 52.734375 80.859375 
L 60.15625 73.828125 
Q 57.421875 72.65625 57.8125 66.015625 
L 57.8125 36.71875 
Q 66.015625 42.96875 73.046875 50.390625 
Q 80.078125 57.8125 79.296875 61.71875 
L 80.46875 61.71875 
L 83.203125 53.125 
Q 82.421875 53.90625 74.609375 46.671875 
Q 66.796875 39.453125 57.8125 32.8125 
z
M 32.03125 -4.6875 
Q 32.03125 -10.9375 30.46875 -8.59375 
L 26.5625 -1.171875 
Q 28.90625 -0.390625 28.515625 4.6875 
L 28.90625 52.34375 
Q 21.875 42.96875 7.8125 31.25 
L 7.03125 32.8125 
Q 21.875 47.65625 31.640625 62.5 
Q 41.40625 77.34375 39.453125 80.46875 
L 40.625 80.859375 
L 44.921875 72.65625 
Q 43.359375 73.4375 40.03125 68.75 
Q 36.71875 64.0625 32.421875 57.421875 
z
" id="FangSong-21270"/>
     </defs>
     <g transform="translate(14.934375 172.810625)rotate(-90)scale(0.1 -0.1)">
      <use xlink:href="#FangSong-66"/>
      <use x="50" xlink:href="#FangSong-97"/>
      <use x="100" xlink:href="#FangSong-105"/>
      <use x="150" xlink:href="#FangSong-100"/>
      <use x="200" xlink:href="#FangSong-117"/>
      <use x="250" xlink:href="#FangSong-32"/>
      <use x="300" xlink:href="#FangSong-73"/>
      <use x="350" xlink:href="#FangSong-110"/>
      <use x="400" xlink:href="#FangSong-100"/>
      <use x="450" xlink:href="#FangSong-101"/>
      <use x="500" xlink:href="#FangSong-120"/>
      <use x="550" xlink:href="#FangSong-58"/>
      <use x="600" xlink:href="#FangSong-32"/>
      <use x="650" xlink:href="#FangSong-37327"/>
      <use x="750" xlink:href="#FangSong-21270"/>
     </g>
    </g>
   </g>
   <g id="line2d_14">
    <path clip-path="url(#p17dab034b6)" d="M 62.597869 217.345632 
L 84.338129 219.674847 
L 91.584882 219.364285 
L 98.831636 216.724508 
L 106.078389 211.755515 
L 113.325142 223.401591 
L 135.065402 219.985409 
L 142.312155 216.413946 
L 149.558908 220.14069 
L 156.805662 222.004062 
L 164.052415 228.681146 
L 185.792675 224.177996 
L 193.039428 218.122037 
L 200.286181 228.060022 
L 207.532934 229.146989 
L 214.779687 228.215303 
L 236.519947 208.494614 
L 243.7667 199.798878 
L 251.013454 141.257936 
L 258.260207 160.978625 
L 337.974493 208.339333 
L 345.221246 120.916124 
L 352.467999 31.474261 
L 359.714752 90.791608 
L 366.961506 158.028286 
" style="fill:none;stroke:#1f77b4;stroke-linecap:square;stroke-width:1.5;"/>
    <defs>
     <path d="M 0 3 
C 0.795609 3 1.55874 2.683901 2.12132 2.12132 
C 2.683901 1.55874 3 0.795609 3 0 
C 3 -0.795609 2.683901 -1.55874 2.12132 -2.12132 
C 1.55874 -2.683901 0.795609 -3 0 -3 
C -0.795609 -3 -1.55874 -2.683901 -2.12132 -2.12132 
C -2.683901 -1.55874 -3 -0.795609 -3 0 
C -3 0.795609 -2.683901 1.55874 -2.12132 2.12132 
C -1.55874 2.683901 -0.795609 3 0 3 
z
" id="mdaa56b86eb" style="stroke:#1f77b4;"/>
    </defs>
    <g clip-path="url(#p17dab034b6)">
     <use style="fill:#1f77b4;stroke:#1f77b4;" x="62.597869" xlink:href="#mdaa56b86eb" y="217.345632"/>
     <use style="fill:#1f77b4;stroke:#1f77b4;" x="84.338129" xlink:href="#mdaa56b86eb" y="219.674847"/>
     <use style="fill:#1f77b4;stroke:#1f77b4;" x="91.584882" xlink:href="#mdaa56b86eb" y="219.364285"/>
     <use style="fill:#1f77b4;stroke:#1f77b4;" x="98.831636" xlink:href="#mdaa56b86eb" y="216.724508"/>
     <use style="fill:#1f77b4;stroke:#1f77b4;" x="106.078389" xlink:href="#mdaa56b86eb" y="211.755515"/>
     <use style="fill:#1f77b4;stroke:#1f77b4;" x="113.325142" xlink:href="#mdaa56b86eb" y="223.401591"/>
     <use style="fill:#1f77b4;stroke:#1f77b4;" x="135.065402" xlink:href="#mdaa56b86eb" y="219.985409"/>
     <use style="fill:#1f77b4;stroke:#1f77b4;" x="142.312155" xlink:href="#mdaa56b86eb" y="216.413946"/>
     <use style="fill:#1f77b4;stroke:#1f77b4;" x="149.558908" xlink:href="#mdaa56b86eb" y="220.14069"/>
     <use style="fill:#1f77b4;stroke:#1f77b4;" x="156.805662" xlink:href="#mdaa56b86eb" y="222.004062"/>
     <use style="fill:#1f77b4;stroke:#1f77b4;" x="164.052415" xlink:href="#mdaa56b86eb" y="228.681146"/>
     <use style="fill:#1f77b4;stroke:#1f77b4;" x="185.792675" xlink:href="#mdaa56b86eb" y="224.177996"/>
     <use style="fill:#1f77b4;stroke:#1f77b4;" x="193.039428" xlink:href="#mdaa56b86eb" y="218.122037"/>
     <use style="fill:#1f77b4;stroke:#1f77b4;" x="200.286181" xlink:href="#mdaa56b86eb" y="228.060022"/>
     <use style="fill:#1f77b4;stroke:#1f77b4;" x="207.532934" xlink:href="#mdaa56b86eb" y="229.146989"/>
     <use style="fill:#1f77b4;stroke:#1f77b4;" x="214.779687" xlink:href="#mdaa56b86eb" y="228.215303"/>
     <use style="fill:#1f77b4;stroke:#1f77b4;" x="236.519947" xlink:href="#mdaa56b86eb" y="208.494614"/>
     <use style="fill:#1f77b4;stroke:#1f77b4;" x="243.7667" xlink:href="#mdaa56b86eb" y="199.798878"/>
     <use style="fill:#1f77b4;stroke:#1f77b4;" x="251.013454" xlink:href="#mdaa56b86eb" y="141.257936"/>
     <use style="fill:#1f77b4;stroke:#1f77b4;" x="258.260207" xlink:href="#mdaa56b86eb" y="160.978625"/>
     <use style="fill:#1f77b4;stroke:#1f77b4;" x="337.974493" xlink:href="#mdaa56b86eb" y="208.339333"/>
     <use style="fill:#1f77b4;stroke:#1f77b4;" x="345.221246" xlink:href="#mdaa56b86eb" y="120.916124"/>
     <use style="fill:#1f77b4;stroke:#1f77b4;" x="352.467999" xlink:href="#mdaa56b86eb" y="31.474261"/>
     <use style="fill:#1f77b4;stroke:#1f77b4;" x="359.714752" xlink:href="#mdaa56b86eb" y="90.791608"/>
     <use style="fill:#1f77b4;stroke:#1f77b4;" x="366.961506" xlink:href="#mdaa56b86eb" y="158.028286"/>
    </g>
   </g>
   <g id="patch_3">
    <path d="M 47.379688 239.030625 
L 47.379688 21.590625 
" style="fill:none;stroke:#000000;stroke-linecap:square;stroke-linejoin:miter;stroke-width:0.8;"/>
   </g>
   <g id="patch_4">
    <path d="M 382.179688 239.030625 
L 382.179688 21.590625 
" style="fill:none;stroke:#000000;stroke-linecap:square;stroke-linejoin:miter;stroke-width:0.8;"/>
   </g>
   <g id="patch_5">
    <path d="M 47.379688 239.030625 
L 382.179688 239.030625 
" style="fill:none;stroke:#000000;stroke-linecap:square;stroke-linejoin:miter;stroke-width:0.8;"/>
   </g>
   <g id="patch_6">
    <path d="M 47.379688 21.590625 
L 382.179688 21.590625 
" style="fill:none;stroke:#000000;stroke-linecap:square;stroke-linejoin:miter;stroke-width:0.8;"/>
   </g>
   <g id="legend_1">
    <g id="patch_7">
     <path d="M 54.379688 234.030625 
L 171.379687 234.030625 
Q 173.379687 234.030625 173.379687 232.030625 
L 173.379687 218.850938 
Q 173.379687 216.850938 171.379687 216.850938 
L 54.379688 216.850938 
Q 52.379688 216.850938 52.379688 218.850938 
L 52.379688 232.030625 
Q 52.379688 234.030625 54.379688 234.030625 
z
" style="fill:#ffffff;opacity:0.8;stroke:#cccccc;stroke-linejoin:miter;"/>
    </g>
    <g id="line2d_15">
     <path d="M 56.379688 225.085313 
L 76.379688 225.085313 
" style="fill:none;stroke:#1f77b4;stroke-linecap:square;stroke-width:1.5;"/>
    </g>
    <g id="line2d_16">
     <g>
      <use style="fill:#1f77b4;stroke:#1f77b4;" x="66.379688" xlink:href="#mdaa56b86eb" y="225.085313"/>
     </g>
    </g>
    <g id="text_15">
     <!-- Baidu Index: 量化 -->
     <g transform="translate(84.379688 228.585313)scale(0.1 -0.1)">
      <use xlink:href="#FangSong-66"/>
      <use x="50" xlink:href="#FangSong-97"/>
      <use x="100" xlink:href="#FangSong-105"/>
      <use x="150" xlink:href="#FangSong-100"/>
      <use x="200" xlink:href="#FangSong-117"/>
      <use x="250" xlink:href="#FangSong-32"/>
      <use x="300" xlink:href="#FangSong-73"/>
      <use x="350" xlink:href="#FangSong-110"/>
      <use x="400" xlink:href="#FangSong-100"/>
      <use x="450" xlink:href="#FangSong-101"/>
      <use x="500" xlink:href="#FangSong-120"/>
      <use x="550" xlink:href="#FangSong-58"/>
      <use x="600" xlink:href="#FangSong-32"/>
      <use x="650" xlink:href="#FangSong-37327"/>
      <use x="750" xlink:href="#FangSong-21270"/>
     </g>
    </g>
   </g>
  </g>
  <g id="axes_2">
   <g id="matplotlib.axis_3">
    <g id="ytick_8">
     <g id="line2d_17">
      <defs>
       <path d="M 0 0 
L 3.5 0 
" id="m4adecbccb5" style="stroke:#000000;stroke-width:0.8;"/>
      </defs>
      <g>
       <use style="stroke:#000000;stroke-width:0.8;" x="382.179688" xlink:href="#m4adecbccb5" y="214.214048"/>
      </g>
     </g>
     <g id="text_16">
      <!-- -0.12 -->
      <defs>
       <path d="M 17.578125 4.296875 
Q 17.578125 1.953125 16.015625 0.390625 
Q 14.453125 -1.171875 12.109375 -1.171875 
Q 9.765625 -1.171875 8.203125 0.390625 
Q 6.640625 1.953125 6.640625 4.296875 
Q 6.640625 6.640625 8.203125 8.203125 
Q 9.765625 9.765625 12.109375 9.765625 
Q 14.453125 9.765625 16.015625 8.203125 
Q 17.578125 6.640625 17.578125 4.296875 
z
" id="FangSong-46"/>
      </defs>
      <g transform="translate(389.179688 217.710142)scale(0.1 -0.1)">
       <use xlink:href="#FangSong-45"/>
       <use x="50" xlink:href="#FangSong-48"/>
       <use x="100" xlink:href="#FangSong-46"/>
       <use x="150" xlink:href="#FangSong-49"/>
       <use x="200" xlink:href="#FangSong-50"/>
      </g>
     </g>
    </g>
    <g id="ytick_9">
     <g id="line2d_18">
      <g>
       <use style="stroke:#000000;stroke-width:0.8;" x="382.179688" xlink:href="#m4adecbccb5" y="183.757417"/>
      </g>
     </g>
     <g id="text_17">
      <!-- -0.10 -->
      <g transform="translate(389.179688 187.253511)scale(0.1 -0.1)">
       <use xlink:href="#FangSong-45"/>
       <use x="50" xlink:href="#FangSong-48"/>
       <use x="100" xlink:href="#FangSong-46"/>
       <use x="150" xlink:href="#FangSong-49"/>
       <use x="200" xlink:href="#FangSong-48"/>
      </g>
     </g>
    </g>
    <g id="ytick_10">
     <g id="line2d_19">
      <g>
       <use style="stroke:#000000;stroke-width:0.8;" x="382.179688" xlink:href="#m4adecbccb5" y="153.300786"/>
      </g>
     </g>
     <g id="text_18">
      <!-- -0.08 -->
      <g transform="translate(389.179688 156.79688)scale(0.1 -0.1)">
       <use xlink:href="#FangSong-45"/>
       <use x="50" xlink:href="#FangSong-48"/>
       <use x="100" xlink:href="#FangSong-46"/>
       <use x="150" xlink:href="#FangSong-48"/>
       <use x="200" xlink:href="#FangSong-56"/>
      </g>
     </g>
    </g>
    <g id="ytick_11">
     <g id="line2d_20">
      <g>
       <use style="stroke:#000000;stroke-width:0.8;" x="382.179688" xlink:href="#m4adecbccb5" y="122.844155"/>
      </g>
     </g>
     <g id="text_19">
      <!-- -0.06 -->
      <g transform="translate(389.179688 126.340249)scale(0.1 -0.1)">
       <use xlink:href="#FangSong-45"/>
       <use x="50" xlink:href="#FangSong-48"/>
       <use x="100" xlink:href="#FangSong-46"/>
       <use x="150" xlink:href="#FangSong-48"/>
       <use x="200" xlink:href="#FangSong-54"/>
      </g>
     </g>
    </g>
    <g id="ytick_12">
     <g id="line2d_21">
      <g>
       <use style="stroke:#000000;stroke-width:0.8;" x="382.179688" xlink:href="#m4adecbccb5" y="92.387524"/>
      </g>
     </g>
     <g id="text_20">
      <!-- -0.04 -->
      <g transform="translate(389.179688 95.883617)scale(0.1 -0.1)">
       <use xlink:href="#FangSong-45"/>
       <use x="50" xlink:href="#FangSong-48"/>
       <use x="100" xlink:href="#FangSong-46"/>
       <use x="150" xlink:href="#FangSong-48"/>
       <use x="200" xlink:href="#FangSong-52"/>
      </g>
     </g>
    </g>
    <g id="ytick_13">
     <g id="line2d_22">
      <g>
       <use style="stroke:#000000;stroke-width:0.8;" x="382.179688" xlink:href="#m4adecbccb5" y="61.930893"/>
      </g>
     </g>
     <g id="text_21">
      <!-- -0.02 -->
      <g transform="translate(389.179688 65.426986)scale(0.1 -0.1)">
       <use xlink:href="#FangSong-45"/>
       <use x="50" xlink:href="#FangSong-48"/>
       <use x="100" xlink:href="#FangSong-46"/>
       <use x="150" xlink:href="#FangSong-48"/>
       <use x="200" xlink:href="#FangSong-50"/>
      </g>
     </g>
    </g>
    <g id="ytick_14">
     <g id="line2d_23">
      <g>
       <use style="stroke:#000000;stroke-width:0.8;" x="382.179688" xlink:href="#m4adecbccb5" y="31.474261"/>
      </g>
     </g>
     <g id="text_22">
      <!-- 0.00 -->
      <g transform="translate(389.179688 34.970355)scale(0.1 -0.1)">
       <use xlink:href="#FangSong-48"/>
       <use x="50" xlink:href="#FangSong-46"/>
       <use x="100" xlink:href="#FangSong-48"/>
       <use x="150" xlink:href="#FangSong-48"/>
      </g>
     </g>
    </g>
    <g id="text_23">
     <!-- HF Avg Cum Excess Ret -->
     <defs>
      <path d="M 42.1875 5.46875 
Q 42.1875 3.90625 43.15625 3.125 
Q 44.140625 2.34375 45.703125 2.34375 
L 47.65625 2.34375 
L 47.65625 0 
L 30.46875 0 
L 30.46875 2.34375 
L 32.421875 2.34375 
Q 34.375 2.34375 35.15625 3.125 
Q 35.9375 3.90625 35.9375 5.46875 
L 35.9375 33.984375 
L 12.890625 33.984375 
L 12.890625 5.46875 
Q 12.890625 3.90625 13.859375 3.125 
Q 14.84375 2.34375 16.40625 2.34375 
L 18.359375 2.34375 
L 18.359375 0 
L 1.171875 0 
L 1.171875 2.34375 
L 3.125 2.34375 
Q 5.078125 2.34375 5.859375 3.125 
Q 6.640625 3.90625 6.640625 5.46875 
L 6.640625 61.328125 
Q 6.640625 62.890625 5.859375 63.671875 
Q 5.078125 64.453125 3.125 64.453125 
L 1.5625 64.453125 
L 1.5625 66.796875 
L 17.96875 66.796875 
L 17.96875 64.453125 
L 16.40625 64.453125 
Q 14.84375 64.453125 13.859375 63.671875 
Q 12.890625 62.890625 12.890625 61.328125 
L 12.890625 36.328125 
L 35.9375 36.328125 
L 35.9375 61.328125 
Q 35.9375 62.890625 35.15625 63.671875 
Q 34.375 64.453125 32.421875 64.453125 
L 30.859375 64.453125 
L 30.859375 66.796875 
L 47.265625 66.796875 
L 47.265625 64.453125 
L 45.703125 64.453125 
Q 44.140625 64.453125 43.15625 63.671875 
Q 42.1875 62.890625 42.1875 61.328125 
z
" id="FangSong-72"/>
      <path d="M 20.703125 2.34375 
L 20.703125 0 
L 1.953125 0 
L 1.953125 2.34375 
L 4.6875 2.34375 
Q 6.640625 2.34375 7.421875 3.125 
Q 8.203125 3.90625 8.203125 5.46875 
L 8.203125 61.328125 
Q 8.203125 62.890625 7.421875 63.671875 
Q 6.640625 64.453125 4.6875 64.453125 
L 2.34375 64.453125 
L 2.34375 66.796875 
L 42.96875 66.796875 
L 47.65625 52.734375 
L 45.703125 51.953125 
Q 42.578125 58.203125 38.28125 61.328125 
Q 33.984375 64.453125 28.90625 64.453125 
L 17.96875 64.453125 
Q 16.40625 64.453125 15.421875 63.671875 
Q 14.453125 62.890625 14.453125 61.328125 
L 14.453125 36.328125 
L 27.34375 36.328125 
Q 31.25 36.328125 33 38.078125 
Q 34.765625 39.84375 34.765625 43.75 
L 34.765625 45.703125 
L 37.109375 45.703125 
L 37.109375 23.046875 
L 34.765625 23.046875 
L 34.765625 24.609375 
Q 34.765625 29.296875 33 31.640625 
Q 31.25 33.984375 27.34375 33.984375 
L 14.453125 33.984375 
L 14.453125 5.46875 
Q 14.453125 3.90625 15.421875 3.125 
Q 16.40625 2.34375 17.96875 2.34375 
z
" id="FangSong-70"/>
      <path d="M 31.25 25 
L 13.671875 25 
L 10.15625 10.15625 
Q 9.375 6.640625 10.15625 4.484375 
Q 10.9375 2.34375 13.671875 2.34375 
L 14.84375 2.34375 
L 14.84375 0 
L 0.390625 0 
L 0.390625 2.34375 
L 1.5625 2.34375 
Q 3.125 2.34375 4.296875 3.3125 
Q 5.46875 4.296875 5.859375 6.640625 
L 21.09375 66.40625 
L 26.953125 68.359375 
L 41.796875 6.640625 
Q 42.578125 4.296875 43.75 3.3125 
Q 44.921875 2.34375 46.484375 2.34375 
L 47.65625 2.34375 
L 47.65625 0 
L 30.859375 0 
L 30.859375 2.34375 
L 32.421875 2.34375 
Q 34.765625 2.34375 35.34375 3.703125 
Q 35.9375 5.078125 35.15625 7.8125 
z
M 23.046875 59.765625 
L 22.65625 59.765625 
L 14.453125 27.34375 
L 30.859375 27.34375 
z
" id="FangSong-65"/>
      <path d="M 25 -0.390625 
L 22.65625 -0.390625 
L 9.375 37.890625 
Q 8.984375 39.453125 7.8125 40.421875 
Q 6.640625 41.40625 5.078125 41.40625 
L 3.125 41.40625 
L 3.125 43.75 
L 19.921875 43.75 
L 19.921875 41.40625 
L 18.359375 41.40625 
Q 16.015625 41.40625 15.421875 40.234375 
Q 14.84375 39.0625 15.625 36.328125 
L 25 8.984375 
L 25.78125 8.984375 
L 35.15625 35.9375 
Q 36.328125 38.671875 35.34375 40.03125 
Q 34.375 41.40625 32.03125 41.40625 
L 31.25 41.40625 
L 31.25 43.75 
L 45.3125 43.75 
L 45.3125 41.40625 
L 44.53125 41.40625 
Q 42.1875 41.40625 40.8125 40.03125 
Q 39.453125 38.671875 38.28125 35.9375 
z
" id="FangSong-118"/>
      <path d="M 13.28125 29.296875 
Q 13.28125 24.609375 16.015625 21.28125 
Q 18.75 17.96875 23.4375 17.96875 
Q 28.515625 17.96875 31.046875 20.890625 
Q 33.59375 23.828125 33.59375 29.296875 
Q 33.59375 35.9375 30.65625 38.859375 
Q 27.734375 41.796875 23.4375 41.796875 
Q 19.140625 41.796875 16.203125 38.859375 
Q 13.28125 35.9375 13.28125 29.296875 
z
M 32.421875 8.203125 
Q 38.28125 7.421875 41.015625 4.875 
Q 43.75 2.34375 43.75 -1.953125 
Q 43.75 -7.8125 38.859375 -11.328125 
Q 33.984375 -14.84375 23.4375 -14.84375 
Q 15.234375 -14.84375 10.15625 -11.515625 
Q 5.078125 -8.203125 5.078125 -3.90625 
Q 5.078125 -1.171875 7.03125 1.5625 
Q 8.984375 4.296875 13.28125 5.859375 
Q 10.9375 7.03125 9.5625 8.390625 
Q 8.203125 9.765625 8.203125 11.71875 
Q 8.203125 14.0625 9.765625 15.8125 
Q 11.328125 17.578125 13.671875 18.75 
Q 11.328125 20.703125 9.5625 23.4375 
Q 7.8125 26.171875 7.8125 29.296875 
Q 7.8125 35.15625 11.90625 39.640625 
Q 16.015625 44.140625 23.4375 44.140625 
Q 26.5625 44.140625 29.484375 43.359375 
Q 32.421875 42.578125 34.375 40.625 
Q 37.109375 42.578125 39.25 43.546875 
Q 41.40625 44.53125 42.96875 44.53125 
Q 44.921875 44.53125 45.703125 43.15625 
Q 46.484375 41.796875 46.484375 40.625 
Q 46.484375 39.0625 45.890625 38.078125 
Q 45.3125 37.109375 43.75 37.109375 
Q 42.578125 37.109375 41.796875 37.6875 
Q 41.015625 38.28125 40.625 39.453125 
Q 40.234375 40.625 38.859375 40.421875 
Q 37.5 40.234375 35.9375 39.0625 
Q 37.5 37.5 38.28125 34.765625 
Q 39.0625 32.03125 39.0625 29.296875 
Q 39.0625 24.609375 35.34375 20.109375 
Q 31.640625 15.625 23.4375 15.625 
Q 21.09375 15.625 19.140625 16.203125 
Q 17.1875 16.796875 16.015625 17.578125 
Q 14.453125 16.796875 13.671875 15.625 
Q 12.890625 14.453125 12.890625 13.671875 
Q 12.890625 12.109375 13.671875 11.328125 
Q 14.453125 10.546875 16.015625 10.546875 
Q 21.09375 9.765625 25.1875 9.171875 
Q 29.296875 8.59375 32.421875 8.203125 
z
M 16.40625 5.078125 
Q 12.890625 3.515625 11.515625 1.359375 
Q 10.15625 -0.78125 10.15625 -3.90625 
Q 10.15625 -7.03125 13.671875 -9.765625 
Q 17.1875 -12.5 24.21875 -12.5 
Q 30.859375 -12.5 34.765625 -10.34375 
Q 38.671875 -8.203125 38.671875 -3.90625 
Q 38.671875 -1.171875 37.6875 0.390625 
Q 36.71875 1.953125 34.765625 2.34375 
Q 30.859375 3.125 26.171875 3.703125 
Q 21.484375 4.296875 16.40625 5.078125 
z
" id="FangSong-103"/>
      <path d="M 26.5625 -1.171875 
Q 15.625 -1.171875 9.171875 7.03125 
Q 2.734375 15.234375 2.734375 32.8125 
Q 2.734375 47.65625 9.5625 57.421875 
Q 16.40625 67.1875 28.125 67.1875 
Q 30.859375 67.1875 33.59375 66.203125 
Q 36.328125 65.234375 38.28125 65.234375 
Q 39.84375 65.234375 40.8125 65.625 
Q 41.796875 66.015625 42.578125 67.1875 
L 46.09375 50 
L 43.75 49.21875 
Q 41.40625 56.640625 37.5 60.546875 
Q 33.59375 64.453125 27.34375 64.453125 
Q 19.140625 64.453125 14.640625 55.46875 
Q 10.15625 46.484375 10.15625 33.203125 
Q 10.15625 18.75 14.0625 10.546875 
Q 17.96875 2.34375 26.953125 2.34375 
Q 33.203125 2.34375 37.6875 6.828125 
Q 42.1875 11.328125 43.75 18.75 
L 46.09375 17.578125 
Q 44.140625 9.375 38.859375 4.09375 
Q 33.59375 -1.171875 26.5625 -1.171875 
z
" id="FangSong-67"/>
      <path d="M 2.34375 43.75 
Q 4.296875 43.75 6.25 44.140625 
Q 8.203125 44.53125 9.375 45.3125 
L 10.15625 45.3125 
L 10.15625 38.671875 
Q 12.109375 41.796875 14.453125 43.15625 
Q 16.796875 44.53125 19.53125 44.53125 
Q 23.046875 44.53125 25 43.15625 
Q 26.953125 41.796875 27.34375 38.671875 
Q 29.296875 41.796875 31.828125 43.15625 
Q 34.375 44.53125 37.109375 44.53125 
Q 41.796875 44.53125 43.546875 41.796875 
Q 45.3125 39.0625 45.3125 34.765625 
L 45.3125 5.078125 
Q 45.3125 3.515625 46.09375 2.921875 
Q 46.875 2.34375 48.4375 2.34375 
L 49.21875 2.34375 
L 49.21875 0 
L 35.9375 0 
L 35.9375 2.34375 
L 36.71875 2.34375 
Q 38.28125 2.34375 39.0625 2.921875 
Q 39.84375 3.515625 39.84375 5.078125 
L 39.84375 34.375 
Q 39.84375 38.671875 38.859375 40.03125 
Q 37.890625 41.40625 35.9375 41.40625 
Q 33.203125 41.40625 31.046875 39.453125 
Q 28.90625 37.5 27.734375 33.984375 
L 27.734375 5.078125 
Q 27.734375 3.515625 28.515625 2.921875 
Q 29.296875 2.34375 30.859375 2.34375 
L 31.640625 2.34375 
L 31.640625 0 
L 18.359375 0 
L 18.359375 2.34375 
L 19.140625 2.34375 
Q 20.703125 2.34375 21.484375 2.921875 
Q 22.265625 3.515625 22.265625 5.078125 
L 22.265625 34.375 
Q 22.265625 37.890625 21.484375 39.640625 
Q 20.703125 41.40625 18.359375 41.40625 
Q 15.625 41.40625 13.46875 39.453125 
Q 11.328125 37.5 10.15625 33.59375 
L 10.15625 5.078125 
Q 10.15625 3.515625 10.9375 2.921875 
Q 11.71875 2.34375 13.28125 2.34375 
L 14.0625 2.34375 
L 14.0625 0 
L 0.78125 0 
L 0.78125 2.34375 
L 1.5625 2.34375 
Q 3.125 2.34375 3.90625 2.921875 
Q 4.6875 3.515625 4.6875 5.078125 
L 4.6875 39.0625 
Q 4.6875 40.234375 4.296875 40.8125 
Q 3.90625 41.40625 2.734375 41.40625 
L 1.171875 41.40625 
L 1.171875 43.75 
z
" id="FangSong-109"/>
      <path d="M 2.734375 64.453125 
L 2.734375 66.796875 
L 41.015625 66.796875 
L 45.3125 53.515625 
L 43.359375 52.734375 
Q 40.234375 58.59375 36.71875 61.515625 
Q 33.203125 64.453125 28.90625 64.453125 
L 17.96875 64.453125 
Q 16.40625 64.453125 15.421875 63.671875 
Q 14.453125 62.890625 14.453125 61.328125 
L 14.453125 37.109375 
L 25.78125 37.109375 
Q 29.6875 37.109375 31.4375 39.0625 
Q 33.203125 41.015625 33.203125 44.921875 
L 33.203125 47.265625 
L 35.546875 47.265625 
L 35.546875 24.21875 
L 33.203125 24.21875 
L 33.203125 25.78125 
Q 33.203125 30.078125 31.4375 32.421875 
Q 29.6875 34.765625 25.78125 34.765625 
L 14.453125 34.765625 
L 14.453125 5.46875 
Q 14.453125 3.90625 15.421875 3.125 
Q 16.40625 2.34375 17.96875 2.34375 
L 28.125 2.34375 
Q 33.984375 2.34375 38.078125 5.65625 
Q 42.1875 8.984375 44.53125 16.015625 
L 46.484375 15.234375 
L 42.1875 0 
L 2.34375 0 
L 2.34375 2.34375 
L 4.6875 2.34375 
Q 6.640625 2.34375 7.421875 3.125 
Q 8.203125 3.90625 8.203125 5.46875 
L 8.203125 61.328125 
Q 8.203125 62.890625 7.421875 63.671875 
Q 6.640625 64.453125 4.6875 64.453125 
z
" id="FangSong-69"/>
      <path d="M 33.203125 33.203125 
Q 33.203125 34.375 33.390625 34.765625 
Q 33.59375 35.15625 33.984375 36.328125 
Q 34.375 37.890625 32.421875 40.03125 
Q 30.46875 42.1875 25.78125 42.1875 
Q 19.921875 42.1875 15.8125 36.515625 
Q 11.71875 30.859375 11.71875 21.484375 
Q 11.71875 12.890625 15.234375 7.609375 
Q 18.75 2.34375 26.953125 2.34375 
Q 32.421875 2.34375 36.125 5.859375 
Q 39.84375 9.375 41.40625 14.0625 
L 43.359375 13.28125 
Q 41.796875 7.421875 37.5 3.3125 
Q 33.203125 -0.78125 25.78125 -0.78125 
Q 16.40625 -0.78125 10.9375 5.078125 
Q 5.46875 10.9375 5.46875 21.875 
Q 5.46875 31.640625 11.328125 38.078125 
Q 17.1875 44.53125 26.5625 44.53125 
Q 33.203125 44.53125 36.90625 41.015625 
Q 40.625 37.5 40.625 33.984375 
Q 40.625 31.640625 39.640625 30.65625 
Q 38.671875 29.6875 36.71875 29.6875 
Q 35.15625 29.6875 34.171875 30.65625 
Q 33.203125 31.640625 33.203125 33.203125 
z
" id="FangSong-99"/>
      <path d="M 9.375 32.421875 
Q 9.375 38.28125 13.859375 41.40625 
Q 18.359375 44.53125 24.609375 44.53125 
Q 28.125 44.53125 31.25 43.546875 
Q 34.375 42.578125 35.546875 42.578125 
Q 36.71875 42.578125 37.5 42.96875 
Q 38.28125 43.359375 39.453125 44.53125 
L 41.015625 31.640625 
L 38.671875 31.25 
Q 37.109375 36.328125 33.390625 39.25 
Q 29.6875 42.1875 25 42.1875 
Q 19.921875 42.1875 16.984375 40.234375 
Q 14.0625 38.28125 14.0625 34.765625 
Q 14.0625 31.640625 15.421875 29.875 
Q 16.796875 28.125 20.3125 27.34375 
Q 23.046875 26.171875 27.140625 24.796875 
Q 31.25 23.4375 34.765625 21.875 
Q 37.890625 20.3125 40.03125 17.765625 
Q 42.1875 15.234375 42.1875 12.109375 
Q 42.1875 6.25 38.078125 2.921875 
Q 33.984375 -0.390625 26.171875 -0.390625 
Q 21.09375 -0.390625 18.546875 0.578125 
Q 16.015625 1.5625 14.453125 1.5625 
Q 13.28125 1.5625 11.90625 0.96875 
Q 10.546875 0.390625 8.984375 -0.390625 
L 7.8125 14.0625 
L 10.15625 14.453125 
Q 11.328125 8.203125 15.234375 5.078125 
Q 19.140625 1.953125 26.171875 1.953125 
Q 31.640625 1.953125 34.5625 3.90625 
Q 37.5 5.859375 37.5 9.765625 
Q 37.5 12.5 35.9375 14.25 
Q 34.375 16.015625 32.8125 16.796875 
Q 28.90625 18.359375 24.21875 20.109375 
Q 19.53125 21.875 16.015625 23.4375 
Q 12.5 25 10.9375 27.34375 
Q 9.375 29.6875 9.375 32.421875 
z
" id="FangSong-115"/>
      <path d="M 43.75 51.171875 
Q 43.75 43.359375 39.453125 39.0625 
Q 35.15625 34.765625 29.6875 33.984375 
L 41.40625 5.078125 
Q 42.1875 3.515625 43.15625 2.921875 
Q 44.140625 2.34375 45.3125 2.34375 
L 47.65625 2.34375 
L 47.65625 0 
L 36.71875 0 
L 23.828125 33.59375 
L 14.84375 33.59375 
L 14.84375 5.46875 
Q 14.84375 3.90625 15.8125 3.125 
Q 16.796875 2.34375 18.359375 2.34375 
L 20.703125 2.34375 
L 20.703125 0 
L 2.734375 0 
L 2.734375 2.34375 
L 5.078125 2.34375 
Q 7.03125 2.34375 7.8125 3.125 
Q 8.59375 3.90625 8.59375 5.46875 
L 8.59375 61.328125 
Q 8.59375 62.890625 7.8125 63.671875 
Q 7.03125 64.453125 5.078125 64.453125 
L 2.734375 64.453125 
L 2.734375 66.796875 
L 25 66.796875 
Q 33.984375 66.796875 38.859375 62.890625 
Q 43.75 58.984375 43.75 51.171875 
z
M 14.84375 35.9375 
L 23.4375 35.9375 
Q 29.296875 35.9375 33.203125 39.453125 
Q 37.109375 42.96875 37.109375 50.390625 
Q 37.109375 57.03125 33.59375 60.734375 
Q 30.078125 64.453125 22.65625 64.453125 
L 18.359375 64.453125 
Q 16.796875 64.453125 15.8125 63.671875 
Q 14.84375 62.890625 14.84375 61.328125 
z
" id="FangSong-82"/>
      <path d="M 23.046875 12.5 
Q 23.046875 7.03125 25 5.078125 
Q 26.953125 3.125 30.859375 3.125 
Q 34.765625 3.125 37.109375 5.65625 
Q 39.453125 8.203125 40.234375 12.890625 
L 42.1875 12.109375 
Q 41.40625 6.640625 38.078125 3.125 
Q 34.765625 -0.390625 29.296875 -0.390625 
Q 23.4375 -0.390625 20.5 3.125 
Q 17.578125 6.640625 17.578125 14.0625 
L 17.578125 41.40625 
L 5.859375 41.40625 
L 5.859375 43.75 
L 8.984375 43.75 
Q 13.671875 43.75 16.59375 46.671875 
Q 19.53125 49.609375 20.3125 55.859375 
L 20.703125 58.984375 
L 23.046875 58.984375 
L 23.046875 43.75 
L 38.671875 43.75 
L 38.671875 41.40625 
L 23.046875 41.40625 
z
" id="FangSong-116"/>
     </defs>
     <g transform="translate(425.132812 182.810625)rotate(-90)scale(0.1 -0.1)">
      <use xlink:href="#FangSong-72"/>
      <use x="50" xlink:href="#FangSong-70"/>
      <use x="100" xlink:href="#FangSong-32"/>
      <use x="150" xlink:href="#FangSong-65"/>
      <use x="200" xlink:href="#FangSong-118"/>
      <use x="250" xlink:href="#FangSong-103"/>
      <use x="300" xlink:href="#FangSong-32"/>
      <use x="350" xlink:href="#FangSong-67"/>
      <use x="400" xlink:href="#FangSong-117"/>
      <use x="450" xlink:href="#FangSong-109"/>
      <use x="500" xlink:href="#FangSong-32"/>
      <use x="550" xlink:href="#FangSong-69"/>
      <use x="600" xlink:href="#FangSong-120"/>
      <use x="650" xlink:href="#FangSong-99"/>
      <use x="700" xlink:href="#FangSong-101"/>
      <use x="750" xlink:href="#FangSong-115"/>
      <use x="800" xlink:href="#FangSong-115"/>
      <use x="850" xlink:href="#FangSong-32"/>
      <use x="900" xlink:href="#FangSong-82"/>
      <use x="950" xlink:href="#FangSong-101"/>
      <use x="1000" xlink:href="#FangSong-116"/>
     </g>
    </g>
   </g>
   <g id="line2d_24">
    <path clip-path="url(#p17dab034b6)" d="M 62.597869 31.474261 
L 113.325142 35.38517 
L 164.052415 36.372468 
L 214.779687 85.567308 
L 258.260207 229.146989 
L 366.961506 166.814041 
" style="fill:none;stroke:#ff8c00;stroke-linecap:square;stroke-width:1.5;"/>
    <defs>
     <path d="M 0 -3.5 
L -3.5 3.5 
L 3.5 3.5 
z
" id="m816235a6e2" style="stroke:#ff8c00;stroke-linejoin:miter;"/>
    </defs>
    <g clip-path="url(#p17dab034b6)">
     <use style="fill:#ff8c00;stroke:#ff8c00;stroke-linejoin:miter;" x="62.597869" xlink:href="#m816235a6e2" y="31.474261"/>
     <use style="fill:#ff8c00;stroke:#ff8c00;stroke-linejoin:miter;" x="113.325142" xlink:href="#m816235a6e2" y="35.38517"/>
     <use style="fill:#ff8c00;stroke:#ff8c00;stroke-linejoin:miter;" x="164.052415" xlink:href="#m816235a6e2" y="36.372468"/>
     <use style="fill:#ff8c00;stroke:#ff8c00;stroke-linejoin:miter;" x="214.779687" xlink:href="#m816235a6e2" y="85.567308"/>
     <use style="fill:#ff8c00;stroke:#ff8c00;stroke-linejoin:miter;" x="258.260207" xlink:href="#m816235a6e2" y="229.146989"/>
     <use style="fill:#ff8c00;stroke:#ff8c00;stroke-linejoin:miter;" x="366.961506" xlink:href="#m816235a6e2" y="166.814041"/>
    </g>
   </g>
   <g id="patch_8">
    <path d="M 47.379688 239.030625 
L 47.379688 21.590625 
" style="fill:none;stroke:#000000;stroke-linecap:square;stroke-linejoin:miter;stroke-width:0.8;"/>
   </g>
   <g id="patch_9">
    <path d="M 382.179688 239.030625 
L 382.179688 21.590625 
" style="fill:none;stroke:#000000;stroke-linecap:square;stroke-linejoin:miter;stroke-width:0.8;"/>
   </g>
   <g id="patch_10">
    <path d="M 47.379688 239.030625 
L 382.179688 239.030625 
" style="fill:none;stroke:#000000;stroke-linecap:square;stroke-linejoin:miter;stroke-width:0.8;"/>
   </g>
   <g id="patch_11">
    <path d="M 47.379688 21.590625 
L 382.179688 21.590625 
" style="fill:none;stroke:#000000;stroke-linecap:square;stroke-linejoin:miter;stroke-width:0.8;"/>
   </g>
   <g id="text_24">
    <!-- Baidu Index &amp; Excess Ret -->
    <defs>
     <path d="M 29.6875 13.671875 
Q 31.640625 16.796875 32.609375 21.28125 
Q 33.59375 25.78125 33.59375 31.25 
Q 33.59375 33.203125 32.8125 34.171875 
Q 32.03125 35.15625 30.078125 35.15625 
L 28.125 35.15625 
L 28.125 37.5 
L 43.75 37.5 
L 43.75 35.15625 
L 42.1875 35.15625 
Q 40.234375 35.15625 39.0625 33.984375 
Q 37.890625 32.8125 37.5 30.46875 
Q 36.328125 23.828125 34.953125 18.75 
Q 33.59375 13.671875 31.640625 10.9375 
Q 34.375 7.421875 36.515625 5.65625 
Q 38.671875 3.90625 40.625 3.90625 
Q 42.578125 3.90625 43.9375 5.46875 
Q 45.3125 7.03125 46.484375 10.15625 
L 48.046875 9.375 
Q 47.265625 4.296875 44.71875 1.75 
Q 42.1875 -0.78125 37.890625 -0.78125 
Q 35.9375 -0.78125 33.59375 0.78125 
Q 31.25 2.34375 28.125 5.859375 
Q 25.390625 2.34375 22.0625 0.78125 
Q 18.75 -0.78125 15.234375 -0.78125 
Q 9.765625 -0.78125 5.265625 4.296875 
Q 0.78125 9.375 0.78125 16.796875 
Q 0.78125 22.65625 3.3125 27.53125 
Q 5.859375 32.421875 10.9375 36.328125 
Q 9.765625 40.234375 8.984375 44.53125 
Q 8.203125 48.828125 8.203125 52.734375 
Q 8.203125 59.765625 11.71875 63.671875 
Q 15.234375 67.578125 19.53125 67.578125 
Q 25.390625 67.578125 27.734375 64.0625 
Q 30.078125 60.546875 30.078125 55.859375 
Q 30.078125 49.609375 26.953125 44.71875 
Q 23.828125 39.84375 17.1875 37.109375 
Q 19.921875 29.6875 23.046875 23.625 
Q 26.171875 17.578125 29.6875 13.671875 
z
M 6.640625 19.921875 
Q 6.640625 11.328125 9.765625 7.421875 
Q 12.890625 3.515625 18.359375 3.515625 
Q 20.703125 3.515625 22.65625 4.484375 
Q 24.609375 5.46875 26.171875 7.8125 
Q 21.875 12.890625 18.15625 19.71875 
Q 14.453125 26.5625 11.71875 33.984375 
Q 9.375 31.640625 8 28.125 
Q 6.640625 24.609375 6.640625 19.921875 
z
M 24.609375 56.25 
Q 24.609375 60.9375 23.625 63.078125 
Q 22.65625 65.234375 19.53125 65.234375 
Q 17.578125 65.234375 15.421875 63.078125 
Q 13.28125 60.9375 13.28125 55.078125 
Q 13.28125 51.171875 14.0625 47.0625 
Q 14.84375 42.96875 16.40625 39.453125 
Q 20.703125 41.40625 22.65625 45.890625 
Q 24.609375 50.390625 24.609375 56.25 
z
" id="FangSong-38"/>
    </defs>
    <g transform="translate(142.779688 15.590625)scale(0.12 -0.12)">
     <use xlink:href="#FangSong-66"/>
     <use x="50" xlink:href="#FangSong-97"/>
     <use x="100" xlink:href="#FangSong-105"/>
     <use x="150" xlink:href="#FangSong-100"/>
     <use x="200" xlink:href="#FangSong-117"/>
     <use x="250" xlink:href="#FangSong-32"/>
     <use x="300" xlink:href="#FangSong-73"/>
     <use x="350" xlink:href="#FangSong-110"/>
     <use x="400" xlink:href="#FangSong-100"/>
     <use x="450" xlink:href="#FangSong-101"/>
     <use x="500" xlink:href="#FangSong-120"/>
     <use x="550" xlink:href="#FangSong-32"/>
     <use x="600" xlink:href="#FangSong-38"/>
     <use x="650" xlink:href="#FangSong-32"/>
     <use x="700" xlink:href="#FangSong-69"/>
     <use x="750" xlink:href="#FangSong-120"/>
     <use x="800" xlink:href="#FangSong-99"/>
     <use x="850" xlink:href="#FangSong-101"/>
     <use x="900" xlink:href="#FangSong-115"/>
     <use x="950" xlink:href="#FangSong-115"/>
     <use x="1000" xlink:href="#FangSong-32"/>
     <use x="1050" xlink:href="#FangSong-82"/>
     <use x="1100" xlink:href="#FangSong-101"/>
     <use x="1150" xlink:href="#FangSong-116"/>
    </g>
   </g>
   <g id="legend_2">
    <g id="patch_12">
     <path d="M 54.379688 138.552813 
L 191.379687 138.552813 
Q 193.379687 138.552813 193.379687 136.552813 
L 193.379687 124.068438 
Q 193.379687 122.068438 191.379687 122.068438 
L 54.379688 122.068438 
Q 52.379688 122.068438 52.379688 124.068438 
L 52.379688 136.552813 
Q 52.379688 138.552813 54.379688 138.552813 
z
" style="fill:#ffffff;opacity:0.8;stroke:#cccccc;stroke-linejoin:miter;"/>
    </g>
    <g id="line2d_25">
     <path d="M 56.379688 129.568438 
L 76.379688 129.568438 
" style="fill:none;stroke:#ff8c00;stroke-linecap:square;stroke-width:1.5;"/>
    </g>
    <g id="line2d_26">
     <g>
      <use style="fill:#ff8c00;stroke:#ff8c00;stroke-linejoin:miter;" x="66.379688" xlink:href="#m816235a6e2" y="129.568438"/>
     </g>
    </g>
    <g id="text_25">
     <!-- HF Avg Cum Excess Ret -->
     <g transform="translate(84.379688 133.068438)scale(0.1 -0.1)">
      <use xlink:href="#FangSong-72"/>
      <use x="50" xlink:href="#FangSong-70"/>
      <use x="100" xlink:href="#FangSong-32"/>
      <use x="150" xlink:href="#FangSong-65"/>
      <use x="200" xlink:href="#FangSong-118"/>
      <use x="250" xlink:href="#FangSong-103"/>
      <use x="300" xlink:href="#FangSong-32"/>
      <use x="350" xlink:href="#FangSong-67"/>
      <use x="400" xlink:href="#FangSong-117"/>
      <use x="450" xlink:href="#FangSong-109"/>
      <use x="500" xlink:href="#FangSong-32"/>
      <use x="550" xlink:href="#FangSong-69"/>
      <use x="600" xlink:href="#FangSong-120"/>
      <use x="650" xlink:href="#FangSong-99"/>
      <use x="700" xlink:href="#FangSong-101"/>
      <use x="750" xlink:href="#FangSong-115"/>
      <use x="800" xlink:href="#FangSong-115"/>
      <use x="850" xlink:href="#FangSong-32"/>
      <use x="900" xlink:href="#FangSong-82"/>
      <use x="950" xlink:href="#FangSong-101"/>
      <use x="1000" xlink:href="#FangSong-116"/>
     </g>
    </g>
   </g>
  </g>
 </g>
 <defs>
  <clipPath id="p17dab034b6">
   <rect height="217.44" width="334.8" x="47.379688" y="21.590625"/>
  </clipPath>
 </defs>
</svg>
