<?xml version="1.0" encoding="utf-8" standalone="no"?>
<!DOCTYPE svg PUBLIC "-//W3C//DTD SVG 1.1//EN"
  "http://www.w3.org/Graphics/SVG/1.1/DTD/svg11.dtd">
<!-- Created with matplotlib (https://matplotlib.org/) -->
<svg height="276.674062pt" version="1.1" viewBox="0 0 384.4 276.674062" width="384.4pt" xmlns="http://www.w3.org/2000/svg" xmlns:xlink="http://www.w3.org/1999/xlink">
 <defs>
  <style type="text/css">
*{stroke-linecap:butt;stroke-linejoin:round;}
  </style>
 </defs>
 <g id="figure_1">
  <g id="patch_1">
   <path d="M 0 276.674062 
L 384.4 276.674062 
L 384.4 0 
L 0 0 
z
" style="fill:#ffffff;"/>
  </g>
  <g id="axes_1">
   <g id="patch_2">
    <path d="M 42.4 241.56 
L 377.2 241.56 
L 377.2 24.12 
L 42.4 24.12 
z
" style="fill:#ffffff;"/>
   </g>
   <g id="patch_3">
    <path clip-path="url(#p45f5f5e516)" d="M 46.204545 241.56 
L 53.813636 241.56 
L 53.813636 35.554599 
L 46.204545 35.554599 
z
" style="fill:#1f77b4;"/>
   </g>
   <g id="patch_4">
    <path clip-path="url(#p45f5f5e516)" d="M 61.422727 241.56 
L 69.031818 241.56 
L 69.031818 92.85898 
L 61.422727 92.85898 
z
" style="fill:#1f77b4;"/>
   </g>
   <g id="patch_5">
    <path clip-path="url(#p45f5f5e516)" d="M 76.640909 241.56 
L 84.25 241.56 
L 84.25 34.474286 
L 76.640909 34.474286 
z
" style="fill:#1f77b4;"/>
   </g>
   <g id="patch_6">
    <path clip-path="url(#p45f5f5e516)" d="M 91.859091 241.56 
L 99.468182 241.56 
L 99.468182 37.350419 
L 91.859091 37.350419 
z
" style="fill:#1f77b4;"/>
   </g>
   <g id="patch_7">
    <path clip-path="url(#p45f5f5e516)" d="M 107.077273 241.56 
L 114.686364 241.56 
L 114.686364 46.045726 
L 107.077273 46.045726 
z
" style="fill:#1f77b4;"/>
   </g>
   <g id="patch_8">
    <path clip-path="url(#p45f5f5e516)" d="M 122.295455 241.56 
L 129.904545 241.56 
L 129.904545 37.234946 
L 122.295455 37.234946 
z
" style="fill:#1f77b4;"/>
   </g>
   <g id="patch_9">
    <path clip-path="url(#p45f5f5e516)" d="M 137.513636 241.56 
L 145.122727 241.56 
L 145.122727 63.950706 
L 137.513636 63.950706 
z
" style="fill:#1f77b4;"/>
   </g>
   <g id="patch_10">
    <path clip-path="url(#p45f5f5e516)" d="M 152.731818 241.56 
L 160.340909 241.56 
L 160.340909 41.549557 
L 152.731818 41.549557 
z
" style="fill:#1f77b4;"/>
   </g>
   <g id="patch_11">
    <path clip-path="url(#p45f5f5e516)" d="M 167.95 241.56 
L 175.559091 241.56 
L 175.559091 54.215858 
L 167.95 54.215858 
z
" style="fill:#1f77b4;"/>
   </g>
   <g id="patch_12">
    <path clip-path="url(#p45f5f5e516)" d="M 183.168182 241.56 
L 190.777273 241.56 
L 190.777273 37.980886 
L 183.168182 37.980886 
z
" style="fill:#1f77b4;"/>
   </g>
   <g id="patch_13">
    <path clip-path="url(#p45f5f5e516)" d="M 198.386364 241.56 
L 205.995455 241.56 
L 205.995455 45.09535 
L 198.386364 45.09535 
z
" style="fill:#1f77b4;"/>
   </g>
   <g id="patch_14">
    <path clip-path="url(#p45f5f5e516)" d="M 213.604545 241.56 
L 221.213636 241.56 
L 221.213636 45.145172 
L 213.604545 45.145172 
z
" style="fill:#1f77b4;"/>
   </g>
   <g id="patch_15">
    <path clip-path="url(#p45f5f5e516)" d="M 228.822727 241.56 
L 236.431818 241.56 
L 236.431818 38.03993 
L 228.822727 38.03993 
z
" style="fill:#1f77b4;"/>
   </g>
   <g id="patch_16">
    <path clip-path="url(#p45f5f5e516)" d="M 244.040909 241.56 
L 251.65 241.56 
L 251.65 38.321252 
L 244.040909 38.321252 
z
" style="fill:#1f77b4;"/>
   </g>
   <g id="patch_17">
    <path clip-path="url(#p45f5f5e516)" d="M 259.259091 241.56 
L 266.868182 241.56 
L 266.868182 48.325786 
L 259.259091 48.325786 
z
" style="fill:#1f77b4;"/>
   </g>
   <g id="patch_18">
    <path clip-path="url(#p45f5f5e516)" d="M 274.477273 241.56 
L 282.086364 241.56 
L 282.086364 94.492326 
L 274.477273 94.492326 
z
" style="fill:#1f77b4;"/>
   </g>
   <g id="patch_19">
    <path clip-path="url(#p45f5f5e516)" d="M 289.695455 241.56 
L 297.304545 241.56 
L 297.304545 54.093645 
L 289.695455 54.093645 
z
" style="fill:#1f77b4;"/>
   </g>
   <g id="patch_20">
    <path clip-path="url(#p45f5f5e516)" d="M 304.913636 241.56 
L 312.522727 241.56 
L 312.522727 42.351973 
L 304.913636 42.351973 
z
" style="fill:#1f77b4;"/>
   </g>
   <g id="patch_21">
    <path clip-path="url(#p45f5f5e516)" d="M 320.131818 241.56 
L 327.740909 241.56 
L 327.740909 70.22615 
L 320.131818 70.22615 
z
" style="fill:#1f77b4;"/>
   </g>
   <g id="patch_22">
    <path clip-path="url(#p45f5f5e516)" d="M 335.35 241.56 
L 342.959091 241.56 
L 342.959091 178.072108 
L 335.35 178.072108 
z
" style="fill:#1f77b4;"/>
   </g>
   <g id="patch_23">
    <path clip-path="url(#p45f5f5e516)" d="M 350.568182 241.56 
L 358.177273 241.56 
L 358.177273 59.470094 
L 350.568182 59.470094 
z
" style="fill:#1f77b4;"/>
   </g>
   <g id="patch_24">
    <path clip-path="url(#p45f5f5e516)" d="M 365.786364 241.56 
L 373.395455 241.56 
L 373.395455 35.076954 
L 365.786364 35.076954 
z
" style="fill:#1f77b4;"/>
   </g>
   <g id="matplotlib.axis_1">
    <g id="xtick_1">
     <g id="line2d_1">
      <path clip-path="url(#p45f5f5e516)" d="M 50.009091 241.56 
L 50.009091 24.12 
" style="fill:none;stroke:#b0b0b0;stroke-linecap:square;stroke-width:0.8;"/>
     </g>
     <g id="line2d_2">
      <defs>
       <path d="M 0 0 
L 0 3.5 
" id="m10527f690b" style="stroke:#000000;stroke-width:0.8;"/>
      </defs>
      <g>
       <use style="stroke:#000000;stroke-width:0.8;" x="50.009091" xlink:href="#m10527f690b" y="241.56"/>
      </g>
     </g>
     <g id="text_1">
      <!-- 1 -->
      <defs>
       <path d="M 28.125 67.96875 
L 28.125 8.59375 
Q 28.125 5.46875 30.078125 3.90625 
Q 32.03125 2.34375 35.546875 2.34375 
L 39.453125 2.34375 
L 39.453125 0 
L 10.9375 0 
L 10.9375 2.34375 
L 14.453125 2.34375 
Q 18.359375 2.34375 20.109375 3.90625 
Q 21.875 5.46875 21.875 8.59375 
L 21.875 55.859375 
Q 21.875 57.421875 20.890625 58.390625 
Q 19.921875 59.375 17.96875 59.375 
L 10.9375 59.375 
L 10.9375 61.71875 
L 14.453125 61.71875 
Q 19.140625 61.71875 22.0625 63.28125 
Q 25 64.84375 26.5625 67.96875 
z
" id="FangSong-49"/>
      </defs>
      <g transform="translate(47.509091 255.552188)scale(0.1 -0.1)">
       <use xlink:href="#FangSong-49"/>
      </g>
     </g>
    </g>
    <g id="xtick_2">
     <g id="line2d_3">
      <path clip-path="url(#p45f5f5e516)" d="M 65.227273 241.56 
L 65.227273 24.12 
" style="fill:none;stroke:#b0b0b0;stroke-linecap:square;stroke-width:0.8;"/>
     </g>
     <g id="line2d_4">
      <g>
       <use style="stroke:#000000;stroke-width:0.8;" x="65.227273" xlink:href="#m10527f690b" y="241.56"/>
      </g>
     </g>
     <g id="text_2">
      <!-- 2 -->
      <defs>
       <path d="M 35.9375 50.390625 
Q 35.9375 57.421875 32.8125 61.125 
Q 29.6875 64.84375 23.4375 64.84375 
Q 18.75 64.84375 15.421875 62.296875 
Q 12.109375 59.765625 12.109375 55.859375 
Q 12.109375 53.515625 13.46875 51.953125 
Q 14.84375 50.390625 14.84375 48.828125 
Q 14.84375 46.875 13.859375 45.890625 
Q 12.890625 44.921875 10.9375 44.921875 
Q 8.59375 44.921875 7.21875 46.28125 
Q 5.859375 47.65625 5.859375 50.78125 
Q 5.859375 58.984375 11.71875 63.28125 
Q 17.578125 67.578125 24.21875 67.578125 
Q 33.59375 67.578125 38.078125 62.890625 
Q 42.578125 58.203125 42.578125 51.171875 
Q 42.578125 46.484375 40.421875 41.796875 
Q 38.28125 37.109375 33.59375 32.8125 
Q 22.265625 21.875 16.203125 15.03125 
Q 10.15625 8.203125 8.984375 5.859375 
L 32.03125 5.859375 
Q 35.546875 5.859375 37.890625 8.59375 
Q 40.234375 11.328125 41.015625 16.796875 
L 43.359375 16.796875 
L 41.015625 0 
L 4.6875 0 
L 4.6875 5.078125 
Q 6.640625 8.59375 11.125 14.0625 
Q 15.625 19.53125 23.046875 26.953125 
Q 29.6875 33.59375 32.8125 39.453125 
Q 35.9375 45.3125 35.9375 50.390625 
z
" id="FangSong-50"/>
      </defs>
      <g transform="translate(62.727273 255.552188)scale(0.1 -0.1)">
       <use xlink:href="#FangSong-50"/>
      </g>
     </g>
    </g>
    <g id="xtick_3">
     <g id="line2d_5">
      <path clip-path="url(#p45f5f5e516)" d="M 80.445455 241.56 
L 80.445455 24.12 
" style="fill:none;stroke:#b0b0b0;stroke-linecap:square;stroke-width:0.8;"/>
     </g>
     <g id="line2d_6">
      <g>
       <use style="stroke:#000000;stroke-width:0.8;" x="80.445455" xlink:href="#m10527f690b" y="241.56"/>
      </g>
     </g>
     <g id="text_3">
      <!-- 3 -->
      <defs>
       <path d="M 43.359375 17.96875 
Q 43.359375 10.546875 37.890625 4.875 
Q 32.421875 -0.78125 22.65625 -0.78125 
Q 15.625 -0.78125 10.546875 3.125 
Q 5.46875 7.03125 5.46875 12.109375 
Q 5.46875 14.453125 7.03125 16.203125 
Q 8.59375 17.96875 10.15625 17.96875 
Q 12.5 17.96875 13.46875 16.203125 
Q 14.453125 14.453125 14.453125 13.28125 
Q 14.453125 11.328125 13.671875 9.953125 
Q 12.890625 8.59375 12.890625 7.421875 
Q 12.890625 5.078125 15.8125 3.515625 
Q 18.75 1.953125 22.265625 1.953125 
Q 29.296875 1.953125 32.8125 6.046875 
Q 36.328125 10.15625 36.328125 18.75 
Q 36.328125 25.78125 32.609375 30.078125 
Q 28.90625 34.375 18.75 34.375 
L 18.75 37.109375 
Q 26.5625 37.109375 30.265625 40.8125 
Q 33.984375 44.53125 33.984375 51.171875 
Q 33.984375 56.640625 31.046875 60.734375 
Q 28.125 64.84375 21.875 64.84375 
Q 19.140625 64.84375 16.015625 63.46875 
Q 12.890625 62.109375 12.890625 58.984375 
Q 12.890625 55.859375 13.671875 55.078125 
Q 14.453125 54.296875 14.453125 53.125 
Q 14.453125 51.171875 13.671875 50 
Q 12.890625 48.828125 10.9375 48.828125 
Q 9.375 48.828125 8 50 
Q 6.640625 51.171875 6.640625 54.296875 
Q 6.640625 60.15625 11.71875 63.859375 
Q 16.796875 67.578125 23.4375 67.578125 
Q 31.25 67.578125 35.9375 62.6875 
Q 40.625 57.8125 40.625 52.34375 
Q 40.625 46.484375 37.6875 42.375 
Q 34.765625 38.28125 28.515625 36.328125 
Q 37.109375 33.203125 40.234375 28.125 
Q 43.359375 23.046875 43.359375 17.96875 
z
" id="FangSong-51"/>
      </defs>
      <g transform="translate(77.945455 255.552188)scale(0.1 -0.1)">
       <use xlink:href="#FangSong-51"/>
      </g>
     </g>
    </g>
    <g id="xtick_4">
     <g id="line2d_7">
      <path clip-path="url(#p45f5f5e516)" d="M 95.663636 241.56 
L 95.663636 24.12 
" style="fill:none;stroke:#b0b0b0;stroke-linecap:square;stroke-width:0.8;"/>
     </g>
     <g id="line2d_8">
      <g>
       <use style="stroke:#000000;stroke-width:0.8;" x="95.663636" xlink:href="#m10527f690b" y="241.56"/>
      </g>
     </g>
     <g id="text_4">
      <!-- 4 -->
      <defs>
       <path d="M 35.546875 7.421875 
Q 35.546875 4.6875 37.109375 3.515625 
Q 38.671875 2.34375 41.40625 2.34375 
L 44.921875 2.34375 
L 44.921875 0 
L 19.140625 0 
L 19.140625 2.34375 
L 23.4375 2.34375 
Q 26.5625 2.34375 27.921875 3.515625 
Q 29.296875 4.6875 29.296875 7.421875 
L 29.296875 20.3125 
L 3.125 20.3125 
L 3.125 22.265625 
L 31.640625 67.578125 
L 35.546875 67.578125 
L 35.546875 22.65625 
L 46.09375 22.65625 
L 46.09375 20.3125 
L 35.546875 20.3125 
z
M 28.90625 57.8125 
L 6.640625 22.65625 
L 29.296875 22.65625 
L 29.296875 57.8125 
z
" id="FangSong-52"/>
      </defs>
      <g transform="translate(93.163636 255.552188)scale(0.1 -0.1)">
       <use xlink:href="#FangSong-52"/>
      </g>
     </g>
    </g>
    <g id="xtick_5">
     <g id="line2d_9">
      <path clip-path="url(#p45f5f5e516)" d="M 110.881818 241.56 
L 110.881818 24.12 
" style="fill:none;stroke:#b0b0b0;stroke-linecap:square;stroke-width:0.8;"/>
     </g>
     <g id="line2d_10">
      <g>
       <use style="stroke:#000000;stroke-width:0.8;" x="110.881818" xlink:href="#m10527f690b" y="241.56"/>
      </g>
     </g>
     <g id="text_5">
      <!-- 5 -->
      <defs>
       <path d="M 26.5625 42.96875 
Q 33.984375 42.96875 38.671875 37.296875 
Q 43.359375 31.640625 43.359375 22.265625 
Q 43.359375 11.71875 38.46875 5.46875 
Q 33.59375 -0.78125 23.4375 -0.78125 
Q 16.40625 -0.78125 10.9375 3.3125 
Q 5.46875 7.421875 5.46875 13.28125 
Q 5.46875 15.625 6.828125 17.375 
Q 8.203125 19.140625 10.546875 19.140625 
Q 12.890625 19.140625 13.671875 17.578125 
Q 14.453125 16.015625 14.453125 14.84375 
Q 14.453125 12.5 13.28125 11.125 
Q 12.109375 9.765625 12.109375 8.203125 
Q 12.109375 5.078125 15.8125 3.515625 
Q 19.53125 1.953125 23.828125 1.953125 
Q 30.078125 1.953125 33.390625 7.03125 
Q 36.71875 12.109375 36.71875 21.484375 
Q 36.71875 29.296875 33.78125 34.171875 
Q 30.859375 39.0625 25 39.0625 
Q 20.703125 39.0625 17.578125 37.5 
Q 14.453125 35.9375 11.71875 30.859375 
L 8.203125 31.25 
L 10.15625 66.796875 
L 42.1875 66.796875 
L 41.015625 60.9375 
L 12.890625 60.9375 
L 11.328125 35.15625 
Q 15.234375 40.625 18.9375 41.796875 
Q 22.65625 42.96875 26.5625 42.96875 
z
" id="FangSong-53"/>
      </defs>
      <g transform="translate(108.381818 255.552188)scale(0.1 -0.1)">
       <use xlink:href="#FangSong-53"/>
      </g>
     </g>
    </g>
    <g id="xtick_6">
     <g id="line2d_11">
      <path clip-path="url(#p45f5f5e516)" d="M 126.1 241.56 
L 126.1 24.12 
" style="fill:none;stroke:#b0b0b0;stroke-linecap:square;stroke-width:0.8;"/>
     </g>
     <g id="line2d_12">
      <g>
       <use style="stroke:#000000;stroke-width:0.8;" x="126.1" xlink:href="#m10527f690b" y="241.56"/>
      </g>
     </g>
     <g id="text_6">
      <!-- 6 -->
      <defs>
       <path d="M 11.71875 26.5625 
Q 11.71875 14.84375 15.8125 8.390625 
Q 19.921875 1.953125 25.78125 1.953125 
Q 31.640625 1.953125 34.765625 6.25 
Q 37.890625 10.546875 37.890625 22.265625 
Q 37.890625 30.078125 34.5625 34.375 
Q 31.25 38.671875 26.5625 38.671875 
Q 22.265625 38.671875 18.546875 36.125 
Q 14.84375 33.59375 11.71875 26.5625 
z
M 26.953125 42.578125 
Q 36.328125 42.578125 40.421875 36.328125 
Q 44.53125 30.078125 44.53125 22.265625 
Q 44.53125 10.546875 38.859375 4.875 
Q 33.203125 -0.78125 25.78125 -0.78125 
Q 15.234375 -0.78125 9.765625 7.21875 
Q 4.296875 15.234375 4.296875 30.46875 
Q 4.296875 48.4375 10.9375 58 
Q 17.578125 67.578125 28.90625 67.578125 
Q 34.375 67.578125 37.6875 64.453125 
Q 41.015625 61.328125 41.015625 58.984375 
Q 41.015625 56.640625 40.03125 55.46875 
Q 39.0625 54.296875 36.71875 54.296875 
Q 34.765625 54.296875 33.78125 55.265625 
Q 32.8125 56.25 32.8125 58.203125 
Q 32.8125 58.984375 33 59.765625 
Q 33.203125 60.546875 33.203125 61.328125 
Q 33.203125 62.890625 32.03125 63.859375 
Q 30.859375 64.84375 27.734375 64.84375 
Q 21.09375 64.84375 16.40625 58.78125 
Q 11.71875 52.734375 11.71875 32.421875 
Q 14.0625 37.5 18.15625 40.03125 
Q 22.265625 42.578125 26.953125 42.578125 
z
" id="FangSong-54"/>
      </defs>
      <g transform="translate(123.6 255.552188)scale(0.1 -0.1)">
       <use xlink:href="#FangSong-54"/>
      </g>
     </g>
    </g>
    <g id="xtick_7">
     <g id="line2d_13">
      <path clip-path="url(#p45f5f5e516)" d="M 141.318182 241.56 
L 141.318182 24.12 
" style="fill:none;stroke:#b0b0b0;stroke-linecap:square;stroke-width:0.8;"/>
     </g>
     <g id="line2d_14">
      <g>
       <use style="stroke:#000000;stroke-width:0.8;" x="141.318182" xlink:href="#m10527f690b" y="241.56"/>
      </g>
     </g>
     <g id="text_7">
      <!-- 7 -->
      <defs>
       <path d="M 43.75 64.0625 
Q 35.546875 50.78125 30.65625 38.078125 
Q 25.78125 25.390625 25.78125 16.015625 
Q 25.78125 14.453125 25.96875 11.515625 
Q 26.171875 8.59375 26.171875 4.6875 
Q 26.171875 1.5625 25.1875 0.390625 
Q 24.21875 -0.78125 21.875 -0.78125 
Q 19.921875 -0.78125 18.546875 0.578125 
Q 17.1875 1.953125 17.1875 5.46875 
Q 17.1875 12.890625 20.5 23.828125 
Q 23.828125 34.765625 38.28125 60.9375 
L 18.75 60.9375 
Q 14.453125 60.9375 11.90625 58.203125 
Q 9.375 55.46875 8.203125 50 
L 5.859375 50.390625 
L 8.59375 66.796875 
L 43.75 66.796875 
z
" id="FangSong-55"/>
      </defs>
      <g transform="translate(138.818182 255.552188)scale(0.1 -0.1)">
       <use xlink:href="#FangSong-55"/>
      </g>
     </g>
    </g>
    <g id="xtick_8">
     <g id="line2d_15">
      <path clip-path="url(#p45f5f5e516)" d="M 156.536364 241.56 
L 156.536364 24.12 
" style="fill:none;stroke:#b0b0b0;stroke-linecap:square;stroke-width:0.8;"/>
     </g>
     <g id="line2d_16">
      <g>
       <use style="stroke:#000000;stroke-width:0.8;" x="156.536364" xlink:href="#m10527f690b" y="241.56"/>
      </g>
     </g>
     <g id="text_8">
      <!-- 8 -->
      <defs>
       <path d="M 9.375 16.015625 
Q 9.375 9.765625 13.46875 5.859375 
Q 17.578125 1.953125 23.828125 1.953125 
Q 31.25 1.953125 34.5625 5.859375 
Q 37.890625 9.765625 37.890625 15.625 
Q 37.890625 20.703125 33.203125 25.390625 
Q 28.515625 30.078125 19.140625 33.984375 
Q 14.453125 30.859375 11.90625 26.171875 
Q 9.375 21.484375 9.375 16.015625 
z
M 43.75 16.796875 
Q 43.75 9.375 38.28125 4.296875 
Q 32.8125 -0.78125 23.828125 -0.78125 
Q 15.625 -0.78125 9.765625 4.296875 
Q 3.90625 9.375 3.90625 16.015625 
Q 3.90625 22.65625 7.21875 27.34375 
Q 10.546875 32.03125 16.796875 35.546875 
Q 11.328125 38.28125 8.390625 42.375 
Q 5.46875 46.484375 5.46875 51.5625 
Q 5.46875 58.203125 10.546875 62.890625 
Q 15.625 67.578125 24.609375 67.578125 
Q 32.8125 67.578125 37.890625 62.890625 
Q 42.96875 58.203125 42.96875 51.5625 
Q 42.96875 46.875 40.03125 42.765625 
Q 37.109375 38.671875 30.859375 35.546875 
Q 37.5 31.640625 40.625 26.953125 
Q 43.75 22.265625 43.75 16.796875 
z
M 37.5 51.171875 
Q 37.5 56.640625 34.375 60.734375 
Q 31.25 64.84375 24.609375 64.84375 
Q 17.1875 64.84375 14.0625 60.9375 
Q 10.9375 57.03125 10.9375 52.734375 
Q 10.9375 48.4375 15.421875 44.328125 
Q 19.921875 40.234375 28.125 37.109375 
Q 32.8125 39.453125 35.15625 42.96875 
Q 37.5 46.484375 37.5 51.171875 
z
" id="FangSong-56"/>
      </defs>
      <g transform="translate(154.036364 255.552188)scale(0.1 -0.1)">
       <use xlink:href="#FangSong-56"/>
      </g>
     </g>
    </g>
    <g id="xtick_9">
     <g id="line2d_17">
      <path clip-path="url(#p45f5f5e516)" d="M 171.754545 241.56 
L 171.754545 24.12 
" style="fill:none;stroke:#b0b0b0;stroke-linecap:square;stroke-width:0.8;"/>
     </g>
     <g id="line2d_18">
      <g>
       <use style="stroke:#000000;stroke-width:0.8;" x="171.754545" xlink:href="#m10527f690b" y="241.56"/>
      </g>
     </g>
     <g id="text_9">
      <!-- 9 -->
      <defs>
       <path d="M 10.546875 46.09375 
Q 10.546875 37.5 13.859375 33 
Q 17.1875 28.515625 22.265625 28.515625 
Q 28.125 28.515625 32.421875 33.984375 
Q 36.71875 39.453125 36.71875 44.140625 
Q 36.71875 53.515625 33.59375 59.171875 
Q 30.46875 64.84375 23.4375 64.84375 
Q 16.796875 64.84375 13.671875 59.5625 
Q 10.546875 54.296875 10.546875 46.09375 
z
M 21.09375 25 
Q 13.28125 25 8.59375 29.875 
Q 3.90625 34.765625 3.90625 45.703125 
Q 3.90625 55.078125 8.984375 61.328125 
Q 14.0625 67.578125 23.4375 67.578125 
Q 33.203125 67.578125 38.671875 59.765625 
Q 44.140625 51.953125 44.140625 37.109375 
Q 44.140625 20.703125 37.6875 9.953125 
Q 31.25 -0.78125 19.921875 -0.78125 
Q 14.84375 -0.78125 11.125 1.5625 
Q 7.421875 3.90625 7.421875 7.8125 
Q 7.421875 9.375 8.390625 10.9375 
Q 9.375 12.5 11.71875 12.5 
Q 14.0625 12.5 14.84375 10.734375 
Q 15.625 8.984375 15.625 6.640625 
Q 15.625 5.078125 16.015625 4.09375 
Q 16.40625 3.125 16.796875 2.734375 
Q 17.1875 2.34375 18.15625 2.140625 
Q 19.140625 1.953125 20.3125 1.953125 
Q 27.34375 1.953125 31.640625 9.765625 
Q 35.9375 17.578125 36.71875 35.9375 
Q 34.765625 31.25 30.859375 28.125 
Q 26.953125 25 21.09375 25 
z
" id="FangSong-57"/>
      </defs>
      <g transform="translate(169.254545 255.552188)scale(0.1 -0.1)">
       <use xlink:href="#FangSong-57"/>
      </g>
     </g>
    </g>
    <g id="xtick_10">
     <g id="line2d_19">
      <path clip-path="url(#p45f5f5e516)" d="M 186.972727 241.56 
L 186.972727 24.12 
" style="fill:none;stroke:#b0b0b0;stroke-linecap:square;stroke-width:0.8;"/>
     </g>
     <g id="line2d_20">
      <g>
       <use style="stroke:#000000;stroke-width:0.8;" x="186.972727" xlink:href="#m10527f690b" y="241.56"/>
      </g>
     </g>
     <g id="text_10">
      <!-- 10 -->
      <defs>
       <path d="M 24.609375 64.453125 
Q 19.140625 64.453125 15.421875 56.046875 
Q 11.71875 47.65625 11.71875 33.59375 
Q 11.71875 18.75 15.421875 10.546875 
Q 19.140625 2.34375 24.609375 2.34375 
Q 30.46875 2.34375 33.78125 10.546875 
Q 37.109375 18.75 37.109375 33.59375 
Q 37.109375 47.65625 33.984375 56.046875 
Q 30.859375 64.453125 24.609375 64.453125 
z
M 24.609375 -0.78125 
Q 16.015625 -0.78125 10.15625 8.203125 
Q 4.296875 17.1875 4.296875 33.59375 
Q 4.296875 48.828125 9.953125 58.203125 
Q 15.625 67.578125 24.609375 67.578125 
Q 33.203125 67.578125 38.859375 58.59375 
Q 44.53125 49.609375 44.53125 33.59375 
Q 44.53125 17.578125 38.859375 8.390625 
Q 33.203125 -0.78125 24.609375 -0.78125 
z
" id="FangSong-48"/>
      </defs>
      <g transform="translate(181.972727 255.552188)scale(0.1 -0.1)">
       <use xlink:href="#FangSong-49"/>
       <use x="50" xlink:href="#FangSong-48"/>
      </g>
     </g>
    </g>
    <g id="xtick_11">
     <g id="line2d_21">
      <path clip-path="url(#p45f5f5e516)" d="M 202.190909 241.56 
L 202.190909 24.12 
" style="fill:none;stroke:#b0b0b0;stroke-linecap:square;stroke-width:0.8;"/>
     </g>
     <g id="line2d_22">
      <g>
       <use style="stroke:#000000;stroke-width:0.8;" x="202.190909" xlink:href="#m10527f690b" y="241.56"/>
      </g>
     </g>
     <g id="text_11">
      <!-- 11 -->
      <g transform="translate(197.190909 255.552188)scale(0.1 -0.1)">
       <use xlink:href="#FangSong-49"/>
       <use x="50" xlink:href="#FangSong-49"/>
      </g>
     </g>
    </g>
    <g id="xtick_12">
     <g id="line2d_23">
      <path clip-path="url(#p45f5f5e516)" d="M 217.409091 241.56 
L 217.409091 24.12 
" style="fill:none;stroke:#b0b0b0;stroke-linecap:square;stroke-width:0.8;"/>
     </g>
     <g id="line2d_24">
      <g>
       <use style="stroke:#000000;stroke-width:0.8;" x="217.409091" xlink:href="#m10527f690b" y="241.56"/>
      </g>
     </g>
     <g id="text_12">
      <!-- 12 -->
      <g transform="translate(212.409091 255.552188)scale(0.1 -0.1)">
       <use xlink:href="#FangSong-49"/>
       <use x="50" xlink:href="#FangSong-50"/>
      </g>
     </g>
    </g>
    <g id="xtick_13">
     <g id="line2d_25">
      <path clip-path="url(#p45f5f5e516)" d="M 232.627273 241.56 
L 232.627273 24.12 
" style="fill:none;stroke:#b0b0b0;stroke-linecap:square;stroke-width:0.8;"/>
     </g>
     <g id="line2d_26">
      <g>
       <use style="stroke:#000000;stroke-width:0.8;" x="232.627273" xlink:href="#m10527f690b" y="241.56"/>
      </g>
     </g>
     <g id="text_13">
      <!-- 13 -->
      <g transform="translate(227.627273 255.552188)scale(0.1 -0.1)">
       <use xlink:href="#FangSong-49"/>
       <use x="50" xlink:href="#FangSong-51"/>
      </g>
     </g>
    </g>
    <g id="xtick_14">
     <g id="line2d_27">
      <path clip-path="url(#p45f5f5e516)" d="M 247.845455 241.56 
L 247.845455 24.12 
" style="fill:none;stroke:#b0b0b0;stroke-linecap:square;stroke-width:0.8;"/>
     </g>
     <g id="line2d_28">
      <g>
       <use style="stroke:#000000;stroke-width:0.8;" x="247.845455" xlink:href="#m10527f690b" y="241.56"/>
      </g>
     </g>
     <g id="text_14">
      <!-- 14 -->
      <g transform="translate(242.845455 255.552188)scale(0.1 -0.1)">
       <use xlink:href="#FangSong-49"/>
       <use x="50" xlink:href="#FangSong-52"/>
      </g>
     </g>
    </g>
    <g id="xtick_15">
     <g id="line2d_29">
      <path clip-path="url(#p45f5f5e516)" d="M 263.063636 241.56 
L 263.063636 24.12 
" style="fill:none;stroke:#b0b0b0;stroke-linecap:square;stroke-width:0.8;"/>
     </g>
     <g id="line2d_30">
      <g>
       <use style="stroke:#000000;stroke-width:0.8;" x="263.063636" xlink:href="#m10527f690b" y="241.56"/>
      </g>
     </g>
     <g id="text_15">
      <!-- 15 -->
      <g transform="translate(258.063636 255.552188)scale(0.1 -0.1)">
       <use xlink:href="#FangSong-49"/>
       <use x="50" xlink:href="#FangSong-53"/>
      </g>
     </g>
    </g>
    <g id="xtick_16">
     <g id="line2d_31">
      <path clip-path="url(#p45f5f5e516)" d="M 278.281818 241.56 
L 278.281818 24.12 
" style="fill:none;stroke:#b0b0b0;stroke-linecap:square;stroke-width:0.8;"/>
     </g>
     <g id="line2d_32">
      <g>
       <use style="stroke:#000000;stroke-width:0.8;" x="278.281818" xlink:href="#m10527f690b" y="241.56"/>
      </g>
     </g>
     <g id="text_16">
      <!-- 16 -->
      <g transform="translate(273.281818 255.552188)scale(0.1 -0.1)">
       <use xlink:href="#FangSong-49"/>
       <use x="50" xlink:href="#FangSong-54"/>
      </g>
     </g>
    </g>
    <g id="xtick_17">
     <g id="line2d_33">
      <path clip-path="url(#p45f5f5e516)" d="M 293.5 241.56 
L 293.5 24.12 
" style="fill:none;stroke:#b0b0b0;stroke-linecap:square;stroke-width:0.8;"/>
     </g>
     <g id="line2d_34">
      <g>
       <use style="stroke:#000000;stroke-width:0.8;" x="293.5" xlink:href="#m10527f690b" y="241.56"/>
      </g>
     </g>
     <g id="text_17">
      <!-- 17 -->
      <g transform="translate(288.5 255.552188)scale(0.1 -0.1)">
       <use xlink:href="#FangSong-49"/>
       <use x="50" xlink:href="#FangSong-55"/>
      </g>
     </g>
    </g>
    <g id="xtick_18">
     <g id="line2d_35">
      <path clip-path="url(#p45f5f5e516)" d="M 308.718182 241.56 
L 308.718182 24.12 
" style="fill:none;stroke:#b0b0b0;stroke-linecap:square;stroke-width:0.8;"/>
     </g>
     <g id="line2d_36">
      <g>
       <use style="stroke:#000000;stroke-width:0.8;" x="308.718182" xlink:href="#m10527f690b" y="241.56"/>
      </g>
     </g>
     <g id="text_18">
      <!-- 18 -->
      <g transform="translate(303.718182 255.552188)scale(0.1 -0.1)">
       <use xlink:href="#FangSong-49"/>
       <use x="50" xlink:href="#FangSong-56"/>
      </g>
     </g>
    </g>
    <g id="xtick_19">
     <g id="line2d_37">
      <path clip-path="url(#p45f5f5e516)" d="M 323.936364 241.56 
L 323.936364 24.12 
" style="fill:none;stroke:#b0b0b0;stroke-linecap:square;stroke-width:0.8;"/>
     </g>
     <g id="line2d_38">
      <g>
       <use style="stroke:#000000;stroke-width:0.8;" x="323.936364" xlink:href="#m10527f690b" y="241.56"/>
      </g>
     </g>
     <g id="text_19">
      <!-- 19 -->
      <g transform="translate(318.936364 255.552188)scale(0.1 -0.1)">
       <use xlink:href="#FangSong-49"/>
       <use x="50" xlink:href="#FangSong-57"/>
      </g>
     </g>
    </g>
    <g id="xtick_20">
     <g id="line2d_39">
      <path clip-path="url(#p45f5f5e516)" d="M 339.154545 241.56 
L 339.154545 24.12 
" style="fill:none;stroke:#b0b0b0;stroke-linecap:square;stroke-width:0.8;"/>
     </g>
     <g id="line2d_40">
      <g>
       <use style="stroke:#000000;stroke-width:0.8;" x="339.154545" xlink:href="#m10527f690b" y="241.56"/>
      </g>
     </g>
     <g id="text_20">
      <!-- 20 -->
      <g transform="translate(334.154545 255.552188)scale(0.1 -0.1)">
       <use xlink:href="#FangSong-50"/>
       <use x="50" xlink:href="#FangSong-48"/>
      </g>
     </g>
    </g>
    <g id="xtick_21">
     <g id="line2d_41">
      <path clip-path="url(#p45f5f5e516)" d="M 354.372727 241.56 
L 354.372727 24.12 
" style="fill:none;stroke:#b0b0b0;stroke-linecap:square;stroke-width:0.8;"/>
     </g>
     <g id="line2d_42">
      <g>
       <use style="stroke:#000000;stroke-width:0.8;" x="354.372727" xlink:href="#m10527f690b" y="241.56"/>
      </g>
     </g>
     <g id="text_21">
      <!-- 21 -->
      <g transform="translate(349.372727 255.552188)scale(0.1 -0.1)">
       <use xlink:href="#FangSong-50"/>
       <use x="50" xlink:href="#FangSong-49"/>
      </g>
     </g>
    </g>
    <g id="xtick_22">
     <g id="line2d_43">
      <path clip-path="url(#p45f5f5e516)" d="M 369.590909 241.56 
L 369.590909 24.12 
" style="fill:none;stroke:#b0b0b0;stroke-linecap:square;stroke-width:0.8;"/>
     </g>
     <g id="line2d_44">
      <g>
       <use style="stroke:#000000;stroke-width:0.8;" x="369.590909" xlink:href="#m10527f690b" y="241.56"/>
      </g>
     </g>
     <g id="text_22">
      <!-- 22 -->
      <g transform="translate(364.590909 255.552188)scale(0.1 -0.1)">
       <use xlink:href="#FangSong-50"/>
       <use x="50" xlink:href="#FangSong-50"/>
      </g>
     </g>
    </g>
    <g id="text_23">
     <!-- Hedge Fund -->
     <defs>
      <path d="M 42.1875 5.46875 
Q 42.1875 3.90625 43.15625 3.125 
Q 44.140625 2.34375 45.703125 2.34375 
L 47.65625 2.34375 
L 47.65625 0 
L 30.46875 0 
L 30.46875 2.34375 
L 32.421875 2.34375 
Q 34.375 2.34375 35.15625 3.125 
Q 35.9375 3.90625 35.9375 5.46875 
L 35.9375 33.984375 
L 12.890625 33.984375 
L 12.890625 5.46875 
Q 12.890625 3.90625 13.859375 3.125 
Q 14.84375 2.34375 16.40625 2.34375 
L 18.359375 2.34375 
L 18.359375 0 
L 1.171875 0 
L 1.171875 2.34375 
L 3.125 2.34375 
Q 5.078125 2.34375 5.859375 3.125 
Q 6.640625 3.90625 6.640625 5.46875 
L 6.640625 61.328125 
Q 6.640625 62.890625 5.859375 63.671875 
Q 5.078125 64.453125 3.125 64.453125 
L 1.5625 64.453125 
L 1.5625 66.796875 
L 17.96875 66.796875 
L 17.96875 64.453125 
L 16.40625 64.453125 
Q 14.84375 64.453125 13.859375 63.671875 
Q 12.890625 62.890625 12.890625 61.328125 
L 12.890625 36.328125 
L 35.9375 36.328125 
L 35.9375 61.328125 
Q 35.9375 62.890625 35.15625 63.671875 
Q 34.375 64.453125 32.421875 64.453125 
L 30.859375 64.453125 
L 30.859375 66.796875 
L 47.265625 66.796875 
L 47.265625 64.453125 
L 45.703125 64.453125 
Q 44.140625 64.453125 43.15625 63.671875 
Q 42.1875 62.890625 42.1875 61.328125 
z
" id="FangSong-72"/>
      <path d="M 37.109375 24.21875 
Q 37.5 32.8125 34.171875 37.296875 
Q 30.859375 41.796875 25.390625 41.796875 
Q 19.53125 41.796875 15.8125 37.109375 
Q 12.109375 32.421875 12.109375 24.21875 
z
M 12.109375 21.875 
Q 12.109375 11.328125 16.203125 6.828125 
Q 20.3125 2.34375 26.953125 2.34375 
Q 32.03125 2.34375 35.546875 5.265625 
Q 39.0625 8.203125 40.625 12.5 
L 42.578125 11.71875 
Q 41.40625 7.421875 37.296875 3.3125 
Q 33.203125 -0.78125 26.171875 -0.78125 
Q 17.1875 -0.78125 11.515625 5.078125 
Q 5.859375 10.9375 5.859375 21.875 
Q 5.859375 31.640625 11.515625 38.078125 
Q 17.1875 44.53125 25.390625 44.53125 
Q 32.8125 44.53125 38.28125 39.453125 
Q 43.75 34.375 43.75 21.875 
z
" id="FangSong-101"/>
      <path d="M 35.546875 35.15625 
Q 33.59375 38.28125 30.46875 39.640625 
Q 27.34375 41.015625 24.21875 41.015625 
Q 18.359375 41.015625 15.03125 35.546875 
Q 11.71875 30.078125 11.71875 21.09375 
Q 11.71875 11.71875 14.84375 7.21875 
Q 17.96875 2.734375 23.828125 2.734375 
Q 28.125 2.734375 31.046875 5.46875 
Q 33.984375 8.203125 35.546875 13.671875 
z
M 22.65625 -0.390625 
Q 15.625 -0.390625 10.546875 5.265625 
Q 5.46875 10.9375 5.46875 21.875 
Q 5.46875 32.03125 10.9375 38.078125 
Q 16.40625 44.140625 23.828125 44.140625 
Q 26.953125 44.140625 30.265625 42.765625 
Q 33.59375 41.40625 35.546875 38.671875 
L 35.546875 59.765625 
Q 35.546875 62.109375 34.765625 63.28125 
Q 33.984375 64.453125 32.03125 64.453125 
L 28.90625 64.453125 
L 28.90625 66.796875 
L 33.203125 66.796875 
Q 35.15625 66.796875 37.109375 67.578125 
Q 39.0625 68.359375 41.015625 69.921875 
L 41.015625 8.203125 
Q 41.015625 6.25 41.796875 5.46875 
Q 42.578125 4.6875 44.140625 4.6875 
L 46.875 4.6875 
L 46.875 2.34375 
L 44.53125 2.34375 
Q 42.96875 2.34375 40.8125 1.75 
Q 38.671875 1.171875 36.328125 0 
L 35.546875 0 
L 35.546875 7.421875 
Q 33.59375 3.90625 30.265625 1.75 
Q 26.953125 -0.390625 22.65625 -0.390625 
z
" id="FangSong-100"/>
      <path d="M 13.28125 29.296875 
Q 13.28125 24.609375 16.015625 21.28125 
Q 18.75 17.96875 23.4375 17.96875 
Q 28.515625 17.96875 31.046875 20.890625 
Q 33.59375 23.828125 33.59375 29.296875 
Q 33.59375 35.9375 30.65625 38.859375 
Q 27.734375 41.796875 23.4375 41.796875 
Q 19.140625 41.796875 16.203125 38.859375 
Q 13.28125 35.9375 13.28125 29.296875 
z
M 32.421875 8.203125 
Q 38.28125 7.421875 41.015625 4.875 
Q 43.75 2.34375 43.75 -1.953125 
Q 43.75 -7.8125 38.859375 -11.328125 
Q 33.984375 -14.84375 23.4375 -14.84375 
Q 15.234375 -14.84375 10.15625 -11.515625 
Q 5.078125 -8.203125 5.078125 -3.90625 
Q 5.078125 -1.171875 7.03125 1.5625 
Q 8.984375 4.296875 13.28125 5.859375 
Q 10.9375 7.03125 9.5625 8.390625 
Q 8.203125 9.765625 8.203125 11.71875 
Q 8.203125 14.0625 9.765625 15.8125 
Q 11.328125 17.578125 13.671875 18.75 
Q 11.328125 20.703125 9.5625 23.4375 
Q 7.8125 26.171875 7.8125 29.296875 
Q 7.8125 35.15625 11.90625 39.640625 
Q 16.015625 44.140625 23.4375 44.140625 
Q 26.5625 44.140625 29.484375 43.359375 
Q 32.421875 42.578125 34.375 40.625 
Q 37.109375 42.578125 39.25 43.546875 
Q 41.40625 44.53125 42.96875 44.53125 
Q 44.921875 44.53125 45.703125 43.15625 
Q 46.484375 41.796875 46.484375 40.625 
Q 46.484375 39.0625 45.890625 38.078125 
Q 45.3125 37.109375 43.75 37.109375 
Q 42.578125 37.109375 41.796875 37.6875 
Q 41.015625 38.28125 40.625 39.453125 
Q 40.234375 40.625 38.859375 40.421875 
Q 37.5 40.234375 35.9375 39.0625 
Q 37.5 37.5 38.28125 34.765625 
Q 39.0625 32.03125 39.0625 29.296875 
Q 39.0625 24.609375 35.34375 20.109375 
Q 31.640625 15.625 23.4375 15.625 
Q 21.09375 15.625 19.140625 16.203125 
Q 17.1875 16.796875 16.015625 17.578125 
Q 14.453125 16.796875 13.671875 15.625 
Q 12.890625 14.453125 12.890625 13.671875 
Q 12.890625 12.109375 13.671875 11.328125 
Q 14.453125 10.546875 16.015625 10.546875 
Q 21.09375 9.765625 25.1875 9.171875 
Q 29.296875 8.59375 32.421875 8.203125 
z
M 16.40625 5.078125 
Q 12.890625 3.515625 11.515625 1.359375 
Q 10.15625 -0.78125 10.15625 -3.90625 
Q 10.15625 -7.03125 13.671875 -9.765625 
Q 17.1875 -12.5 24.21875 -12.5 
Q 30.859375 -12.5 34.765625 -10.34375 
Q 38.671875 -8.203125 38.671875 -3.90625 
Q 38.671875 -1.171875 37.6875 0.390625 
Q 36.71875 1.953125 34.765625 2.34375 
Q 30.859375 3.125 26.171875 3.703125 
Q 21.484375 4.296875 16.40625 5.078125 
z
" id="FangSong-103"/>
      <path id="FangSong-32"/>
      <path d="M 20.703125 2.34375 
L 20.703125 0 
L 1.953125 0 
L 1.953125 2.34375 
L 4.6875 2.34375 
Q 6.640625 2.34375 7.421875 3.125 
Q 8.203125 3.90625 8.203125 5.46875 
L 8.203125 61.328125 
Q 8.203125 62.890625 7.421875 63.671875 
Q 6.640625 64.453125 4.6875 64.453125 
L 2.34375 64.453125 
L 2.34375 66.796875 
L 42.96875 66.796875 
L 47.65625 52.734375 
L 45.703125 51.953125 
Q 42.578125 58.203125 38.28125 61.328125 
Q 33.984375 64.453125 28.90625 64.453125 
L 17.96875 64.453125 
Q 16.40625 64.453125 15.421875 63.671875 
Q 14.453125 62.890625 14.453125 61.328125 
L 14.453125 36.328125 
L 27.34375 36.328125 
Q 31.25 36.328125 33 38.078125 
Q 34.765625 39.84375 34.765625 43.75 
L 34.765625 45.703125 
L 37.109375 45.703125 
L 37.109375 23.046875 
L 34.765625 23.046875 
L 34.765625 24.609375 
Q 34.765625 29.296875 33 31.640625 
Q 31.25 33.984375 27.34375 33.984375 
L 14.453125 33.984375 
L 14.453125 5.46875 
Q 14.453125 3.90625 15.421875 3.125 
Q 16.40625 2.34375 17.96875 2.34375 
z
" id="FangSong-70"/>
      <path d="M 22.265625 3.515625 
Q 26.953125 3.515625 30.265625 5.859375 
Q 33.59375 8.203125 35.15625 13.28125 
L 35.15625 37.890625 
Q 35.15625 39.453125 34.375 40.421875 
Q 33.59375 41.40625 31.640625 41.40625 
L 29.296875 41.40625 
L 29.296875 43.75 
L 31.640625 43.75 
Q 33.984375 43.75 35.9375 44.140625 
Q 37.890625 44.53125 39.84375 46.09375 
L 40.625 46.09375 
L 40.625 7.8125 
Q 40.625 6.25 41.59375 5.46875 
Q 42.578125 4.6875 44.140625 4.6875 
L 46.484375 4.6875 
L 46.484375 2.34375 
L 44.140625 2.34375 
Q 42.1875 2.34375 40.234375 1.75 
Q 38.28125 1.171875 35.9375 0 
L 35.15625 0 
L 35.15625 8.203125 
Q 33.203125 3.90625 29.296875 1.75 
Q 25.390625 -0.390625 20.3125 -0.390625 
Q 14.0625 -0.390625 10.9375 3.125 
Q 7.8125 6.640625 7.8125 14.453125 
L 7.8125 37.890625 
Q 7.8125 39.453125 7.03125 40.421875 
Q 6.25 41.40625 4.296875 41.40625 
L 1.953125 41.40625 
L 1.953125 43.75 
L 4.296875 43.75 
Q 6.640625 43.75 8.59375 44.140625 
Q 10.546875 44.53125 12.5 46.09375 
L 13.28125 46.09375 
L 13.28125 13.671875 
Q 13.28125 8.203125 15.625 5.859375 
Q 17.96875 3.515625 22.265625 3.515625 
z
" id="FangSong-117"/>
      <path d="M 2.734375 0 
L 2.734375 2.34375 
L 4.6875 2.34375 
Q 6.640625 2.34375 7.421875 3.125 
Q 8.203125 3.90625 8.203125 5.46875 
L 8.203125 39.0625 
Q 8.203125 40.234375 7.8125 40.8125 
Q 7.421875 41.40625 6.25 41.40625 
L 3.125 41.40625 
L 3.125 43.75 
L 5.859375 43.75 
Q 7.8125 43.75 9.5625 44.140625 
Q 11.328125 44.53125 12.890625 45.703125 
L 13.671875 45.703125 
L 13.671875 36.71875 
Q 17.1875 40.625 20.703125 42.578125 
Q 24.21875 44.53125 28.125 44.53125 
Q 34.765625 44.53125 37.890625 41.015625 
Q 41.015625 37.5 41.015625 30.46875 
L 41.015625 5.46875 
Q 41.015625 3.90625 41.984375 3.125 
Q 42.96875 2.34375 44.53125 2.34375 
L 46.484375 2.34375 
L 46.484375 0 
L 30.078125 0 
L 30.078125 2.34375 
L 32.03125 2.34375 
Q 33.984375 2.34375 34.765625 3.125 
Q 35.546875 3.90625 35.546875 5.46875 
L 35.546875 31.640625 
Q 35.546875 36.328125 33.59375 38.859375 
Q 31.640625 41.40625 27.734375 41.40625 
Q 24.21875 41.40625 20.5 39.0625 
Q 16.796875 36.71875 13.671875 32.421875 
L 13.671875 5.46875 
Q 13.671875 3.90625 14.640625 3.125 
Q 15.625 2.34375 17.1875 2.34375 
L 19.140625 2.34375 
L 19.140625 0 
z
" id="FangSong-110"/>
     </defs>
     <g transform="translate(184.8 267.989688)scale(0.1 -0.1)">
      <use xlink:href="#FangSong-72"/>
      <use x="50" xlink:href="#FangSong-101"/>
      <use x="100" xlink:href="#FangSong-100"/>
      <use x="150" xlink:href="#FangSong-103"/>
      <use x="200" xlink:href="#FangSong-101"/>
      <use x="250" xlink:href="#FangSong-32"/>
      <use x="300" xlink:href="#FangSong-70"/>
      <use x="350" xlink:href="#FangSong-117"/>
      <use x="400" xlink:href="#FangSong-110"/>
      <use x="450" xlink:href="#FangSong-100"/>
     </g>
    </g>
   </g>
   <g id="matplotlib.axis_2">
    <g id="ytick_1">
     <g id="line2d_45">
      <path clip-path="url(#p45f5f5e516)" d="M 42.4 241.56 
L 377.2 241.56 
" style="fill:none;stroke:#b0b0b0;stroke-linecap:square;stroke-width:0.8;"/>
     </g>
     <g id="line2d_46">
      <defs>
       <path d="M 0 0 
L -3.5 0 
" id="m6e128c9d38" style="stroke:#000000;stroke-width:0.8;"/>
      </defs>
      <g>
       <use style="stroke:#000000;stroke-width:0.8;" x="42.4" xlink:href="#m6e128c9d38" y="241.56"/>
      </g>
     </g>
     <g id="text_24">
      <!-- 0.0 -->
      <defs>
       <path d="M 17.578125 4.296875 
Q 17.578125 1.953125 16.015625 0.390625 
Q 14.453125 -1.171875 12.109375 -1.171875 
Q 9.765625 -1.171875 8.203125 0.390625 
Q 6.640625 1.953125 6.640625 4.296875 
Q 6.640625 6.640625 8.203125 8.203125 
Q 9.765625 9.765625 12.109375 9.765625 
Q 14.453125 9.765625 16.015625 8.203125 
Q 17.578125 6.640625 17.578125 4.296875 
z
" id="FangSong-46"/>
      </defs>
      <g transform="translate(20.4 245.056094)scale(0.1 -0.1)">
       <use xlink:href="#FangSong-48"/>
       <use x="50" xlink:href="#FangSong-46"/>
       <use x="100" xlink:href="#FangSong-48"/>
      </g>
     </g>
    </g>
    <g id="ytick_2">
     <g id="line2d_47">
      <path clip-path="url(#p45f5f5e516)" d="M 42.4 200.125524 
L 377.2 200.125524 
" style="fill:none;stroke:#b0b0b0;stroke-linecap:square;stroke-width:0.8;"/>
     </g>
     <g id="line2d_48">
      <g>
       <use style="stroke:#000000;stroke-width:0.8;" x="42.4" xlink:href="#m6e128c9d38" y="200.125524"/>
      </g>
     </g>
     <g id="text_25">
      <!-- 0.2 -->
      <g transform="translate(20.4 203.621617)scale(0.1 -0.1)">
       <use xlink:href="#FangSong-48"/>
       <use x="50" xlink:href="#FangSong-46"/>
       <use x="100" xlink:href="#FangSong-50"/>
      </g>
     </g>
    </g>
    <g id="ytick_3">
     <g id="line2d_49">
      <path clip-path="url(#p45f5f5e516)" d="M 42.4 158.691047 
L 377.2 158.691047 
" style="fill:none;stroke:#b0b0b0;stroke-linecap:square;stroke-width:0.8;"/>
     </g>
     <g id="line2d_50">
      <g>
       <use style="stroke:#000000;stroke-width:0.8;" x="42.4" xlink:href="#m6e128c9d38" y="158.691047"/>
      </g>
     </g>
     <g id="text_26">
      <!-- 0.4 -->
      <g transform="translate(20.4 162.187141)scale(0.1 -0.1)">
       <use xlink:href="#FangSong-48"/>
       <use x="50" xlink:href="#FangSong-46"/>
       <use x="100" xlink:href="#FangSong-52"/>
      </g>
     </g>
    </g>
    <g id="ytick_4">
     <g id="line2d_51">
      <path clip-path="url(#p45f5f5e516)" d="M 42.4 117.256571 
L 377.2 117.256571 
" style="fill:none;stroke:#b0b0b0;stroke-linecap:square;stroke-width:0.8;"/>
     </g>
     <g id="line2d_52">
      <g>
       <use style="stroke:#000000;stroke-width:0.8;" x="42.4" xlink:href="#m6e128c9d38" y="117.256571"/>
      </g>
     </g>
     <g id="text_27">
      <!-- 0.6 -->
      <g transform="translate(20.4 120.752665)scale(0.1 -0.1)">
       <use xlink:href="#FangSong-48"/>
       <use x="50" xlink:href="#FangSong-46"/>
       <use x="100" xlink:href="#FangSong-54"/>
      </g>
     </g>
    </g>
    <g id="ytick_5">
     <g id="line2d_53">
      <path clip-path="url(#p45f5f5e516)" d="M 42.4 75.822095 
L 377.2 75.822095 
" style="fill:none;stroke:#b0b0b0;stroke-linecap:square;stroke-width:0.8;"/>
     </g>
     <g id="line2d_54">
      <g>
       <use style="stroke:#000000;stroke-width:0.8;" x="42.4" xlink:href="#m6e128c9d38" y="75.822095"/>
      </g>
     </g>
     <g id="text_28">
      <!-- 0.8 -->
      <g transform="translate(20.4 79.318189)scale(0.1 -0.1)">
       <use xlink:href="#FangSong-48"/>
       <use x="50" xlink:href="#FangSong-46"/>
       <use x="100" xlink:href="#FangSong-56"/>
      </g>
     </g>
    </g>
    <g id="ytick_6">
     <g id="line2d_55">
      <path clip-path="url(#p45f5f5e516)" d="M 42.4 34.387619 
L 377.2 34.387619 
" style="fill:none;stroke:#b0b0b0;stroke-linecap:square;stroke-width:0.8;"/>
     </g>
     <g id="line2d_56">
      <g>
       <use style="stroke:#000000;stroke-width:0.8;" x="42.4" xlink:href="#m6e128c9d38" y="34.387619"/>
      </g>
     </g>
     <g id="text_29">
      <!-- 1.0 -->
      <g transform="translate(20.4 37.883712)scale(0.1 -0.1)">
       <use xlink:href="#FangSong-49"/>
       <use x="50" xlink:href="#FangSong-46"/>
       <use x="100" xlink:href="#FangSong-48"/>
      </g>
     </g>
    </g>
    <g id="text_30">
     <!-- Time Series $R^2$ -->
     <defs>
      <path d="M 34.375 0 
L 14.0625 0 
L 14.0625 2.34375 
L 17.578125 2.34375 
Q 19.53125 2.34375 20.3125 3.125 
Q 21.09375 3.90625 21.09375 5.46875 
L 21.09375 60.15625 
Q 21.09375 63.28125 20.703125 63.671875 
Q 20.3125 64.0625 17.578125 64.0625 
Q 12.109375 64.0625 9.953125 62.109375 
Q 7.8125 60.15625 4.6875 51.5625 
L 2.34375 51.953125 
L 5.859375 66.796875 
L 42.96875 66.796875 
L 46.09375 51.953125 
L 44.140625 51.5625 
Q 41.015625 59.765625 39.25 61.90625 
Q 37.5 64.0625 32.03125 64.0625 
Q 28.125 64.0625 27.734375 63.671875 
Q 27.34375 63.28125 27.34375 59.765625 
L 27.34375 5.46875 
Q 27.34375 3.90625 28.3125 3.125 
Q 29.296875 2.34375 30.859375 2.34375 
L 34.375 2.34375 
z
" id="FangSong-84"/>
      <path d="M 21.875 37.890625 
Q 21.875 39.453125 21.09375 40.421875 
Q 20.3125 41.40625 18.359375 41.40625 
L 10.15625 41.40625 
L 10.15625 43.75 
L 14.0625 43.75 
Q 17.578125 43.75 20.703125 44.328125 
Q 23.828125 44.921875 26.5625 46.484375 
L 27.34375 46.484375 
L 27.34375 5.46875 
Q 27.34375 3.90625 28.3125 3.125 
Q 29.296875 2.34375 30.859375 2.34375 
L 39.0625 2.34375 
L 39.0625 0 
L 10.15625 0 
L 10.15625 2.34375 
L 18.359375 2.34375 
Q 20.3125 2.34375 21.09375 3.125 
Q 21.875 3.90625 21.875 5.46875 
z
M 30.078125 62.109375 
Q 30.078125 59.765625 28.515625 58.203125 
Q 26.953125 56.640625 24.609375 56.640625 
Q 22.265625 56.640625 20.703125 58.203125 
Q 19.140625 59.765625 19.140625 62.109375 
Q 19.140625 64.453125 20.703125 66.015625 
Q 22.265625 67.578125 24.609375 67.578125 
Q 26.953125 67.578125 28.515625 66.015625 
Q 30.078125 64.453125 30.078125 62.109375 
z
" id="FangSong-105"/>
      <path d="M 2.34375 43.75 
Q 4.296875 43.75 6.25 44.140625 
Q 8.203125 44.53125 9.375 45.3125 
L 10.15625 45.3125 
L 10.15625 38.671875 
Q 12.109375 41.796875 14.453125 43.15625 
Q 16.796875 44.53125 19.53125 44.53125 
Q 23.046875 44.53125 25 43.15625 
Q 26.953125 41.796875 27.34375 38.671875 
Q 29.296875 41.796875 31.828125 43.15625 
Q 34.375 44.53125 37.109375 44.53125 
Q 41.796875 44.53125 43.546875 41.796875 
Q 45.3125 39.0625 45.3125 34.765625 
L 45.3125 5.078125 
Q 45.3125 3.515625 46.09375 2.921875 
Q 46.875 2.34375 48.4375 2.34375 
L 49.21875 2.34375 
L 49.21875 0 
L 35.9375 0 
L 35.9375 2.34375 
L 36.71875 2.34375 
Q 38.28125 2.34375 39.0625 2.921875 
Q 39.84375 3.515625 39.84375 5.078125 
L 39.84375 34.375 
Q 39.84375 38.671875 38.859375 40.03125 
Q 37.890625 41.40625 35.9375 41.40625 
Q 33.203125 41.40625 31.046875 39.453125 
Q 28.90625 37.5 27.734375 33.984375 
L 27.734375 5.078125 
Q 27.734375 3.515625 28.515625 2.921875 
Q 29.296875 2.34375 30.859375 2.34375 
L 31.640625 2.34375 
L 31.640625 0 
L 18.359375 0 
L 18.359375 2.34375 
L 19.140625 2.34375 
Q 20.703125 2.34375 21.484375 2.921875 
Q 22.265625 3.515625 22.265625 5.078125 
L 22.265625 34.375 
Q 22.265625 37.890625 21.484375 39.640625 
Q 20.703125 41.40625 18.359375 41.40625 
Q 15.625 41.40625 13.46875 39.453125 
Q 11.328125 37.5 10.15625 33.59375 
L 10.15625 5.078125 
Q 10.15625 3.515625 10.9375 2.921875 
Q 11.71875 2.34375 13.28125 2.34375 
L 14.0625 2.34375 
L 14.0625 0 
L 0.78125 0 
L 0.78125 2.34375 
L 1.5625 2.34375 
Q 3.125 2.34375 3.90625 2.921875 
Q 4.6875 3.515625 4.6875 5.078125 
L 4.6875 39.0625 
Q 4.6875 40.234375 4.296875 40.8125 
Q 3.90625 41.40625 2.734375 41.40625 
L 1.171875 41.40625 
L 1.171875 43.75 
z
" id="FangSong-109"/>
      <path d="M 23.046875 32.03125 
Q 12.5 36.71875 8.59375 40.234375 
Q 4.6875 43.75 4.6875 51.171875 
Q 4.6875 57.03125 9.5625 62.296875 
Q 14.453125 67.578125 23.4375 67.578125 
Q 27.34375 67.578125 30.859375 66.203125 
Q 34.375 64.84375 35.9375 64.84375 
Q 37.109375 64.84375 38.078125 65.421875 
Q 39.0625 66.015625 39.84375 67.578125 
L 41.40625 51.5625 
L 39.453125 50.78125 
Q 35.9375 58.984375 32.21875 61.90625 
Q 28.515625 64.84375 22.65625 64.84375 
Q 15.234375 64.84375 12.5 60.734375 
Q 9.765625 56.640625 9.765625 51.953125 
Q 9.765625 47.65625 12.296875 45.109375 
Q 14.84375 42.578125 26.171875 37.5 
Q 35.546875 33.59375 39.640625 28.703125 
Q 43.75 23.828125 43.75 17.1875 
Q 43.75 10.15625 38.859375 4.6875 
Q 33.984375 -0.78125 24.609375 -0.78125 
Q 20.703125 -0.78125 17.375 0.578125 
Q 14.0625 1.953125 12.109375 1.953125 
Q 10.9375 1.953125 9.765625 1.171875 
Q 8.59375 0.390625 7.03125 -0.78125 
L 3.90625 18.359375 
L 6.25 19.140625 
Q 8.984375 9.375 13.859375 5.65625 
Q 18.75 1.953125 25 1.953125 
Q 31.640625 1.953125 34.953125 5.859375 
Q 38.28125 9.765625 38.28125 17.1875 
Q 38.28125 21.09375 34.5625 24.796875 
Q 30.859375 28.515625 23.046875 32.03125 
z
" id="FangSong-83"/>
      <path d="M 19.53125 31.640625 
Q 23.4375 37.890625 27.921875 41.203125 
Q 32.421875 44.53125 37.109375 44.53125 
Q 41.015625 44.53125 43.15625 42.765625 
Q 45.3125 41.015625 45.3125 38.671875 
Q 45.3125 36.71875 44.328125 35.546875 
Q 43.359375 34.375 41.40625 34.375 
Q 39.453125 34.375 38.46875 35.546875 
Q 37.5 36.71875 37.890625 38.671875 
Q 37.890625 39.84375 37.5 40.625 
Q 37.109375 41.40625 35.15625 41.40625 
Q 32.03125 41.40625 27.53125 37.5 
Q 23.046875 33.59375 19.53125 26.5625 
L 19.53125 5.46875 
Q 19.53125 3.90625 20.5 3.125 
Q 21.484375 2.34375 23.046875 2.34375 
L 31.640625 2.34375 
L 31.640625 0 
L 2.734375 0 
L 2.734375 2.34375 
L 10.546875 2.34375 
Q 12.5 2.34375 13.28125 3.125 
Q 14.0625 3.90625 14.0625 5.46875 
L 14.0625 37.890625 
Q 14.0625 39.453125 13.28125 40.421875 
Q 12.5 41.40625 10.546875 41.40625 
L 3.125 41.40625 
L 3.125 43.75 
L 6.25 43.75 
Q 8.984375 43.75 12.6875 44.328125 
Q 16.40625 44.921875 18.359375 45.703125 
L 19.53125 45.703125 
z
" id="FangSong-114"/>
      <path d="M 9.375 32.421875 
Q 9.375 38.28125 13.859375 41.40625 
Q 18.359375 44.53125 24.609375 44.53125 
Q 28.125 44.53125 31.25 43.546875 
Q 34.375 42.578125 35.546875 42.578125 
Q 36.71875 42.578125 37.5 42.96875 
Q 38.28125 43.359375 39.453125 44.53125 
L 41.015625 31.640625 
L 38.671875 31.25 
Q 37.109375 36.328125 33.390625 39.25 
Q 29.6875 42.1875 25 42.1875 
Q 19.921875 42.1875 16.984375 40.234375 
Q 14.0625 38.28125 14.0625 34.765625 
Q 14.0625 31.640625 15.421875 29.875 
Q 16.796875 28.125 20.3125 27.34375 
Q 23.046875 26.171875 27.140625 24.796875 
Q 31.25 23.4375 34.765625 21.875 
Q 37.890625 20.3125 40.03125 17.765625 
Q 42.1875 15.234375 42.1875 12.109375 
Q 42.1875 6.25 38.078125 2.921875 
Q 33.984375 -0.390625 26.171875 -0.390625 
Q 21.09375 -0.390625 18.546875 0.578125 
Q 16.015625 1.5625 14.453125 1.5625 
Q 13.28125 1.5625 11.90625 0.96875 
Q 10.546875 0.390625 8.984375 -0.390625 
L 7.8125 14.0625 
L 10.15625 14.453125 
Q 11.328125 8.203125 15.234375 5.078125 
Q 19.140625 1.953125 26.171875 1.953125 
Q 31.640625 1.953125 34.5625 3.90625 
Q 37.5 5.859375 37.5 9.765625 
Q 37.5 12.5 35.9375 14.25 
Q 34.375 16.015625 32.8125 16.796875 
Q 28.90625 18.359375 24.21875 20.109375 
Q 19.53125 21.875 16.015625 23.4375 
Q 12.5 25 10.9375 27.34375 
Q 9.375 29.6875 9.375 32.421875 
z
" id="FangSong-115"/>
      <path d="M 25.203125 64.796875 
L 20.21875 38.921875 
L 32.90625 38.921875 
Q 40.375 38.921875 44.984375 43.046875 
Q 49.609375 47.171875 49.609375 53.8125 
Q 49.609375 59.125 46.5 61.953125 
Q 43.40625 64.796875 37.59375 64.796875 
z
M 43.3125 35.015625 
Q 46.4375 34.28125 48.515625 31.390625 
Q 50.59375 28.515625 53.328125 19.921875 
L 59.515625 0 
L 49.125 0 
L 43.40625 18.703125 
Q 41.21875 25.921875 38.328125 28.359375 
Q 35.453125 30.8125 29.5 30.8125 
L 18.609375 30.8125 
L 12.59375 0 
L 2.6875 0 
L 16.890625 72.90625 
L 39.109375 72.90625 
Q 49.21875 72.90625 54.609375 68.328125 
Q 60.015625 63.765625 60.015625 55.171875 
Q 60.015625 47.5625 55.421875 41.984375 
Q 50.828125 36.421875 43.3125 35.015625 
z
" id="DejaVuSans-Oblique-82"/>
      <path d="M 19.1875 8.296875 
L 53.609375 8.296875 
L 53.609375 0 
L 7.328125 0 
L 7.328125 8.296875 
Q 12.9375 14.109375 22.625 23.890625 
Q 32.328125 33.6875 34.8125 36.53125 
Q 39.546875 41.84375 41.421875 45.53125 
Q 43.3125 49.21875 43.3125 52.78125 
Q 43.3125 58.59375 39.234375 62.25 
Q 35.15625 65.921875 28.609375 65.921875 
Q 23.96875 65.921875 18.8125 64.3125 
Q 13.671875 62.703125 7.8125 59.421875 
L 7.8125 69.390625 
Q 13.765625 71.78125 18.9375 73 
Q 24.125 74.21875 28.421875 74.21875 
Q 39.75 74.21875 46.484375 68.546875 
Q 53.21875 62.890625 53.21875 53.421875 
Q 53.21875 48.921875 51.53125 44.890625 
Q 49.859375 40.875 45.40625 35.40625 
Q 44.1875 33.984375 37.640625 27.21875 
Q 31.109375 20.453125 19.1875 8.296875 
z
" id="DejaVuSans-50"/>
     </defs>
     <g transform="translate(14.954688 169.04)rotate(-90)scale(0.1 -0.1)">
      <use transform="translate(0 0.765625)" xlink:href="#FangSong-84"/>
      <use transform="translate(50 0.765625)" xlink:href="#FangSong-105"/>
      <use transform="translate(100 0.765625)" xlink:href="#FangSong-109"/>
      <use transform="translate(150 0.765625)" xlink:href="#FangSong-101"/>
      <use transform="translate(200 0.765625)" xlink:href="#FangSong-32"/>
      <use transform="translate(250 0.765625)" xlink:href="#FangSong-83"/>
      <use transform="translate(300 0.765625)" xlink:href="#FangSong-101"/>
      <use transform="translate(350 0.765625)" xlink:href="#FangSong-114"/>
      <use transform="translate(400 0.765625)" xlink:href="#FangSong-105"/>
      <use transform="translate(450 0.765625)" xlink:href="#FangSong-101"/>
      <use transform="translate(500 0.765625)" xlink:href="#FangSong-115"/>
      <use transform="translate(550 0.765625)" xlink:href="#FangSong-32"/>
      <use transform="translate(600 0.765625)" xlink:href="#DejaVuSans-Oblique-82"/>
      <use transform="translate(676.499193 39.046875)scale(0.7)" xlink:href="#DejaVuSans-50"/>
     </g>
    </g>
   </g>
   <g id="line2d_57">
    <path clip-path="url(#p45f5f5e516)" d="M 42.4 55.905759 
L 377.2 55.905759 
" style="fill:none;stroke:#ff0000;stroke-dasharray:7.4,3.2;stroke-dashoffset:0;stroke-width:2;"/>
   </g>
   <g id="patch_25">
    <path d="M 42.4 241.56 
L 42.4 24.12 
" style="fill:none;stroke:#000000;stroke-linecap:square;stroke-linejoin:miter;stroke-width:0.8;"/>
   </g>
   <g id="patch_26">
    <path d="M 377.2 241.56 
L 377.2 24.12 
" style="fill:none;stroke:#000000;stroke-linecap:square;stroke-linejoin:miter;stroke-width:0.8;"/>
   </g>
   <g id="patch_27">
    <path d="M 42.4 241.56 
L 377.2 241.56 
" style="fill:none;stroke:#000000;stroke-linecap:square;stroke-linejoin:miter;stroke-width:0.8;"/>
   </g>
   <g id="patch_28">
    <path d="M 42.4 24.12 
L 377.2 24.12 
" style="fill:none;stroke:#000000;stroke-linecap:square;stroke-linejoin:miter;stroke-width:0.8;"/>
   </g>
   <g id="text_31">
    <!-- Time Series $R^2$ of Convexity: Sample Hedge Funds -->
    <defs>
     <path d="M 44.921875 21.875 
Q 44.921875 12.109375 39.0625 5.65625 
Q 33.203125 -0.78125 24.609375 -0.78125 
Q 15.625 -0.78125 9.953125 5.859375 
Q 4.296875 12.5 4.296875 21.875 
Q 4.296875 30.46875 9.953125 37.5 
Q 15.625 44.53125 24.609375 44.53125 
Q 33.984375 44.53125 39.453125 37.5 
Q 44.921875 30.46875 44.921875 21.875 
z
M 10.546875 21.484375 
Q 10.546875 11.328125 14.640625 6.4375 
Q 18.75 1.5625 24.609375 1.5625 
Q 31.25 1.5625 34.953125 6.828125 
Q 38.671875 12.109375 38.671875 21.484375 
Q 38.671875 31.640625 34.5625 36.90625 
Q 30.46875 42.1875 24.609375 42.1875 
Q 19.140625 42.1875 14.84375 36.90625 
Q 10.546875 31.640625 10.546875 21.484375 
z
" id="FangSong-111"/>
     <path d="M 17.1875 50.390625 
Q 17.1875 58.59375 22.265625 62.6875 
Q 27.34375 66.796875 33.59375 66.796875 
Q 40.234375 66.796875 43.546875 64.453125 
Q 46.875 62.109375 46.875 58.984375 
Q 46.875 57.421875 46.09375 56.25 
Q 45.3125 55.078125 42.96875 55.078125 
Q 41.40625 55.078125 40.421875 55.859375 
Q 39.453125 56.640625 39.453125 58.59375 
Q 39.453125 58.984375 39.640625 59.765625 
Q 39.84375 60.546875 39.84375 60.9375 
Q 39.84375 62.5 38.671875 63.46875 
Q 37.5 64.453125 33.203125 64.453125 
Q 28.515625 64.453125 25.578125 61.515625 
Q 22.65625 58.59375 22.65625 51.5625 
L 22.65625 43.75 
L 39.0625 43.75 
L 39.0625 41.40625 
L 22.65625 41.40625 
L 22.65625 5.46875 
Q 22.65625 3.90625 23.625 3.125 
Q 24.609375 2.34375 26.171875 2.34375 
L 35.546875 2.34375 
L 35.546875 0 
L 7.03125 0 
L 7.03125 2.34375 
L 13.671875 2.34375 
Q 15.625 2.34375 16.40625 3.125 
Q 17.1875 3.90625 17.1875 5.46875 
L 17.1875 41.40625 
L 5.078125 41.40625 
L 5.078125 43.75 
L 17.1875 43.75 
z
" id="FangSong-102"/>
     <path d="M 26.5625 -1.171875 
Q 15.625 -1.171875 9.171875 7.03125 
Q 2.734375 15.234375 2.734375 32.8125 
Q 2.734375 47.65625 9.5625 57.421875 
Q 16.40625 67.1875 28.125 67.1875 
Q 30.859375 67.1875 33.59375 66.203125 
Q 36.328125 65.234375 38.28125 65.234375 
Q 39.84375 65.234375 40.8125 65.625 
Q 41.796875 66.015625 42.578125 67.1875 
L 46.09375 50 
L 43.75 49.21875 
Q 41.40625 56.640625 37.5 60.546875 
Q 33.59375 64.453125 27.34375 64.453125 
Q 19.140625 64.453125 14.640625 55.46875 
Q 10.15625 46.484375 10.15625 33.203125 
Q 10.15625 18.75 14.0625 10.546875 
Q 17.96875 2.34375 26.953125 2.34375 
Q 33.203125 2.34375 37.6875 6.828125 
Q 42.1875 11.328125 43.75 18.75 
L 46.09375 17.578125 
Q 44.140625 9.375 38.859375 4.09375 
Q 33.59375 -1.171875 26.5625 -1.171875 
z
" id="FangSong-67"/>
     <path d="M 25 -0.390625 
L 22.65625 -0.390625 
L 9.375 37.890625 
Q 8.984375 39.453125 7.8125 40.421875 
Q 6.640625 41.40625 5.078125 41.40625 
L 3.125 41.40625 
L 3.125 43.75 
L 19.921875 43.75 
L 19.921875 41.40625 
L 18.359375 41.40625 
Q 16.015625 41.40625 15.421875 40.234375 
Q 14.84375 39.0625 15.625 36.328125 
L 25 8.984375 
L 25.78125 8.984375 
L 35.15625 35.9375 
Q 36.328125 38.671875 35.34375 40.03125 
Q 34.375 41.40625 32.03125 41.40625 
L 31.25 41.40625 
L 31.25 43.75 
L 45.3125 43.75 
L 45.3125 41.40625 
L 44.53125 41.40625 
Q 42.1875 41.40625 40.8125 40.03125 
Q 39.453125 38.671875 38.28125 35.9375 
z
" id="FangSong-118"/>
     <path d="M 25.78125 26.953125 
L 32.8125 37.5 
Q 33.984375 39.0625 33.78125 40.234375 
Q 33.59375 41.40625 30.859375 41.40625 
L 28.515625 41.40625 
L 28.515625 43.75 
L 43.75 43.75 
L 43.75 41.40625 
L 41.796875 41.40625 
Q 41.015625 41.40625 39.84375 41.203125 
Q 38.671875 41.015625 37.890625 39.84375 
L 27.34375 24.21875 
L 38.28125 6.25 
Q 39.453125 4.296875 41.203125 3.3125 
Q 42.96875 2.34375 43.75 2.34375 
L 45.3125 2.34375 
L 45.3125 0 
L 28.125 0 
L 28.125 2.34375 
L 30.46875 2.34375 
Q 32.8125 2.34375 33 3.515625 
Q 33.203125 4.6875 32.421875 6.25 
L 24.21875 19.53125 
L 14.84375 5.859375 
Q 14.453125 3.90625 15.03125 3.125 
Q 15.625 2.34375 17.1875 2.34375 
L 18.359375 2.34375 
L 18.359375 0 
L 3.125 0 
L 3.125 2.34375 
L 5.46875 2.34375 
Q 7.03125 2.34375 8.984375 3.515625 
Q 10.9375 4.6875 12.109375 7.03125 
L 22.265625 22.265625 
L 12.109375 38.671875 
Q 11.71875 39.453125 10.546875 40.421875 
Q 9.375 41.40625 7.421875 41.40625 
L 5.46875 41.40625 
L 5.46875 43.75 
L 22.265625 43.75 
L 22.265625 41.40625 
L 21.09375 41.40625 
Q 19.140625 41.40625 18.75 40.234375 
Q 18.359375 39.0625 19.140625 37.5 
z
" id="FangSong-120"/>
     <path d="M 23.046875 12.5 
Q 23.046875 7.03125 25 5.078125 
Q 26.953125 3.125 30.859375 3.125 
Q 34.765625 3.125 37.109375 5.65625 
Q 39.453125 8.203125 40.234375 12.890625 
L 42.1875 12.109375 
Q 41.40625 6.640625 38.078125 3.125 
Q 34.765625 -0.390625 29.296875 -0.390625 
Q 23.4375 -0.390625 20.5 3.125 
Q 17.578125 6.640625 17.578125 14.0625 
L 17.578125 41.40625 
L 5.859375 41.40625 
L 5.859375 43.75 
L 8.984375 43.75 
Q 13.671875 43.75 16.59375 46.671875 
Q 19.53125 49.609375 20.3125 55.859375 
L 20.703125 58.984375 
L 23.046875 58.984375 
L 23.046875 43.75 
L 38.671875 43.75 
L 38.671875 41.40625 
L 23.046875 41.40625 
z
" id="FangSong-116"/>
     <path d="M 25.390625 10.9375 
L 26.171875 10.9375 
L 34.765625 37.109375 
Q 35.546875 39.0625 34.5625 40.234375 
Q 33.59375 41.40625 32.03125 41.40625 
L 29.6875 41.40625 
L 29.6875 43.75 
L 46.09375 43.75 
L 46.09375 41.40625 
L 43.75 41.40625 
Q 42.1875 41.40625 40.625 40.234375 
Q 39.0625 39.0625 38.28125 37.109375 
L 25 -1.5625 
Q 23.046875 -7.8125 20.109375 -11.125 
Q 17.1875 -14.453125 12.5 -14.84375 
Q 10.15625 -14.84375 8.390625 -13.671875 
Q 6.640625 -12.5 6.640625 -10.546875 
Q 6.640625 -8.984375 7.609375 -7.8125 
Q 8.59375 -6.640625 10.546875 -6.640625 
Q 12.109375 -6.640625 13.078125 -8.203125 
Q 14.0625 -9.765625 16.40625 -9.171875 
Q 18.75 -8.59375 19.53125 -6.640625 
Q 20.3125 -5.46875 21.484375 -2.53125 
Q 22.65625 0.390625 23.4375 3.515625 
L 10.15625 37.890625 
Q 9.765625 39.453125 8.390625 40.421875 
Q 7.03125 41.40625 5.46875 41.40625 
L 3.90625 41.40625 
L 3.90625 43.75 
L 20.3125 43.75 
L 20.3125 41.40625 
L 18.75 41.40625 
Q 17.1875 41.40625 16.40625 40.421875 
Q 15.625 39.453125 16.015625 37.5 
z
" id="FangSong-121"/>
     <path d="M 25 4.296875 
Q 25 1.953125 23.4375 0.390625 
Q 21.875 -1.171875 19.53125 -1.171875 
Q 17.1875 -1.171875 15.625 0.390625 
Q 14.0625 1.953125 14.0625 4.296875 
Q 14.0625 6.640625 15.625 8.203125 
Q 17.1875 9.765625 19.53125 9.765625 
Q 21.875 9.765625 23.4375 8.203125 
Q 25 6.640625 25 4.296875 
z
M 25 31.640625 
Q 25 29.296875 23.4375 27.734375 
Q 21.875 26.171875 19.53125 26.171875 
Q 17.1875 26.171875 15.625 27.734375 
Q 14.0625 29.296875 14.0625 31.640625 
Q 14.0625 33.984375 15.625 35.546875 
Q 17.1875 37.109375 19.53125 37.109375 
Q 21.875 37.109375 23.4375 35.546875 
Q 25 33.984375 25 31.640625 
z
" id="FangSong-58"/>
     <path d="M 18.75 -0.390625 
Q 11.71875 -0.390625 7.8125 2.921875 
Q 3.90625 6.25 3.90625 10.546875 
Q 3.90625 17.578125 9.953125 22.0625 
Q 16.015625 26.5625 33.984375 28.515625 
L 33.984375 33.203125 
Q 33.984375 37.109375 32.21875 39.640625 
Q 30.46875 42.1875 24.21875 42.1875 
Q 17.578125 42.1875 14.84375 40.03125 
Q 12.109375 37.890625 12.890625 35.546875 
Q 13.671875 33.984375 12.890625 32.421875 
Q 12.109375 30.859375 9.765625 30.859375 
Q 8.203125 30.859375 7.21875 31.828125 
Q 6.25 32.8125 6.25 34.765625 
Q 6.25 38.28125 11.328125 41.40625 
Q 16.40625 44.53125 23.828125 44.53125 
Q 31.640625 44.53125 35.546875 41.59375 
Q 39.453125 38.671875 39.453125 33.203125 
L 39.453125 7.421875 
Q 39.453125 4.296875 40.03125 3.703125 
Q 40.625 3.125 42.1875 3.125 
Q 44.140625 3.125 44.921875 4.875 
Q 45.703125 6.640625 45.703125 9.765625 
L 47.65625 9.765625 
Q 47.65625 4.296875 45.703125 2.140625 
Q 43.75 0 40.625 0 
Q 37.890625 0 36.328125 1.171875 
Q 34.765625 2.34375 33.984375 5.078125 
Q 30.078125 2.34375 26.75 0.96875 
Q 23.4375 -0.390625 18.75 -0.390625 
z
M 10.546875 11.71875 
Q 10.546875 8.203125 12.6875 5.265625 
Q 14.84375 2.34375 19.53125 2.34375 
Q 23.046875 2.34375 26.5625 3.703125 
Q 30.078125 5.078125 33.984375 7.8125 
L 33.984375 26.171875 
Q 20.703125 24.609375 15.625 20.890625 
Q 10.546875 17.1875 10.546875 11.71875 
z
" id="FangSong-97"/>
     <path d="M 17.578125 -12.109375 
L 20.3125 -12.109375 
L 20.3125 -14.453125 
L 2.34375 -14.453125 
L 2.34375 -12.109375 
L 4.6875 -12.109375 
Q 6.640625 -12.109375 7.421875 -11.328125 
Q 8.203125 -10.546875 8.203125 -8.59375 
L 8.203125 37.5 
Q 8.203125 39.0625 7.421875 40.03125 
Q 6.640625 41.015625 4.6875 41.015625 
L 2.34375 41.015625 
L 2.34375 43.359375 
L 5.859375 43.359375 
Q 7.8125 43.359375 9.5625 43.75 
Q 11.328125 44.140625 12.890625 45.3125 
L 13.671875 45.3125 
L 13.671875 36.328125 
Q 16.40625 40.234375 19.71875 42.1875 
Q 23.046875 44.140625 26.953125 44.140625 
Q 34.765625 44.140625 39.84375 38.859375 
Q 44.921875 33.59375 44.921875 22.265625 
Q 44.921875 11.328125 39.453125 5.46875 
Q 33.984375 -0.390625 26.5625 -0.390625 
Q 22.265625 -0.390625 19.328125 0.96875 
Q 16.40625 2.34375 13.671875 5.078125 
L 13.671875 -8.59375 
Q 13.671875 -10.546875 14.84375 -11.328125 
Q 16.015625 -12.109375 17.578125 -12.109375 
z
M 13.671875 10.15625 
Q 15.625 6.25 18.546875 4.296875 
Q 21.484375 2.34375 25.390625 2.34375 
Q 30.859375 2.34375 34.765625 7.21875 
Q 38.671875 12.109375 38.671875 22.265625 
Q 38.671875 31.640625 35.734375 36.328125 
Q 32.8125 41.015625 26.953125 41.015625 
Q 23.4375 41.015625 19.921875 38.859375 
Q 16.40625 36.71875 13.671875 32.03125 
z
" id="FangSong-112"/>
     <path d="M 14.0625 66.796875 
Q 17.578125 66.796875 20.703125 67.578125 
Q 23.828125 68.359375 26.5625 69.921875 
L 27.34375 69.921875 
L 27.34375 5.46875 
Q 27.34375 3.90625 28.3125 3.125 
Q 29.296875 2.34375 30.859375 2.34375 
L 39.84375 2.34375 
L 39.84375 0 
L 9.375 0 
L 9.375 2.34375 
L 18.359375 2.34375 
Q 20.3125 2.34375 21.09375 3.125 
Q 21.875 3.90625 21.875 5.46875 
L 21.875 61.328125 
Q 21.875 62.890625 21.09375 63.671875 
Q 20.3125 64.453125 18.359375 64.453125 
L 9.765625 64.453125 
L 9.765625 66.796875 
z
" id="FangSong-108"/>
    </defs>
    <g transform="translate(67.36 18.12)scale(0.12 -0.12)">
     <use transform="translate(0 0.765625)" xlink:href="#FangSong-84"/>
     <use transform="translate(50 0.765625)" xlink:href="#FangSong-105"/>
     <use transform="translate(100 0.765625)" xlink:href="#FangSong-109"/>
     <use transform="translate(150 0.765625)" xlink:href="#FangSong-101"/>
     <use transform="translate(200 0.765625)" xlink:href="#FangSong-32"/>
     <use transform="translate(250 0.765625)" xlink:href="#FangSong-83"/>
     <use transform="translate(300 0.765625)" xlink:href="#FangSong-101"/>
     <use transform="translate(350 0.765625)" xlink:href="#FangSong-114"/>
     <use transform="translate(400 0.765625)" xlink:href="#FangSong-105"/>
     <use transform="translate(450 0.765625)" xlink:href="#FangSong-101"/>
     <use transform="translate(500 0.765625)" xlink:href="#FangSong-115"/>
     <use transform="translate(550 0.765625)" xlink:href="#FangSong-32"/>
     <use transform="translate(600 0.765625)" xlink:href="#DejaVuSans-Oblique-82"/>
     <use transform="translate(676.499193 39.046875)scale(0.7)" xlink:href="#DejaVuSans-50"/>
     <use transform="translate(723.769701 0.765625)" xlink:href="#FangSong-32"/>
     <use transform="translate(773.769701 0.765625)" xlink:href="#FangSong-111"/>
     <use transform="translate(823.769701 0.765625)" xlink:href="#FangSong-102"/>
     <use transform="translate(873.769701 0.765625)" xlink:href="#FangSong-32"/>
     <use transform="translate(923.769701 0.765625)" xlink:href="#FangSong-67"/>
     <use transform="translate(973.769701 0.765625)" xlink:href="#FangSong-111"/>
     <use transform="translate(1023.769701 0.765625)" xlink:href="#FangSong-110"/>
     <use transform="translate(1073.769701 0.765625)" xlink:href="#FangSong-118"/>
     <use transform="translate(1123.769701 0.765625)" xlink:href="#FangSong-101"/>
     <use transform="translate(1173.769701 0.765625)" xlink:href="#FangSong-120"/>
     <use transform="translate(1223.769701 0.765625)" xlink:href="#FangSong-105"/>
     <use transform="translate(1273.769701 0.765625)" xlink:href="#FangSong-116"/>
     <use transform="translate(1323.769701 0.765625)" xlink:href="#FangSong-121"/>
     <use transform="translate(1373.769701 0.765625)" xlink:href="#FangSong-58"/>
     <use transform="translate(1423.769701 0.765625)" xlink:href="#FangSong-32"/>
     <use transform="translate(1473.769701 0.765625)" xlink:href="#FangSong-83"/>
     <use transform="translate(1523.769701 0.765625)" xlink:href="#FangSong-97"/>
     <use transform="translate(1573.769701 0.765625)" xlink:href="#FangSong-109"/>
     <use transform="translate(1623.769701 0.765625)" xlink:href="#FangSong-112"/>
     <use transform="translate(1673.769701 0.765625)" xlink:href="#FangSong-108"/>
     <use transform="translate(1723.769701 0.765625)" xlink:href="#FangSong-101"/>
     <use transform="translate(1773.769701 0.765625)" xlink:href="#FangSong-32"/>
     <use transform="translate(1823.769701 0.765625)" xlink:href="#FangSong-72"/>
     <use transform="translate(1873.769701 0.765625)" xlink:href="#FangSong-101"/>
     <use transform="translate(1923.769701 0.765625)" xlink:href="#FangSong-100"/>
     <use transform="translate(1973.769701 0.765625)" xlink:href="#FangSong-103"/>
     <use transform="translate(2023.769701 0.765625)" xlink:href="#FangSong-101"/>
     <use transform="translate(2073.769701 0.765625)" xlink:href="#FangSong-32"/>
     <use transform="translate(2123.769701 0.765625)" xlink:href="#FangSong-70"/>
     <use transform="translate(2173.769701 0.765625)" xlink:href="#FangSong-117"/>
     <use transform="translate(2223.769701 0.765625)" xlink:href="#FangSong-110"/>
     <use transform="translate(2273.769701 0.765625)" xlink:href="#FangSong-100"/>
     <use transform="translate(2323.769701 0.765625)" xlink:href="#FangSong-115"/>
    </g>
   </g>
   <g id="legend_1">
    <g id="patch_29">
     <path d="M 265.8 59.804375 
L 370.2 59.804375 
Q 372.2 59.804375 372.2 57.804375 
L 372.2 31.12 
Q 372.2 29.12 370.2 29.12 
L 265.8 29.12 
Q 263.8 29.12 263.8 31.12 
L 263.8 57.804375 
Q 263.8 59.804375 265.8 59.804375 
z
" style="fill:#ffffff;opacity:0.8;stroke:#cccccc;stroke-linejoin:miter;"/>
    </g>
    <g id="line2d_58">
     <path d="M 267.8 36.62 
L 287.8 36.62 
" style="fill:none;stroke:#ff0000;stroke-dasharray:7.4,3.2;stroke-dashoffset:0;stroke-width:2;"/>
    </g>
    <g id="line2d_59"/>
    <g id="text_32">
     <!-- Average -->
     <defs>
      <path d="M 31.25 25 
L 13.671875 25 
L 10.15625 10.15625 
Q 9.375 6.640625 10.15625 4.484375 
Q 10.9375 2.34375 13.671875 2.34375 
L 14.84375 2.34375 
L 14.84375 0 
L 0.390625 0 
L 0.390625 2.34375 
L 1.5625 2.34375 
Q 3.125 2.34375 4.296875 3.3125 
Q 5.46875 4.296875 5.859375 6.640625 
L 21.09375 66.40625 
L 26.953125 68.359375 
L 41.796875 6.640625 
Q 42.578125 4.296875 43.75 3.3125 
Q 44.921875 2.34375 46.484375 2.34375 
L 47.65625 2.34375 
L 47.65625 0 
L 30.859375 0 
L 30.859375 2.34375 
L 32.421875 2.34375 
Q 34.765625 2.34375 35.34375 3.703125 
Q 35.9375 5.078125 35.15625 7.8125 
z
M 23.046875 59.765625 
L 22.65625 59.765625 
L 14.453125 27.34375 
L 30.859375 27.34375 
z
" id="FangSong-65"/>
     </defs>
     <g transform="translate(295.8 40.12)scale(0.1 -0.1)">
      <use xlink:href="#FangSong-65"/>
      <use x="50" xlink:href="#FangSong-118"/>
      <use x="100" xlink:href="#FangSong-101"/>
      <use x="150" xlink:href="#FangSong-114"/>
      <use x="200" xlink:href="#FangSong-97"/>
      <use x="250" xlink:href="#FangSong-103"/>
      <use x="300" xlink:href="#FangSong-101"/>
     </g>
    </g>
    <g id="patch_30">
     <path d="M 267.8 54.359062 
L 287.8 54.359062 
L 287.8 47.359062 
L 267.8 47.359062 
z
" style="fill:#1f77b4;"/>
    </g>
    <g id="text_33">
     <!-- Time Series $R^2$ -->
     <g transform="translate(295.8 54.359062)scale(0.1 -0.1)">
      <use transform="translate(0 0.765625)" xlink:href="#FangSong-84"/>
      <use transform="translate(50 0.765625)" xlink:href="#FangSong-105"/>
      <use transform="translate(100 0.765625)" xlink:href="#FangSong-109"/>
      <use transform="translate(150 0.765625)" xlink:href="#FangSong-101"/>
      <use transform="translate(200 0.765625)" xlink:href="#FangSong-32"/>
      <use transform="translate(250 0.765625)" xlink:href="#FangSong-83"/>
      <use transform="translate(300 0.765625)" xlink:href="#FangSong-101"/>
      <use transform="translate(350 0.765625)" xlink:href="#FangSong-114"/>
      <use transform="translate(400 0.765625)" xlink:href="#FangSong-105"/>
      <use transform="translate(450 0.765625)" xlink:href="#FangSong-101"/>
      <use transform="translate(500 0.765625)" xlink:href="#FangSong-115"/>
      <use transform="translate(550 0.765625)" xlink:href="#FangSong-32"/>
      <use transform="translate(600 0.765625)" xlink:href="#DejaVuSans-Oblique-82"/>
      <use transform="translate(676.499193 39.046875)scale(0.7)" xlink:href="#DejaVuSans-50"/>
     </g>
    </g>
   </g>
  </g>
 </g>
 <defs>
  <clipPath id="p45f5f5e516">
   <rect height="217.44" width="334.8" x="42.4" y="24.12"/>
  </clipPath>
 </defs>
</svg>
